G04 #@! TF.GenerationSoftware,KiCad,Pcbnew,5.1.5-52549c5~84~ubuntu18.04.1*
G04 #@! TF.CreationDate,2020-01-09T22:12:06-08:00*
G04 #@! TF.ProjectId,Breakout,42726561-6b6f-4757-942e-6b696361645f,A*
G04 #@! TF.SameCoordinates,Original*
G04 #@! TF.FileFunction,Copper,L1,Top*
G04 #@! TF.FilePolarity,Positive*
%FSLAX46Y46*%
G04 Gerber Fmt 4.6, Leading zero omitted, Abs format (unit mm)*
G04 Created by KiCad (PCBNEW 5.1.5-52549c5~84~ubuntu18.04.1) date 2020-01-09 22:12:06*
%MOMM*%
%LPD*%
G04 APERTURE LIST*
%ADD10O,1.700000X1.700000*%
%ADD11R,1.700000X1.700000*%
%ADD12R,1.000000X6.000000*%
%ADD13R,1.500000X6.000000*%
%ADD14C,1.000000*%
%ADD15C,0.250000*%
%ADD16C,0.254000*%
G04 APERTURE END LIST*
D10*
X158750000Y-65151000D03*
X158750000Y-67691000D03*
X156210000Y-65151000D03*
X156210000Y-67691000D03*
X153670000Y-65151000D03*
X153670000Y-67691000D03*
X151130000Y-65151000D03*
X151130000Y-67691000D03*
X148590000Y-65151000D03*
X148590000Y-67691000D03*
X146050000Y-65151000D03*
X146050000Y-67691000D03*
X143510000Y-65151000D03*
X143510000Y-67691000D03*
X140970000Y-65151000D03*
X140970000Y-67691000D03*
X138430000Y-65151000D03*
X138430000Y-67691000D03*
X135890000Y-65151000D03*
X135890000Y-67691000D03*
X133350000Y-65151000D03*
X133350000Y-67691000D03*
X130810000Y-65151000D03*
X130810000Y-67691000D03*
X128270000Y-65151000D03*
X128270000Y-67691000D03*
X125730000Y-65151000D03*
X125730000Y-67691000D03*
X123190000Y-65151000D03*
X123190000Y-67691000D03*
X120650000Y-65151000D03*
D11*
X120650000Y-67691000D03*
D12*
X117950000Y-97700000D03*
X119450000Y-97700000D03*
X120950000Y-97700000D03*
X122450000Y-97700000D03*
X123950000Y-97700000D03*
X125450000Y-97700000D03*
X126950000Y-97700000D03*
X128450000Y-97700000D03*
X129950000Y-97700000D03*
X131450000Y-97700000D03*
X132950000Y-97700000D03*
X134450000Y-97700000D03*
X135950000Y-97700000D03*
X137450000Y-97700000D03*
X138950000Y-97700000D03*
X140450000Y-97700000D03*
X141950000Y-97700000D03*
X143450000Y-97700000D03*
X144950000Y-97700000D03*
X146450000Y-97700000D03*
X147950000Y-97700000D03*
X149450000Y-97700000D03*
X150950000Y-97700000D03*
X152450000Y-97700000D03*
X153950000Y-97700000D03*
X155450000Y-97700000D03*
X156950000Y-97700000D03*
X158450000Y-97700000D03*
X159950000Y-97700000D03*
X161450000Y-97700000D03*
D13*
X116200000Y-97700000D03*
X163200000Y-97700000D03*
D14*
X116200000Y-95450000D02*
X116205000Y-95445000D01*
X116200000Y-97700000D02*
X116200000Y-95450000D01*
D15*
X158750000Y-90737081D02*
X158750000Y-89535000D01*
X161450000Y-97700000D02*
X161450000Y-93437081D01*
X161450000Y-93437081D02*
X158750000Y-90737081D01*
X149450000Y-91597081D02*
X149450000Y-97700000D01*
X148590000Y-89535000D02*
X148590000Y-90737081D01*
X148590000Y-90737081D02*
X149450000Y-91597081D01*
X143510000Y-89535000D02*
X143510000Y-90737081D01*
X143450000Y-90804081D02*
X143450000Y-97700000D01*
X143446500Y-90800581D02*
X143450000Y-90804081D01*
X143450000Y-90797081D02*
X143510000Y-90737081D01*
X143450000Y-90804081D02*
X143450000Y-90797081D01*
X134450000Y-92177081D02*
X134450000Y-97700000D01*
X135890000Y-89535000D02*
X135890000Y-90737081D01*
X135890000Y-90737081D02*
X134450000Y-92177081D01*
X122450000Y-94017081D02*
X122450000Y-97700000D01*
X125730000Y-89535000D02*
X125730000Y-90737081D01*
X125730000Y-90737081D02*
X122450000Y-94017081D01*
X121094500Y-91630500D02*
X121920000Y-90805000D01*
X119316500Y-91630500D02*
X121094500Y-91630500D01*
X117950000Y-97700000D02*
X117950000Y-92997000D01*
X117950000Y-92997000D02*
X119316500Y-91630500D01*
X119450000Y-93402000D02*
X119450000Y-97700000D01*
X120015000Y-92837000D02*
X119450000Y-93402000D01*
X121090081Y-92837000D02*
X120015000Y-92837000D01*
X123190000Y-90737081D02*
X121090081Y-92837000D01*
X120950000Y-97700000D02*
X120950000Y-94124500D01*
X120950000Y-94124500D02*
X124460000Y-90614500D01*
X123950000Y-97700000D02*
X123950000Y-93855000D01*
X123950000Y-93855000D02*
X127000000Y-90805000D01*
X126950000Y-97700000D02*
X126950000Y-93395000D01*
X126950000Y-93395000D02*
X129540000Y-90805000D01*
X129950000Y-97700000D02*
X129950000Y-92935000D01*
X129950000Y-92935000D02*
X132080000Y-90805000D01*
X132950000Y-97700000D02*
X132950000Y-92475000D01*
X132950000Y-92475000D02*
X134620000Y-90805000D01*
X135950000Y-97700000D02*
X135950000Y-92015000D01*
X135950000Y-92015000D02*
X137160000Y-90805000D01*
X125450000Y-93557081D02*
X125450000Y-97700000D01*
X128270000Y-90737081D02*
X125450000Y-93557081D01*
X128450000Y-93097081D02*
X128450000Y-97700000D01*
X130810000Y-90737081D02*
X128450000Y-93097081D01*
X131450000Y-92637081D02*
X131450000Y-97700000D01*
X133350000Y-90737081D02*
X131450000Y-92637081D01*
X138950000Y-97700000D02*
X138950000Y-91555000D01*
X138950000Y-91555000D02*
X139700000Y-90805000D01*
X141950000Y-97700000D02*
X141950000Y-91095000D01*
X141950000Y-91095000D02*
X142240000Y-90805000D01*
X144950000Y-97700000D02*
X144950000Y-90975000D01*
X144950000Y-90975000D02*
X144780000Y-90805000D01*
X147950000Y-97700000D02*
X147950000Y-91435000D01*
X147950000Y-91435000D02*
X147320000Y-90805000D01*
X150950000Y-97700000D02*
X150950000Y-91831500D01*
X150950000Y-91831500D02*
X149860000Y-90741500D01*
X153950000Y-97700000D02*
X153950000Y-92355000D01*
X153950000Y-92355000D02*
X152400000Y-90805000D01*
X153670000Y-90805000D02*
X153670000Y-89535000D01*
X155450000Y-97700000D02*
X155450000Y-92585000D01*
X155450000Y-92585000D02*
X153670000Y-90805000D01*
X156950000Y-97700000D02*
X156950000Y-92815000D01*
X156950000Y-92815000D02*
X154940000Y-90805000D01*
X159950000Y-97700000D02*
X159950000Y-93275000D01*
X159950000Y-93275000D02*
X157480000Y-90805000D01*
X121920000Y-66421000D02*
X120650000Y-65151000D01*
X121920000Y-90805000D02*
X121920000Y-66421000D01*
X123190000Y-90737081D02*
X123190000Y-67691000D01*
X124460000Y-66421000D02*
X123190000Y-65151000D01*
X124460000Y-90614500D02*
X124460000Y-66421000D01*
X125730000Y-89535000D02*
X125730000Y-67691000D01*
X127000000Y-66421000D02*
X125730000Y-65151000D01*
X127000000Y-90805000D02*
X127000000Y-66421000D01*
X128270000Y-90737081D02*
X128270000Y-67691000D01*
X129540000Y-66421000D02*
X128270000Y-65151000D01*
X129540000Y-90678000D02*
X129540000Y-66421000D01*
X130810000Y-90737081D02*
X130810000Y-67691000D01*
X133350000Y-90737081D02*
X133350000Y-67691000D01*
X137450000Y-91717081D02*
X137450000Y-97700000D01*
X138430000Y-67691000D02*
X138430000Y-90737081D01*
X138430000Y-90737081D02*
X137450000Y-91717081D01*
X135890000Y-89535000D02*
X135890000Y-67691000D01*
X140450000Y-91257081D02*
X140450000Y-97700000D01*
X140970000Y-67691000D02*
X140970000Y-90737081D01*
X140970000Y-90737081D02*
X140450000Y-91257081D01*
X143510000Y-89535000D02*
X143510000Y-67691000D01*
X146450000Y-91137081D02*
X146450000Y-97700000D01*
X146050000Y-67691000D02*
X146050000Y-90737081D01*
X146050000Y-90737081D02*
X146450000Y-91137081D01*
X148590000Y-89535000D02*
X148590000Y-67691000D01*
X152450000Y-92057081D02*
X152450000Y-97700000D01*
X151130000Y-67691000D02*
X151130000Y-90737081D01*
X151130000Y-90737081D02*
X152450000Y-92057081D01*
X153670000Y-89535000D02*
X153670000Y-67691000D01*
X158450000Y-92977081D02*
X158450000Y-97700000D01*
X156210000Y-67691000D02*
X156210000Y-90737081D01*
X156210000Y-90737081D02*
X158450000Y-92977081D01*
X158750000Y-89535000D02*
X158750000Y-67691000D01*
X157480000Y-90805000D02*
X157480000Y-66421000D01*
X154940000Y-90805000D02*
X154940000Y-66421000D01*
X152400000Y-90805000D02*
X152400000Y-66421000D01*
X149860000Y-90741500D02*
X149860000Y-66421000D01*
X147320000Y-90805000D02*
X147320000Y-66421000D01*
X144780000Y-90678000D02*
X144780000Y-66421000D01*
X142240000Y-66421000D02*
X140970000Y-65151000D01*
X142240000Y-90805000D02*
X142240000Y-66421000D01*
X139700000Y-66421000D02*
X138430000Y-65151000D01*
X139700000Y-90805000D02*
X139700000Y-66421000D01*
X136739999Y-66000999D02*
X135890000Y-65151000D01*
X137160000Y-66421000D02*
X136739999Y-66000999D01*
X137160000Y-90805000D02*
X137160000Y-66421000D01*
X134620000Y-66421000D02*
X133350000Y-65151000D01*
X134620000Y-90805000D02*
X134620000Y-66421000D01*
X132080000Y-66421000D02*
X130810000Y-65151000D01*
X132080000Y-90805000D02*
X132080000Y-66421000D01*
X144780000Y-66421000D02*
X143510000Y-65151000D01*
X147320000Y-66421000D02*
X146050000Y-65151000D01*
X149860000Y-66421000D02*
X148590000Y-65151000D01*
X152400000Y-66421000D02*
X151130000Y-65151000D01*
X154940000Y-66421000D02*
X153670000Y-65151000D01*
X157480000Y-66421000D02*
X156210000Y-65151000D01*
D14*
X120650000Y-86995000D02*
X120650000Y-67691000D01*
X116200000Y-97700000D02*
X116200000Y-91445000D01*
X116200000Y-91445000D02*
X120650000Y-86995000D01*
X163200000Y-88270000D02*
X163200000Y-97700000D01*
X160909000Y-85979000D02*
X163200000Y-88270000D01*
X160909000Y-66107919D02*
X160909000Y-85979000D01*
X158750000Y-65151000D02*
X159952081Y-65151000D01*
X159952081Y-65151000D02*
X160909000Y-66107919D01*
D16*
G36*
X120386202Y-93613497D02*
G01*
X120386201Y-93613498D01*
X120315026Y-93700224D01*
X120244454Y-93832254D01*
X120233582Y-93868096D01*
X120210000Y-93945838D01*
X120210000Y-93716801D01*
X120329802Y-93597000D01*
X120399741Y-93597000D01*
X120386202Y-93613497D01*
G37*
X120386202Y-93613497D02*
X120386201Y-93613498D01*
X120315026Y-93700224D01*
X120244454Y-93832254D01*
X120233582Y-93868096D01*
X120210000Y-93945838D01*
X120210000Y-93716801D01*
X120329802Y-93597000D01*
X120399741Y-93597000D01*
X120386202Y-93613497D01*
G36*
X159774001Y-85923238D02*
G01*
X159768509Y-85979000D01*
X159790423Y-86201498D01*
X159855324Y-86415446D01*
X159855325Y-86415447D01*
X159960717Y-86612623D01*
X160102552Y-86785449D01*
X160145860Y-86820991D01*
X162065000Y-88740132D01*
X162065001Y-92988467D01*
X161990001Y-92897080D01*
X161961003Y-92873282D01*
X159510000Y-90422280D01*
X159510000Y-68969178D01*
X159696632Y-68844475D01*
X159774000Y-68767107D01*
X159774001Y-85923238D01*
G37*
X159774001Y-85923238D02*
X159768509Y-85979000D01*
X159790423Y-86201498D01*
X159855324Y-86415446D01*
X159855325Y-86415447D01*
X159960717Y-86612623D01*
X160102552Y-86785449D01*
X160145860Y-86820991D01*
X162065000Y-88740132D01*
X162065001Y-92988467D01*
X161990001Y-92897080D01*
X161961003Y-92873282D01*
X159510000Y-90422280D01*
X159510000Y-68969178D01*
X159696632Y-68844475D01*
X159774000Y-68767107D01*
X159774001Y-85923238D01*
G36*
X164255665Y-60281863D02*
G01*
X164309214Y-60298030D01*
X164358597Y-60324288D01*
X164401945Y-60359641D01*
X164437600Y-60402740D01*
X164464201Y-60451937D01*
X164480742Y-60505375D01*
X164490001Y-60593464D01*
X164490000Y-76434876D01*
X164490001Y-76434886D01*
X164490000Y-81190000D01*
X163234877Y-81190000D01*
X163200000Y-81186565D01*
X163165123Y-81190000D01*
X163060816Y-81200273D01*
X162926980Y-81240872D01*
X162803637Y-81306800D01*
X162695525Y-81395525D01*
X162606800Y-81503637D01*
X162540872Y-81626980D01*
X162500273Y-81760816D01*
X162486565Y-81900000D01*
X162490000Y-81934876D01*
X162490001Y-83865113D01*
X162486565Y-83900000D01*
X162500273Y-84039184D01*
X162540872Y-84173020D01*
X162606800Y-84296363D01*
X162695525Y-84404475D01*
X162803637Y-84493200D01*
X162926980Y-84559128D01*
X163060816Y-84599727D01*
X163165123Y-84610000D01*
X163200000Y-84613435D01*
X163234877Y-84610000D01*
X164490001Y-84610000D01*
X164490000Y-92690000D01*
X164335000Y-92690000D01*
X164335000Y-88325741D01*
X164340490Y-88269999D01*
X164335000Y-88214257D01*
X164335000Y-88214248D01*
X164318577Y-88047501D01*
X164253676Y-87833553D01*
X164148284Y-87636377D01*
X164006449Y-87463551D01*
X163963141Y-87428009D01*
X162044000Y-85508869D01*
X162044000Y-66163671D01*
X162049491Y-66107919D01*
X162027577Y-65885420D01*
X161962676Y-65671472D01*
X161857284Y-65474296D01*
X161826840Y-65437200D01*
X161715449Y-65301470D01*
X161672140Y-65265927D01*
X160794077Y-64387864D01*
X160758530Y-64344551D01*
X160585704Y-64202716D01*
X160388528Y-64097324D01*
X160174580Y-64032423D01*
X160007833Y-64016000D01*
X160007832Y-64016000D01*
X159952081Y-64010509D01*
X159896330Y-64016000D01*
X159715107Y-64016000D01*
X159696632Y-63997525D01*
X159453411Y-63835010D01*
X159183158Y-63723068D01*
X158896260Y-63666000D01*
X158603740Y-63666000D01*
X158316842Y-63723068D01*
X158046589Y-63835010D01*
X157803368Y-63997525D01*
X157596525Y-64204368D01*
X157480000Y-64378760D01*
X157363475Y-64204368D01*
X157156632Y-63997525D01*
X156913411Y-63835010D01*
X156643158Y-63723068D01*
X156356260Y-63666000D01*
X156063740Y-63666000D01*
X155776842Y-63723068D01*
X155506589Y-63835010D01*
X155263368Y-63997525D01*
X155056525Y-64204368D01*
X154940000Y-64378760D01*
X154823475Y-64204368D01*
X154616632Y-63997525D01*
X154373411Y-63835010D01*
X154103158Y-63723068D01*
X153816260Y-63666000D01*
X153523740Y-63666000D01*
X153236842Y-63723068D01*
X152966589Y-63835010D01*
X152723368Y-63997525D01*
X152516525Y-64204368D01*
X152400000Y-64378760D01*
X152283475Y-64204368D01*
X152076632Y-63997525D01*
X151833411Y-63835010D01*
X151563158Y-63723068D01*
X151276260Y-63666000D01*
X150983740Y-63666000D01*
X150696842Y-63723068D01*
X150426589Y-63835010D01*
X150183368Y-63997525D01*
X149976525Y-64204368D01*
X149860000Y-64378760D01*
X149743475Y-64204368D01*
X149536632Y-63997525D01*
X149293411Y-63835010D01*
X149023158Y-63723068D01*
X148736260Y-63666000D01*
X148443740Y-63666000D01*
X148156842Y-63723068D01*
X147886589Y-63835010D01*
X147643368Y-63997525D01*
X147436525Y-64204368D01*
X147320000Y-64378760D01*
X147203475Y-64204368D01*
X146996632Y-63997525D01*
X146753411Y-63835010D01*
X146483158Y-63723068D01*
X146196260Y-63666000D01*
X145903740Y-63666000D01*
X145616842Y-63723068D01*
X145346589Y-63835010D01*
X145103368Y-63997525D01*
X144896525Y-64204368D01*
X144780000Y-64378760D01*
X144663475Y-64204368D01*
X144456632Y-63997525D01*
X144213411Y-63835010D01*
X143943158Y-63723068D01*
X143656260Y-63666000D01*
X143363740Y-63666000D01*
X143076842Y-63723068D01*
X142806589Y-63835010D01*
X142563368Y-63997525D01*
X142356525Y-64204368D01*
X142240000Y-64378760D01*
X142123475Y-64204368D01*
X141916632Y-63997525D01*
X141673411Y-63835010D01*
X141403158Y-63723068D01*
X141116260Y-63666000D01*
X140823740Y-63666000D01*
X140536842Y-63723068D01*
X140266589Y-63835010D01*
X140023368Y-63997525D01*
X139816525Y-64204368D01*
X139700000Y-64378760D01*
X139583475Y-64204368D01*
X139376632Y-63997525D01*
X139133411Y-63835010D01*
X138863158Y-63723068D01*
X138576260Y-63666000D01*
X138283740Y-63666000D01*
X137996842Y-63723068D01*
X137726589Y-63835010D01*
X137483368Y-63997525D01*
X137276525Y-64204368D01*
X137160000Y-64378760D01*
X137043475Y-64204368D01*
X136836632Y-63997525D01*
X136593411Y-63835010D01*
X136323158Y-63723068D01*
X136036260Y-63666000D01*
X135743740Y-63666000D01*
X135456842Y-63723068D01*
X135186589Y-63835010D01*
X134943368Y-63997525D01*
X134736525Y-64204368D01*
X134620000Y-64378760D01*
X134503475Y-64204368D01*
X134296632Y-63997525D01*
X134053411Y-63835010D01*
X133783158Y-63723068D01*
X133496260Y-63666000D01*
X133203740Y-63666000D01*
X132916842Y-63723068D01*
X132646589Y-63835010D01*
X132403368Y-63997525D01*
X132196525Y-64204368D01*
X132080000Y-64378760D01*
X131963475Y-64204368D01*
X131756632Y-63997525D01*
X131513411Y-63835010D01*
X131243158Y-63723068D01*
X130956260Y-63666000D01*
X130663740Y-63666000D01*
X130376842Y-63723068D01*
X130106589Y-63835010D01*
X129863368Y-63997525D01*
X129656525Y-64204368D01*
X129540000Y-64378760D01*
X129423475Y-64204368D01*
X129216632Y-63997525D01*
X128973411Y-63835010D01*
X128703158Y-63723068D01*
X128416260Y-63666000D01*
X128123740Y-63666000D01*
X127836842Y-63723068D01*
X127566589Y-63835010D01*
X127323368Y-63997525D01*
X127116525Y-64204368D01*
X127000000Y-64378760D01*
X126883475Y-64204368D01*
X126676632Y-63997525D01*
X126433411Y-63835010D01*
X126163158Y-63723068D01*
X125876260Y-63666000D01*
X125583740Y-63666000D01*
X125296842Y-63723068D01*
X125026589Y-63835010D01*
X124783368Y-63997525D01*
X124576525Y-64204368D01*
X124460000Y-64378760D01*
X124343475Y-64204368D01*
X124136632Y-63997525D01*
X123893411Y-63835010D01*
X123623158Y-63723068D01*
X123336260Y-63666000D01*
X123043740Y-63666000D01*
X122756842Y-63723068D01*
X122486589Y-63835010D01*
X122243368Y-63997525D01*
X122036525Y-64204368D01*
X121920000Y-64378760D01*
X121803475Y-64204368D01*
X121596632Y-63997525D01*
X121353411Y-63835010D01*
X121083158Y-63723068D01*
X120796260Y-63666000D01*
X120503740Y-63666000D01*
X120216842Y-63723068D01*
X119946589Y-63835010D01*
X119703368Y-63997525D01*
X119496525Y-64204368D01*
X119334010Y-64447589D01*
X119222068Y-64717842D01*
X119165000Y-65004740D01*
X119165000Y-65297260D01*
X119222068Y-65584158D01*
X119334010Y-65854411D01*
X119496525Y-66097632D01*
X119628380Y-66229487D01*
X119555820Y-66251498D01*
X119445506Y-66310463D01*
X119348815Y-66389815D01*
X119269463Y-66486506D01*
X119210498Y-66596820D01*
X119174188Y-66716518D01*
X119161928Y-66841000D01*
X119161928Y-68541000D01*
X119174188Y-68665482D01*
X119210498Y-68785180D01*
X119269463Y-68895494D01*
X119348815Y-68992185D01*
X119445506Y-69071537D01*
X119515001Y-69108683D01*
X119515000Y-86524868D01*
X115436860Y-90603009D01*
X115393552Y-90638551D01*
X115251717Y-90811377D01*
X115200742Y-90906746D01*
X115146324Y-91008554D01*
X115081423Y-91222502D01*
X115059509Y-91445000D01*
X115065001Y-91500758D01*
X115065001Y-92690000D01*
X114910000Y-92690000D01*
X114910000Y-86110000D01*
X116165123Y-86110000D01*
X116200000Y-86113435D01*
X116234877Y-86110000D01*
X116339184Y-86099727D01*
X116473020Y-86059128D01*
X116596363Y-85993200D01*
X116704475Y-85904475D01*
X116793200Y-85796363D01*
X116859128Y-85673020D01*
X116899727Y-85539184D01*
X116913435Y-85400000D01*
X116910000Y-85365123D01*
X116910000Y-83434876D01*
X116913435Y-83400000D01*
X116899727Y-83260816D01*
X116859128Y-83126980D01*
X116793200Y-83003637D01*
X116704475Y-82895525D01*
X116596363Y-82806800D01*
X116473020Y-82740872D01*
X116339184Y-82700273D01*
X116234877Y-82690000D01*
X116200000Y-82686565D01*
X116165123Y-82690000D01*
X114910000Y-82690000D01*
X114910000Y-60597722D01*
X114918863Y-60507335D01*
X114935030Y-60453786D01*
X114961288Y-60404403D01*
X114996641Y-60361055D01*
X115039740Y-60325400D01*
X115088937Y-60298799D01*
X115142375Y-60282258D01*
X115230455Y-60273000D01*
X164165278Y-60273000D01*
X164255665Y-60281863D01*
G37*
X164255665Y-60281863D02*
X164309214Y-60298030D01*
X164358597Y-60324288D01*
X164401945Y-60359641D01*
X164437600Y-60402740D01*
X164464201Y-60451937D01*
X164480742Y-60505375D01*
X164490001Y-60593464D01*
X164490000Y-76434876D01*
X164490001Y-76434886D01*
X164490000Y-81190000D01*
X163234877Y-81190000D01*
X163200000Y-81186565D01*
X163165123Y-81190000D01*
X163060816Y-81200273D01*
X162926980Y-81240872D01*
X162803637Y-81306800D01*
X162695525Y-81395525D01*
X162606800Y-81503637D01*
X162540872Y-81626980D01*
X162500273Y-81760816D01*
X162486565Y-81900000D01*
X162490000Y-81934876D01*
X162490001Y-83865113D01*
X162486565Y-83900000D01*
X162500273Y-84039184D01*
X162540872Y-84173020D01*
X162606800Y-84296363D01*
X162695525Y-84404475D01*
X162803637Y-84493200D01*
X162926980Y-84559128D01*
X163060816Y-84599727D01*
X163165123Y-84610000D01*
X163200000Y-84613435D01*
X163234877Y-84610000D01*
X164490001Y-84610000D01*
X164490000Y-92690000D01*
X164335000Y-92690000D01*
X164335000Y-88325741D01*
X164340490Y-88269999D01*
X164335000Y-88214257D01*
X164335000Y-88214248D01*
X164318577Y-88047501D01*
X164253676Y-87833553D01*
X164148284Y-87636377D01*
X164006449Y-87463551D01*
X163963141Y-87428009D01*
X162044000Y-85508869D01*
X162044000Y-66163671D01*
X162049491Y-66107919D01*
X162027577Y-65885420D01*
X161962676Y-65671472D01*
X161857284Y-65474296D01*
X161826840Y-65437200D01*
X161715449Y-65301470D01*
X161672140Y-65265927D01*
X160794077Y-64387864D01*
X160758530Y-64344551D01*
X160585704Y-64202716D01*
X160388528Y-64097324D01*
X160174580Y-64032423D01*
X160007833Y-64016000D01*
X160007832Y-64016000D01*
X159952081Y-64010509D01*
X159896330Y-64016000D01*
X159715107Y-64016000D01*
X159696632Y-63997525D01*
X159453411Y-63835010D01*
X159183158Y-63723068D01*
X158896260Y-63666000D01*
X158603740Y-63666000D01*
X158316842Y-63723068D01*
X158046589Y-63835010D01*
X157803368Y-63997525D01*
X157596525Y-64204368D01*
X157480000Y-64378760D01*
X157363475Y-64204368D01*
X157156632Y-63997525D01*
X156913411Y-63835010D01*
X156643158Y-63723068D01*
X156356260Y-63666000D01*
X156063740Y-63666000D01*
X155776842Y-63723068D01*
X155506589Y-63835010D01*
X155263368Y-63997525D01*
X155056525Y-64204368D01*
X154940000Y-64378760D01*
X154823475Y-64204368D01*
X154616632Y-63997525D01*
X154373411Y-63835010D01*
X154103158Y-63723068D01*
X153816260Y-63666000D01*
X153523740Y-63666000D01*
X153236842Y-63723068D01*
X152966589Y-63835010D01*
X152723368Y-63997525D01*
X152516525Y-64204368D01*
X152400000Y-64378760D01*
X152283475Y-64204368D01*
X152076632Y-63997525D01*
X151833411Y-63835010D01*
X151563158Y-63723068D01*
X151276260Y-63666000D01*
X150983740Y-63666000D01*
X150696842Y-63723068D01*
X150426589Y-63835010D01*
X150183368Y-63997525D01*
X149976525Y-64204368D01*
X149860000Y-64378760D01*
X149743475Y-64204368D01*
X149536632Y-63997525D01*
X149293411Y-63835010D01*
X149023158Y-63723068D01*
X148736260Y-63666000D01*
X148443740Y-63666000D01*
X148156842Y-63723068D01*
X147886589Y-63835010D01*
X147643368Y-63997525D01*
X147436525Y-64204368D01*
X147320000Y-64378760D01*
X147203475Y-64204368D01*
X146996632Y-63997525D01*
X146753411Y-63835010D01*
X146483158Y-63723068D01*
X146196260Y-63666000D01*
X145903740Y-63666000D01*
X145616842Y-63723068D01*
X145346589Y-63835010D01*
X145103368Y-63997525D01*
X144896525Y-64204368D01*
X144780000Y-64378760D01*
X144663475Y-64204368D01*
X144456632Y-63997525D01*
X144213411Y-63835010D01*
X143943158Y-63723068D01*
X143656260Y-63666000D01*
X143363740Y-63666000D01*
X143076842Y-63723068D01*
X142806589Y-63835010D01*
X142563368Y-63997525D01*
X142356525Y-64204368D01*
X142240000Y-64378760D01*
X142123475Y-64204368D01*
X141916632Y-63997525D01*
X141673411Y-63835010D01*
X141403158Y-63723068D01*
X141116260Y-63666000D01*
X140823740Y-63666000D01*
X140536842Y-63723068D01*
X140266589Y-63835010D01*
X140023368Y-63997525D01*
X139816525Y-64204368D01*
X139700000Y-64378760D01*
X139583475Y-64204368D01*
X139376632Y-63997525D01*
X139133411Y-63835010D01*
X138863158Y-63723068D01*
X138576260Y-63666000D01*
X138283740Y-63666000D01*
X137996842Y-63723068D01*
X137726589Y-63835010D01*
X137483368Y-63997525D01*
X137276525Y-64204368D01*
X137160000Y-64378760D01*
X137043475Y-64204368D01*
X136836632Y-63997525D01*
X136593411Y-63835010D01*
X136323158Y-63723068D01*
X136036260Y-63666000D01*
X135743740Y-63666000D01*
X135456842Y-63723068D01*
X135186589Y-63835010D01*
X134943368Y-63997525D01*
X134736525Y-64204368D01*
X134620000Y-64378760D01*
X134503475Y-64204368D01*
X134296632Y-63997525D01*
X134053411Y-63835010D01*
X133783158Y-63723068D01*
X133496260Y-63666000D01*
X133203740Y-63666000D01*
X132916842Y-63723068D01*
X132646589Y-63835010D01*
X132403368Y-63997525D01*
X132196525Y-64204368D01*
X132080000Y-64378760D01*
X131963475Y-64204368D01*
X131756632Y-63997525D01*
X131513411Y-63835010D01*
X131243158Y-63723068D01*
X130956260Y-63666000D01*
X130663740Y-63666000D01*
X130376842Y-63723068D01*
X130106589Y-63835010D01*
X129863368Y-63997525D01*
X129656525Y-64204368D01*
X129540000Y-64378760D01*
X129423475Y-64204368D01*
X129216632Y-63997525D01*
X128973411Y-63835010D01*
X128703158Y-63723068D01*
X128416260Y-63666000D01*
X128123740Y-63666000D01*
X127836842Y-63723068D01*
X127566589Y-63835010D01*
X127323368Y-63997525D01*
X127116525Y-64204368D01*
X127000000Y-64378760D01*
X126883475Y-64204368D01*
X126676632Y-63997525D01*
X126433411Y-63835010D01*
X126163158Y-63723068D01*
X125876260Y-63666000D01*
X125583740Y-63666000D01*
X125296842Y-63723068D01*
X125026589Y-63835010D01*
X124783368Y-63997525D01*
X124576525Y-64204368D01*
X124460000Y-64378760D01*
X124343475Y-64204368D01*
X124136632Y-63997525D01*
X123893411Y-63835010D01*
X123623158Y-63723068D01*
X123336260Y-63666000D01*
X123043740Y-63666000D01*
X122756842Y-63723068D01*
X122486589Y-63835010D01*
X122243368Y-63997525D01*
X122036525Y-64204368D01*
X121920000Y-64378760D01*
X121803475Y-64204368D01*
X121596632Y-63997525D01*
X121353411Y-63835010D01*
X121083158Y-63723068D01*
X120796260Y-63666000D01*
X120503740Y-63666000D01*
X120216842Y-63723068D01*
X119946589Y-63835010D01*
X119703368Y-63997525D01*
X119496525Y-64204368D01*
X119334010Y-64447589D01*
X119222068Y-64717842D01*
X119165000Y-65004740D01*
X119165000Y-65297260D01*
X119222068Y-65584158D01*
X119334010Y-65854411D01*
X119496525Y-66097632D01*
X119628380Y-66229487D01*
X119555820Y-66251498D01*
X119445506Y-66310463D01*
X119348815Y-66389815D01*
X119269463Y-66486506D01*
X119210498Y-66596820D01*
X119174188Y-66716518D01*
X119161928Y-66841000D01*
X119161928Y-68541000D01*
X119174188Y-68665482D01*
X119210498Y-68785180D01*
X119269463Y-68895494D01*
X119348815Y-68992185D01*
X119445506Y-69071537D01*
X119515001Y-69108683D01*
X119515000Y-86524868D01*
X115436860Y-90603009D01*
X115393552Y-90638551D01*
X115251717Y-90811377D01*
X115200742Y-90906746D01*
X115146324Y-91008554D01*
X115081423Y-91222502D01*
X115059509Y-91445000D01*
X115065001Y-91500758D01*
X115065001Y-92690000D01*
X114910000Y-92690000D01*
X114910000Y-86110000D01*
X116165123Y-86110000D01*
X116200000Y-86113435D01*
X116234877Y-86110000D01*
X116339184Y-86099727D01*
X116473020Y-86059128D01*
X116596363Y-85993200D01*
X116704475Y-85904475D01*
X116793200Y-85796363D01*
X116859128Y-85673020D01*
X116899727Y-85539184D01*
X116913435Y-85400000D01*
X116910000Y-85365123D01*
X116910000Y-83434876D01*
X116913435Y-83400000D01*
X116899727Y-83260816D01*
X116859128Y-83126980D01*
X116793200Y-83003637D01*
X116704475Y-82895525D01*
X116596363Y-82806800D01*
X116473020Y-82740872D01*
X116339184Y-82700273D01*
X116234877Y-82690000D01*
X116200000Y-82686565D01*
X116165123Y-82690000D01*
X114910000Y-82690000D01*
X114910000Y-60597722D01*
X114918863Y-60507335D01*
X114935030Y-60453786D01*
X114961288Y-60404403D01*
X114996641Y-60361055D01*
X115039740Y-60325400D01*
X115088937Y-60298799D01*
X115142375Y-60282258D01*
X115230455Y-60273000D01*
X164165278Y-60273000D01*
X164255665Y-60281863D01*
G36*
X121160000Y-90490198D02*
G01*
X120779699Y-90870500D01*
X119353823Y-90870500D01*
X119316500Y-90866824D01*
X119279177Y-90870500D01*
X119279167Y-90870500D01*
X119167514Y-90881497D01*
X119024253Y-90924954D01*
X118892224Y-90995526D01*
X118776499Y-91090499D01*
X118752701Y-91119497D01*
X117438998Y-92433201D01*
X117410000Y-92456999D01*
X117386202Y-92485997D01*
X117386201Y-92485998D01*
X117335000Y-92548386D01*
X117335000Y-91915131D01*
X121160000Y-88090132D01*
X121160000Y-90490198D01*
G37*
X121160000Y-90490198D02*
X120779699Y-90870500D01*
X119353823Y-90870500D01*
X119316500Y-90866824D01*
X119279177Y-90870500D01*
X119279167Y-90870500D01*
X119167514Y-90881497D01*
X119024253Y-90924954D01*
X118892224Y-90995526D01*
X118776499Y-91090499D01*
X118752701Y-91119497D01*
X117438998Y-92433201D01*
X117410000Y-92456999D01*
X117386202Y-92485997D01*
X117386201Y-92485998D01*
X117335000Y-92548386D01*
X117335000Y-91915131D01*
X121160000Y-88090132D01*
X121160000Y-90490198D01*
G36*
X159774000Y-66578051D02*
G01*
X159774000Y-66614893D01*
X159696632Y-66537525D01*
X159522240Y-66421000D01*
X159579014Y-66383065D01*
X159774000Y-66578051D01*
G37*
X159774000Y-66578051D02*
X159774000Y-66614893D01*
X159696632Y-66537525D01*
X159522240Y-66421000D01*
X159579014Y-66383065D01*
X159774000Y-66578051D01*
M02*
