G04 #@! TF.GenerationSoftware,KiCad,Pcbnew,5.1.5-52549c5~84~ubuntu18.04.1*
G04 #@! TF.CreationDate,2020-01-08T15:02:31-08:00*
G04 #@! TF.ProjectId,Breakout,42726561-6b6f-4757-942e-6b696361645f,A*
G04 #@! TF.SameCoordinates,Original*
G04 #@! TF.FileFunction,Copper,L1,Top*
G04 #@! TF.FilePolarity,Positive*
%FSLAX46Y46*%
G04 Gerber Fmt 4.6, Leading zero omitted, Abs format (unit mm)*
G04 Created by KiCad (PCBNEW 5.1.5-52549c5~84~ubuntu18.04.1) date 2020-01-08 15:02:31*
%MOMM*%
%LPD*%
G04 APERTURE LIST*
%ADD10O,1.700000X1.700000*%
%ADD11R,1.700000X1.700000*%
%ADD12R,1.500000X6.000000*%
%ADD13R,1.000000X6.000000*%
%ADD14C,1.000000*%
%ADD15C,0.250000*%
%ADD16C,0.254000*%
G04 APERTURE END LIST*
D10*
X158750000Y-86995000D03*
X158750000Y-89535000D03*
X156210000Y-86995000D03*
X156210000Y-89535000D03*
X153670000Y-86995000D03*
X153670000Y-89535000D03*
X151130000Y-86995000D03*
X151130000Y-89535000D03*
X148590000Y-86995000D03*
X148590000Y-89535000D03*
X146050000Y-86995000D03*
X146050000Y-89535000D03*
X143510000Y-86995000D03*
X143510000Y-89535000D03*
X140970000Y-86995000D03*
X140970000Y-89535000D03*
X138430000Y-86995000D03*
X138430000Y-89535000D03*
X135890000Y-86995000D03*
X135890000Y-89535000D03*
X133350000Y-86995000D03*
X133350000Y-89535000D03*
X130810000Y-86995000D03*
X130810000Y-89535000D03*
X128270000Y-86995000D03*
X128270000Y-89535000D03*
X125730000Y-86995000D03*
X125730000Y-89535000D03*
X123190000Y-86995000D03*
X123190000Y-89535000D03*
X120650000Y-86995000D03*
D11*
X120650000Y-89535000D03*
D12*
X163200000Y-97700000D03*
X116200000Y-97700000D03*
D13*
X161450000Y-97700000D03*
X159950000Y-97700000D03*
X158450000Y-97700000D03*
X156950000Y-97700000D03*
X155450000Y-97700000D03*
X153950000Y-97700000D03*
X152450000Y-97700000D03*
X150950000Y-97700000D03*
X149450000Y-97700000D03*
X147950000Y-97700000D03*
X146450000Y-97700000D03*
X144950000Y-97700000D03*
X143450000Y-97700000D03*
X141950000Y-97700000D03*
X140450000Y-97700000D03*
X138950000Y-97700000D03*
X137450000Y-97700000D03*
X135950000Y-97700000D03*
X134450000Y-97700000D03*
X132950000Y-97700000D03*
X131450000Y-97700000D03*
X129950000Y-97700000D03*
X128450000Y-97700000D03*
X126950000Y-97700000D03*
X125450000Y-97700000D03*
X123950000Y-97700000D03*
X122450000Y-97700000D03*
X120950000Y-97700000D03*
X119450000Y-97700000D03*
X117950000Y-97700000D03*
D14*
X116200000Y-95450000D02*
X116205000Y-95445000D01*
X116200000Y-97700000D02*
X116200000Y-95450000D01*
X120650000Y-89535000D02*
X118110000Y-89535000D01*
X116200000Y-91445000D02*
X116200000Y-97700000D01*
X118110000Y-89535000D02*
X116200000Y-91445000D01*
X158750000Y-86995000D02*
X161925000Y-86995000D01*
X163200000Y-88270000D02*
X163200000Y-97700000D01*
X161925000Y-86995000D02*
X163200000Y-88270000D01*
D15*
X159950000Y-97700000D02*
X159950000Y-93973500D01*
X158450000Y-97700000D02*
X158450000Y-93997500D01*
X156950000Y-97700000D02*
X156950000Y-94021500D01*
X155450000Y-97700000D02*
X155450000Y-93982000D01*
X153950000Y-97700000D02*
X153950000Y-94006000D01*
X158750000Y-90737081D02*
X158750000Y-89535000D01*
X161450000Y-97700000D02*
X161450000Y-93437081D01*
X161450000Y-93437081D02*
X158750000Y-90737081D01*
X156210000Y-86995000D02*
X157480000Y-88265000D01*
X157480000Y-88265000D02*
X157480000Y-90805000D01*
X159950000Y-93275000D02*
X159950000Y-93973500D01*
X157480000Y-90805000D02*
X159950000Y-93275000D01*
X158450000Y-92977081D02*
X158450000Y-93997500D01*
X156210000Y-90737081D02*
X158450000Y-92977081D01*
X156210000Y-89535000D02*
X156210000Y-90737081D01*
X153670000Y-86995000D02*
X154940000Y-88265000D01*
X154940000Y-88265000D02*
X154940000Y-90805000D01*
X156950000Y-92815000D02*
X156950000Y-94021500D01*
X154940000Y-90805000D02*
X156950000Y-92815000D01*
X153670000Y-89535000D02*
X153670000Y-90805000D01*
X155450000Y-92585000D02*
X155450000Y-93982000D01*
X153670000Y-90805000D02*
X155450000Y-92585000D01*
X151130000Y-86995000D02*
X152400000Y-88265000D01*
X152400000Y-88265000D02*
X152400000Y-90805000D01*
X153950000Y-92355000D02*
X153950000Y-94006000D01*
X152400000Y-90805000D02*
X153950000Y-92355000D01*
X152450000Y-92057081D02*
X152450000Y-97700000D01*
X151130000Y-89535000D02*
X151130000Y-90737081D01*
X151130000Y-90737081D02*
X152450000Y-92057081D01*
X148590000Y-86995000D02*
X149860000Y-88265000D01*
X149860000Y-88265000D02*
X149860000Y-90741500D01*
X150950000Y-91831500D02*
X150950000Y-97700000D01*
X149860000Y-90741500D02*
X150950000Y-91831500D01*
X146050000Y-86995000D02*
X147320000Y-88265000D01*
X147320000Y-88265000D02*
X147320000Y-90805000D01*
X147950000Y-91435000D02*
X147950000Y-97700000D01*
X147320000Y-90805000D02*
X147950000Y-91435000D01*
X143510000Y-86995000D02*
X144780000Y-88265000D01*
X144780000Y-88265000D02*
X144780000Y-90805000D01*
X144950000Y-90975000D02*
X144950000Y-97700000D01*
X144780000Y-90805000D02*
X144950000Y-90975000D01*
X140970000Y-86995000D02*
X142240000Y-88265000D01*
X142240000Y-88265000D02*
X142240000Y-90805000D01*
X141950000Y-91095000D02*
X141950000Y-97700000D01*
X142240000Y-90805000D02*
X141950000Y-91095000D01*
X138430000Y-86995000D02*
X139700000Y-88265000D01*
X139700000Y-88265000D02*
X139700000Y-90805000D01*
X138950000Y-91555000D02*
X138950000Y-97700000D01*
X139700000Y-90805000D02*
X138950000Y-91555000D01*
X135890000Y-86995000D02*
X137160000Y-88265000D01*
X137160000Y-88265000D02*
X137160000Y-90805000D01*
X135950000Y-92015000D02*
X135950000Y-97700000D01*
X137160000Y-90805000D02*
X135950000Y-92015000D01*
X149450000Y-91597081D02*
X149450000Y-97700000D01*
X148590000Y-89535000D02*
X148590000Y-90737081D01*
X148590000Y-90737081D02*
X149450000Y-91597081D01*
X146450000Y-91137081D02*
X146450000Y-97700000D01*
X146050000Y-89535000D02*
X146050000Y-90737081D01*
X146050000Y-90737081D02*
X146450000Y-91137081D01*
X143510000Y-89535000D02*
X143510000Y-90737081D01*
X143450000Y-90804081D02*
X143450000Y-97700000D01*
X143446500Y-90800581D02*
X143450000Y-90804081D01*
X143450000Y-90797081D02*
X143510000Y-90737081D01*
X143450000Y-90804081D02*
X143450000Y-90797081D01*
X140970000Y-89535000D02*
X140970000Y-90737081D01*
X140450000Y-91257081D02*
X140450000Y-97700000D01*
X140970000Y-90737081D02*
X140450000Y-91257081D01*
X137450000Y-91717081D02*
X137450000Y-97700000D01*
X138430000Y-89535000D02*
X138430000Y-90737081D01*
X138430000Y-90737081D02*
X137450000Y-91717081D01*
X134450000Y-92177081D02*
X134450000Y-97700000D01*
X135890000Y-89535000D02*
X135890000Y-90737081D01*
X135890000Y-90737081D02*
X134450000Y-92177081D01*
X133350000Y-86995000D02*
X134620000Y-88265000D01*
X134620000Y-88265000D02*
X134620000Y-90805000D01*
X132950000Y-92475000D02*
X132950000Y-97700000D01*
X134620000Y-90805000D02*
X132950000Y-92475000D01*
X133350000Y-89535000D02*
X133350000Y-90737081D01*
X131450000Y-92637081D02*
X131450000Y-97700000D01*
X133350000Y-90737081D02*
X131450000Y-92637081D01*
X128450000Y-93097081D02*
X128450000Y-97700000D01*
X130810000Y-89535000D02*
X130810000Y-90737081D01*
X130810000Y-90737081D02*
X128450000Y-93097081D01*
X130810000Y-86995000D02*
X132080000Y-88265000D01*
X132080000Y-88265000D02*
X132080000Y-90805000D01*
X129950000Y-92935000D02*
X129950000Y-97700000D01*
X132080000Y-90805000D02*
X129950000Y-92935000D01*
X128270000Y-86995000D02*
X129540000Y-88265000D01*
X129540000Y-88265000D02*
X129540000Y-90805000D01*
X126950000Y-93395000D02*
X126950000Y-97700000D01*
X129540000Y-90805000D02*
X126950000Y-93395000D01*
X125450000Y-93557081D02*
X125450000Y-97700000D01*
X128270000Y-89535000D02*
X128270000Y-90737081D01*
X128270000Y-90737081D02*
X125450000Y-93557081D01*
X125730000Y-86995000D02*
X127000000Y-88265000D01*
X127000000Y-88265000D02*
X127000000Y-90805000D01*
X122450000Y-94017081D02*
X122450000Y-97700000D01*
X125730000Y-89535000D02*
X125730000Y-90737081D01*
X125730000Y-90737081D02*
X122450000Y-94017081D01*
X123950000Y-93855000D02*
X127000000Y-90805000D01*
X123950000Y-97700000D02*
X123950000Y-93855000D01*
X123190000Y-86995000D02*
X124460000Y-88265000D01*
X124460000Y-88265000D02*
X124460000Y-90614500D01*
X120950000Y-94124500D02*
X120950000Y-97700000D01*
X124460000Y-90614500D02*
X120950000Y-94124500D01*
X123190000Y-90737081D02*
X121090081Y-92837000D01*
X123190000Y-89535000D02*
X123190000Y-90737081D01*
X121090081Y-92837000D02*
X120015000Y-92837000D01*
X119450000Y-93402000D02*
X119450000Y-97700000D01*
X120015000Y-92837000D02*
X119450000Y-93402000D01*
X120650000Y-86995000D02*
X121920000Y-88265000D01*
X121920000Y-88265000D02*
X121920000Y-90805000D01*
X121094500Y-91630500D02*
X121920000Y-90805000D01*
X117950000Y-97700000D02*
X117950000Y-92997000D01*
X119316500Y-91630500D02*
X121094500Y-91630500D01*
X117950000Y-92997000D02*
X119316500Y-91630500D01*
D16*
G36*
X120371038Y-93631974D02*
G01*
X120315026Y-93700224D01*
X120307795Y-93713753D01*
X120244454Y-93832254D01*
X120210000Y-93945836D01*
X120210000Y-93716801D01*
X120329802Y-93597000D01*
X120399740Y-93597000D01*
X120371038Y-93631974D01*
G37*
X120371038Y-93631974D02*
X120315026Y-93700224D01*
X120307795Y-93713753D01*
X120244454Y-93832254D01*
X120210000Y-93945836D01*
X120210000Y-93716801D01*
X120329802Y-93597000D01*
X120399740Y-93597000D01*
X120371038Y-93631974D01*
G36*
X162065000Y-88740132D02*
G01*
X162065001Y-92988467D01*
X161990001Y-92897080D01*
X161961003Y-92873282D01*
X159736414Y-90648693D01*
X159903475Y-90481632D01*
X160065990Y-90238411D01*
X160177932Y-89968158D01*
X160235000Y-89681260D01*
X160235000Y-89388740D01*
X160177932Y-89101842D01*
X160065990Y-88831589D01*
X159903475Y-88588368D01*
X159696632Y-88381525D01*
X159522240Y-88265000D01*
X159696632Y-88148475D01*
X159715107Y-88130000D01*
X161454869Y-88130000D01*
X162065000Y-88740132D01*
G37*
X162065000Y-88740132D02*
X162065001Y-92988467D01*
X161990001Y-92897080D01*
X161961003Y-92873282D01*
X159736414Y-90648693D01*
X159903475Y-90481632D01*
X160065990Y-90238411D01*
X160177932Y-89968158D01*
X160235000Y-89681260D01*
X160235000Y-89388740D01*
X160177932Y-89101842D01*
X160065990Y-88831589D01*
X159903475Y-88588368D01*
X159696632Y-88381525D01*
X159522240Y-88265000D01*
X159696632Y-88148475D01*
X159715107Y-88130000D01*
X161454869Y-88130000D01*
X162065000Y-88740132D01*
G36*
X164490000Y-81190000D02*
G01*
X163234877Y-81190000D01*
X163200000Y-81186565D01*
X163165123Y-81190000D01*
X163060816Y-81200273D01*
X162926980Y-81240872D01*
X162803637Y-81306800D01*
X162695525Y-81395525D01*
X162606800Y-81503637D01*
X162540872Y-81626980D01*
X162500273Y-81760816D01*
X162486565Y-81900000D01*
X162490000Y-81934876D01*
X162490001Y-83865113D01*
X162486565Y-83900000D01*
X162500273Y-84039184D01*
X162540872Y-84173020D01*
X162606800Y-84296363D01*
X162695525Y-84404475D01*
X162803637Y-84493200D01*
X162926980Y-84559128D01*
X163060816Y-84599727D01*
X163165123Y-84610000D01*
X163200000Y-84613435D01*
X163234877Y-84610000D01*
X164490001Y-84610000D01*
X164490000Y-92690000D01*
X164335000Y-92690000D01*
X164335000Y-88325741D01*
X164340490Y-88269999D01*
X164335000Y-88214257D01*
X164335000Y-88214248D01*
X164318577Y-88047501D01*
X164253676Y-87833553D01*
X164148284Y-87636377D01*
X164006449Y-87463551D01*
X163963140Y-87428008D01*
X162766996Y-86231865D01*
X162731449Y-86188551D01*
X162558623Y-86046716D01*
X162361447Y-85941324D01*
X162147499Y-85876423D01*
X161980752Y-85860000D01*
X161980751Y-85860000D01*
X161925000Y-85854509D01*
X161869249Y-85860000D01*
X159715107Y-85860000D01*
X159696632Y-85841525D01*
X159453411Y-85679010D01*
X159183158Y-85567068D01*
X158896260Y-85510000D01*
X158603740Y-85510000D01*
X158316842Y-85567068D01*
X158046589Y-85679010D01*
X157803368Y-85841525D01*
X157596525Y-86048368D01*
X157480000Y-86222760D01*
X157363475Y-86048368D01*
X157156632Y-85841525D01*
X156913411Y-85679010D01*
X156643158Y-85567068D01*
X156356260Y-85510000D01*
X156063740Y-85510000D01*
X155776842Y-85567068D01*
X155506589Y-85679010D01*
X155263368Y-85841525D01*
X155056525Y-86048368D01*
X154940000Y-86222760D01*
X154823475Y-86048368D01*
X154616632Y-85841525D01*
X154373411Y-85679010D01*
X154103158Y-85567068D01*
X153816260Y-85510000D01*
X153523740Y-85510000D01*
X153236842Y-85567068D01*
X152966589Y-85679010D01*
X152723368Y-85841525D01*
X152516525Y-86048368D01*
X152400000Y-86222760D01*
X152283475Y-86048368D01*
X152076632Y-85841525D01*
X151833411Y-85679010D01*
X151563158Y-85567068D01*
X151276260Y-85510000D01*
X150983740Y-85510000D01*
X150696842Y-85567068D01*
X150426589Y-85679010D01*
X150183368Y-85841525D01*
X149976525Y-86048368D01*
X149860000Y-86222760D01*
X149743475Y-86048368D01*
X149536632Y-85841525D01*
X149293411Y-85679010D01*
X149023158Y-85567068D01*
X148736260Y-85510000D01*
X148443740Y-85510000D01*
X148156842Y-85567068D01*
X147886589Y-85679010D01*
X147643368Y-85841525D01*
X147436525Y-86048368D01*
X147320000Y-86222760D01*
X147203475Y-86048368D01*
X146996632Y-85841525D01*
X146753411Y-85679010D01*
X146483158Y-85567068D01*
X146196260Y-85510000D01*
X145903740Y-85510000D01*
X145616842Y-85567068D01*
X145346589Y-85679010D01*
X145103368Y-85841525D01*
X144896525Y-86048368D01*
X144780000Y-86222760D01*
X144663475Y-86048368D01*
X144456632Y-85841525D01*
X144213411Y-85679010D01*
X143943158Y-85567068D01*
X143656260Y-85510000D01*
X143363740Y-85510000D01*
X143076842Y-85567068D01*
X142806589Y-85679010D01*
X142563368Y-85841525D01*
X142356525Y-86048368D01*
X142240000Y-86222760D01*
X142123475Y-86048368D01*
X141916632Y-85841525D01*
X141673411Y-85679010D01*
X141403158Y-85567068D01*
X141116260Y-85510000D01*
X140823740Y-85510000D01*
X140536842Y-85567068D01*
X140266589Y-85679010D01*
X140023368Y-85841525D01*
X139816525Y-86048368D01*
X139700000Y-86222760D01*
X139583475Y-86048368D01*
X139376632Y-85841525D01*
X139133411Y-85679010D01*
X138863158Y-85567068D01*
X138576260Y-85510000D01*
X138283740Y-85510000D01*
X137996842Y-85567068D01*
X137726589Y-85679010D01*
X137483368Y-85841525D01*
X137276525Y-86048368D01*
X137160000Y-86222760D01*
X137043475Y-86048368D01*
X136836632Y-85841525D01*
X136593411Y-85679010D01*
X136323158Y-85567068D01*
X136036260Y-85510000D01*
X135743740Y-85510000D01*
X135456842Y-85567068D01*
X135186589Y-85679010D01*
X134943368Y-85841525D01*
X134736525Y-86048368D01*
X134620000Y-86222760D01*
X134503475Y-86048368D01*
X134296632Y-85841525D01*
X134053411Y-85679010D01*
X133783158Y-85567068D01*
X133496260Y-85510000D01*
X133203740Y-85510000D01*
X132916842Y-85567068D01*
X132646589Y-85679010D01*
X132403368Y-85841525D01*
X132196525Y-86048368D01*
X132080000Y-86222760D01*
X131963475Y-86048368D01*
X131756632Y-85841525D01*
X131513411Y-85679010D01*
X131243158Y-85567068D01*
X130956260Y-85510000D01*
X130663740Y-85510000D01*
X130376842Y-85567068D01*
X130106589Y-85679010D01*
X129863368Y-85841525D01*
X129656525Y-86048368D01*
X129540000Y-86222760D01*
X129423475Y-86048368D01*
X129216632Y-85841525D01*
X128973411Y-85679010D01*
X128703158Y-85567068D01*
X128416260Y-85510000D01*
X128123740Y-85510000D01*
X127836842Y-85567068D01*
X127566589Y-85679010D01*
X127323368Y-85841525D01*
X127116525Y-86048368D01*
X127000000Y-86222760D01*
X126883475Y-86048368D01*
X126676632Y-85841525D01*
X126433411Y-85679010D01*
X126163158Y-85567068D01*
X125876260Y-85510000D01*
X125583740Y-85510000D01*
X125296842Y-85567068D01*
X125026589Y-85679010D01*
X124783368Y-85841525D01*
X124576525Y-86048368D01*
X124460000Y-86222760D01*
X124343475Y-86048368D01*
X124136632Y-85841525D01*
X123893411Y-85679010D01*
X123623158Y-85567068D01*
X123336260Y-85510000D01*
X123043740Y-85510000D01*
X122756842Y-85567068D01*
X122486589Y-85679010D01*
X122243368Y-85841525D01*
X122036525Y-86048368D01*
X121920000Y-86222760D01*
X121803475Y-86048368D01*
X121596632Y-85841525D01*
X121353411Y-85679010D01*
X121083158Y-85567068D01*
X120796260Y-85510000D01*
X120503740Y-85510000D01*
X120216842Y-85567068D01*
X119946589Y-85679010D01*
X119703368Y-85841525D01*
X119496525Y-86048368D01*
X119334010Y-86291589D01*
X119222068Y-86561842D01*
X119165000Y-86848740D01*
X119165000Y-87141260D01*
X119222068Y-87428158D01*
X119334010Y-87698411D01*
X119496525Y-87941632D01*
X119628380Y-88073487D01*
X119555820Y-88095498D01*
X119445506Y-88154463D01*
X119348815Y-88233815D01*
X119269463Y-88330506D01*
X119232317Y-88400000D01*
X118165751Y-88400000D01*
X118110000Y-88394509D01*
X118054248Y-88400000D01*
X117887501Y-88416423D01*
X117673553Y-88481324D01*
X117476377Y-88586716D01*
X117303551Y-88728551D01*
X117268009Y-88771859D01*
X115436865Y-90603004D01*
X115393551Y-90638551D01*
X115251716Y-90811377D01*
X115157259Y-90988096D01*
X115146324Y-91008554D01*
X115081423Y-91222502D01*
X115059509Y-91445000D01*
X115065000Y-91500752D01*
X115065000Y-92690000D01*
X114910000Y-92690000D01*
X114910000Y-86110000D01*
X116165123Y-86110000D01*
X116200000Y-86113435D01*
X116234877Y-86110000D01*
X116339184Y-86099727D01*
X116473020Y-86059128D01*
X116596363Y-85993200D01*
X116704475Y-85904475D01*
X116793200Y-85796363D01*
X116859128Y-85673020D01*
X116899727Y-85539184D01*
X116913435Y-85400000D01*
X116910000Y-85365123D01*
X116910000Y-83434876D01*
X116913435Y-83400000D01*
X116899727Y-83260816D01*
X116859128Y-83126980D01*
X116793200Y-83003637D01*
X116704475Y-82895525D01*
X116596363Y-82806800D01*
X116473020Y-82740872D01*
X116339184Y-82700273D01*
X116234877Y-82690000D01*
X116200000Y-82686565D01*
X116165123Y-82690000D01*
X114910000Y-82690000D01*
X114910000Y-76610000D01*
X164490001Y-76610000D01*
X164490000Y-81190000D01*
G37*
X164490000Y-81190000D02*
X163234877Y-81190000D01*
X163200000Y-81186565D01*
X163165123Y-81190000D01*
X163060816Y-81200273D01*
X162926980Y-81240872D01*
X162803637Y-81306800D01*
X162695525Y-81395525D01*
X162606800Y-81503637D01*
X162540872Y-81626980D01*
X162500273Y-81760816D01*
X162486565Y-81900000D01*
X162490000Y-81934876D01*
X162490001Y-83865113D01*
X162486565Y-83900000D01*
X162500273Y-84039184D01*
X162540872Y-84173020D01*
X162606800Y-84296363D01*
X162695525Y-84404475D01*
X162803637Y-84493200D01*
X162926980Y-84559128D01*
X163060816Y-84599727D01*
X163165123Y-84610000D01*
X163200000Y-84613435D01*
X163234877Y-84610000D01*
X164490001Y-84610000D01*
X164490000Y-92690000D01*
X164335000Y-92690000D01*
X164335000Y-88325741D01*
X164340490Y-88269999D01*
X164335000Y-88214257D01*
X164335000Y-88214248D01*
X164318577Y-88047501D01*
X164253676Y-87833553D01*
X164148284Y-87636377D01*
X164006449Y-87463551D01*
X163963140Y-87428008D01*
X162766996Y-86231865D01*
X162731449Y-86188551D01*
X162558623Y-86046716D01*
X162361447Y-85941324D01*
X162147499Y-85876423D01*
X161980752Y-85860000D01*
X161980751Y-85860000D01*
X161925000Y-85854509D01*
X161869249Y-85860000D01*
X159715107Y-85860000D01*
X159696632Y-85841525D01*
X159453411Y-85679010D01*
X159183158Y-85567068D01*
X158896260Y-85510000D01*
X158603740Y-85510000D01*
X158316842Y-85567068D01*
X158046589Y-85679010D01*
X157803368Y-85841525D01*
X157596525Y-86048368D01*
X157480000Y-86222760D01*
X157363475Y-86048368D01*
X157156632Y-85841525D01*
X156913411Y-85679010D01*
X156643158Y-85567068D01*
X156356260Y-85510000D01*
X156063740Y-85510000D01*
X155776842Y-85567068D01*
X155506589Y-85679010D01*
X155263368Y-85841525D01*
X155056525Y-86048368D01*
X154940000Y-86222760D01*
X154823475Y-86048368D01*
X154616632Y-85841525D01*
X154373411Y-85679010D01*
X154103158Y-85567068D01*
X153816260Y-85510000D01*
X153523740Y-85510000D01*
X153236842Y-85567068D01*
X152966589Y-85679010D01*
X152723368Y-85841525D01*
X152516525Y-86048368D01*
X152400000Y-86222760D01*
X152283475Y-86048368D01*
X152076632Y-85841525D01*
X151833411Y-85679010D01*
X151563158Y-85567068D01*
X151276260Y-85510000D01*
X150983740Y-85510000D01*
X150696842Y-85567068D01*
X150426589Y-85679010D01*
X150183368Y-85841525D01*
X149976525Y-86048368D01*
X149860000Y-86222760D01*
X149743475Y-86048368D01*
X149536632Y-85841525D01*
X149293411Y-85679010D01*
X149023158Y-85567068D01*
X148736260Y-85510000D01*
X148443740Y-85510000D01*
X148156842Y-85567068D01*
X147886589Y-85679010D01*
X147643368Y-85841525D01*
X147436525Y-86048368D01*
X147320000Y-86222760D01*
X147203475Y-86048368D01*
X146996632Y-85841525D01*
X146753411Y-85679010D01*
X146483158Y-85567068D01*
X146196260Y-85510000D01*
X145903740Y-85510000D01*
X145616842Y-85567068D01*
X145346589Y-85679010D01*
X145103368Y-85841525D01*
X144896525Y-86048368D01*
X144780000Y-86222760D01*
X144663475Y-86048368D01*
X144456632Y-85841525D01*
X144213411Y-85679010D01*
X143943158Y-85567068D01*
X143656260Y-85510000D01*
X143363740Y-85510000D01*
X143076842Y-85567068D01*
X142806589Y-85679010D01*
X142563368Y-85841525D01*
X142356525Y-86048368D01*
X142240000Y-86222760D01*
X142123475Y-86048368D01*
X141916632Y-85841525D01*
X141673411Y-85679010D01*
X141403158Y-85567068D01*
X141116260Y-85510000D01*
X140823740Y-85510000D01*
X140536842Y-85567068D01*
X140266589Y-85679010D01*
X140023368Y-85841525D01*
X139816525Y-86048368D01*
X139700000Y-86222760D01*
X139583475Y-86048368D01*
X139376632Y-85841525D01*
X139133411Y-85679010D01*
X138863158Y-85567068D01*
X138576260Y-85510000D01*
X138283740Y-85510000D01*
X137996842Y-85567068D01*
X137726589Y-85679010D01*
X137483368Y-85841525D01*
X137276525Y-86048368D01*
X137160000Y-86222760D01*
X137043475Y-86048368D01*
X136836632Y-85841525D01*
X136593411Y-85679010D01*
X136323158Y-85567068D01*
X136036260Y-85510000D01*
X135743740Y-85510000D01*
X135456842Y-85567068D01*
X135186589Y-85679010D01*
X134943368Y-85841525D01*
X134736525Y-86048368D01*
X134620000Y-86222760D01*
X134503475Y-86048368D01*
X134296632Y-85841525D01*
X134053411Y-85679010D01*
X133783158Y-85567068D01*
X133496260Y-85510000D01*
X133203740Y-85510000D01*
X132916842Y-85567068D01*
X132646589Y-85679010D01*
X132403368Y-85841525D01*
X132196525Y-86048368D01*
X132080000Y-86222760D01*
X131963475Y-86048368D01*
X131756632Y-85841525D01*
X131513411Y-85679010D01*
X131243158Y-85567068D01*
X130956260Y-85510000D01*
X130663740Y-85510000D01*
X130376842Y-85567068D01*
X130106589Y-85679010D01*
X129863368Y-85841525D01*
X129656525Y-86048368D01*
X129540000Y-86222760D01*
X129423475Y-86048368D01*
X129216632Y-85841525D01*
X128973411Y-85679010D01*
X128703158Y-85567068D01*
X128416260Y-85510000D01*
X128123740Y-85510000D01*
X127836842Y-85567068D01*
X127566589Y-85679010D01*
X127323368Y-85841525D01*
X127116525Y-86048368D01*
X127000000Y-86222760D01*
X126883475Y-86048368D01*
X126676632Y-85841525D01*
X126433411Y-85679010D01*
X126163158Y-85567068D01*
X125876260Y-85510000D01*
X125583740Y-85510000D01*
X125296842Y-85567068D01*
X125026589Y-85679010D01*
X124783368Y-85841525D01*
X124576525Y-86048368D01*
X124460000Y-86222760D01*
X124343475Y-86048368D01*
X124136632Y-85841525D01*
X123893411Y-85679010D01*
X123623158Y-85567068D01*
X123336260Y-85510000D01*
X123043740Y-85510000D01*
X122756842Y-85567068D01*
X122486589Y-85679010D01*
X122243368Y-85841525D01*
X122036525Y-86048368D01*
X121920000Y-86222760D01*
X121803475Y-86048368D01*
X121596632Y-85841525D01*
X121353411Y-85679010D01*
X121083158Y-85567068D01*
X120796260Y-85510000D01*
X120503740Y-85510000D01*
X120216842Y-85567068D01*
X119946589Y-85679010D01*
X119703368Y-85841525D01*
X119496525Y-86048368D01*
X119334010Y-86291589D01*
X119222068Y-86561842D01*
X119165000Y-86848740D01*
X119165000Y-87141260D01*
X119222068Y-87428158D01*
X119334010Y-87698411D01*
X119496525Y-87941632D01*
X119628380Y-88073487D01*
X119555820Y-88095498D01*
X119445506Y-88154463D01*
X119348815Y-88233815D01*
X119269463Y-88330506D01*
X119232317Y-88400000D01*
X118165751Y-88400000D01*
X118110000Y-88394509D01*
X118054248Y-88400000D01*
X117887501Y-88416423D01*
X117673553Y-88481324D01*
X117476377Y-88586716D01*
X117303551Y-88728551D01*
X117268009Y-88771859D01*
X115436865Y-90603004D01*
X115393551Y-90638551D01*
X115251716Y-90811377D01*
X115157259Y-90988096D01*
X115146324Y-91008554D01*
X115081423Y-91222502D01*
X115059509Y-91445000D01*
X115065000Y-91500752D01*
X115065000Y-92690000D01*
X114910000Y-92690000D01*
X114910000Y-86110000D01*
X116165123Y-86110000D01*
X116200000Y-86113435D01*
X116234877Y-86110000D01*
X116339184Y-86099727D01*
X116473020Y-86059128D01*
X116596363Y-85993200D01*
X116704475Y-85904475D01*
X116793200Y-85796363D01*
X116859128Y-85673020D01*
X116899727Y-85539184D01*
X116913435Y-85400000D01*
X116910000Y-85365123D01*
X116910000Y-83434876D01*
X116913435Y-83400000D01*
X116899727Y-83260816D01*
X116859128Y-83126980D01*
X116793200Y-83003637D01*
X116704475Y-82895525D01*
X116596363Y-82806800D01*
X116473020Y-82740872D01*
X116339184Y-82700273D01*
X116234877Y-82690000D01*
X116200000Y-82686565D01*
X116165123Y-82690000D01*
X114910000Y-82690000D01*
X114910000Y-76610000D01*
X164490001Y-76610000D01*
X164490000Y-81190000D01*
G36*
X119269463Y-90739494D02*
G01*
X119348815Y-90836185D01*
X119390628Y-90870500D01*
X119353823Y-90870500D01*
X119316500Y-90866824D01*
X119279177Y-90870500D01*
X119279167Y-90870500D01*
X119167514Y-90881497D01*
X119024253Y-90924954D01*
X118892224Y-90995526D01*
X118776499Y-91090499D01*
X118752701Y-91119497D01*
X117438998Y-92433201D01*
X117410000Y-92456999D01*
X117386202Y-92485997D01*
X117386201Y-92485998D01*
X117335000Y-92548386D01*
X117335000Y-91915131D01*
X118580132Y-90670000D01*
X119232317Y-90670000D01*
X119269463Y-90739494D01*
G37*
X119269463Y-90739494D02*
X119348815Y-90836185D01*
X119390628Y-90870500D01*
X119353823Y-90870500D01*
X119316500Y-90866824D01*
X119279177Y-90870500D01*
X119279167Y-90870500D01*
X119167514Y-90881497D01*
X119024253Y-90924954D01*
X118892224Y-90995526D01*
X118776499Y-91090499D01*
X118752701Y-91119497D01*
X117438998Y-92433201D01*
X117410000Y-92456999D01*
X117386202Y-92485997D01*
X117386201Y-92485998D01*
X117335000Y-92548386D01*
X117335000Y-91915131D01*
X118580132Y-90670000D01*
X119232317Y-90670000D01*
X119269463Y-90739494D01*
M02*
