G04 #@! TF.GenerationSoftware,KiCad,Pcbnew,5.1.5-52549c5~84~ubuntu18.04.1*
G04 #@! TF.CreationDate,2020-01-09T22:12:06-08:00*
G04 #@! TF.ProjectId,Breakout,42726561-6b6f-4757-942e-6b696361645f,A*
G04 #@! TF.SameCoordinates,Original*
G04 #@! TF.FileFunction,Copper,L2,Bot*
G04 #@! TF.FilePolarity,Positive*
%FSLAX46Y46*%
G04 Gerber Fmt 4.6, Leading zero omitted, Abs format (unit mm)*
G04 Created by KiCad (PCBNEW 5.1.5-52549c5~84~ubuntu18.04.1) date 2020-01-09 22:12:06*
%MOMM*%
%LPD*%
G04 APERTURE LIST*
%ADD10C,0.500000*%
%ADD11O,1.700000X1.700000*%
%ADD12R,1.700000X1.700000*%
%ADD13C,0.254000*%
G04 APERTURE END LIST*
D10*
X152485714Y-98228571D02*
X152628571Y-98085714D01*
X152914285Y-97942857D01*
X153200000Y-97942857D01*
X153485714Y-98085714D01*
X153628571Y-98228571D01*
X153771428Y-98514285D01*
X153771428Y-98800000D01*
X153628571Y-99085714D01*
X153485714Y-99228571D01*
X153200000Y-99371428D01*
X152914285Y-99371428D01*
X152628571Y-99228571D01*
X152485714Y-99085714D01*
X152485714Y-97942857D02*
X152485714Y-99085714D01*
X152342857Y-99228571D01*
X152200000Y-99228571D01*
X151914285Y-99085714D01*
X151771428Y-98800000D01*
X151771428Y-98085714D01*
X152057142Y-97657142D01*
X152485714Y-97371428D01*
X153057142Y-97228571D01*
X153628571Y-97371428D01*
X154057142Y-97657142D01*
X154342857Y-98085714D01*
X154485714Y-98657142D01*
X154342857Y-99228571D01*
X154057142Y-99657142D01*
X153628571Y-99942857D01*
X153057142Y-100085714D01*
X152485714Y-99942857D01*
X152057142Y-99657142D01*
X150485714Y-99657142D02*
X150485714Y-97657142D01*
X150485714Y-96657142D02*
X150628571Y-96800000D01*
X150485714Y-96942857D01*
X150342857Y-96800000D01*
X150485714Y-96657142D01*
X150485714Y-96942857D01*
X149057142Y-99657142D02*
X149057142Y-97657142D01*
X149057142Y-97942857D02*
X148914285Y-97800000D01*
X148628571Y-97657142D01*
X148200000Y-97657142D01*
X147914285Y-97800000D01*
X147771428Y-98085714D01*
X147771428Y-99657142D01*
X147771428Y-98085714D02*
X147628571Y-97800000D01*
X147342857Y-97657142D01*
X146914285Y-97657142D01*
X146628571Y-97800000D01*
X146485714Y-98085714D01*
X146485714Y-99657142D01*
X145771428Y-99942857D02*
X143485714Y-99942857D01*
X141628571Y-99514285D02*
X141914285Y-99657142D01*
X142485714Y-99657142D01*
X142771428Y-99514285D01*
X142914285Y-99228571D01*
X142914285Y-98085714D01*
X142771428Y-97800000D01*
X142485714Y-97657142D01*
X141914285Y-97657142D01*
X141628571Y-97800000D01*
X141485714Y-98085714D01*
X141485714Y-98371428D01*
X142914285Y-98657142D01*
X140200000Y-97657142D02*
X140200000Y-99657142D01*
X140200000Y-97942857D02*
X140057142Y-97800000D01*
X139771428Y-97657142D01*
X139342857Y-97657142D01*
X139057142Y-97800000D01*
X138914285Y-98085714D01*
X138914285Y-99657142D01*
X137485714Y-99657142D02*
X137485714Y-97657142D01*
X137485714Y-96657142D02*
X137628571Y-96800000D01*
X137485714Y-96942857D01*
X137342857Y-96800000D01*
X137485714Y-96657142D01*
X137485714Y-96942857D01*
X136057142Y-97657142D02*
X136057142Y-99657142D01*
X136057142Y-97942857D02*
X135914285Y-97800000D01*
X135628571Y-97657142D01*
X135200000Y-97657142D01*
X134914285Y-97800000D01*
X134771428Y-98085714D01*
X134771428Y-99657142D01*
X132057142Y-97657142D02*
X132057142Y-100085714D01*
X132199999Y-100371428D01*
X132342857Y-100514285D01*
X132628571Y-100657142D01*
X133057142Y-100657142D01*
X133342857Y-100514285D01*
X132057142Y-99514285D02*
X132342857Y-99657142D01*
X132914285Y-99657142D01*
X133199999Y-99514285D01*
X133342857Y-99371428D01*
X133485714Y-99085714D01*
X133485714Y-98228571D01*
X133342857Y-97942857D01*
X133199999Y-97800000D01*
X132914285Y-97657142D01*
X132342857Y-97657142D01*
X132057142Y-97800000D01*
X129485714Y-99514285D02*
X129771428Y-99657142D01*
X130342857Y-99657142D01*
X130628571Y-99514285D01*
X130771428Y-99228571D01*
X130771428Y-98085714D01*
X130628571Y-97800000D01*
X130342857Y-97657142D01*
X129771428Y-97657142D01*
X129485714Y-97800000D01*
X129342857Y-98085714D01*
X129342857Y-98371428D01*
X130771428Y-98657142D01*
X126914285Y-99514285D02*
X127199999Y-99657142D01*
X127771428Y-99657142D01*
X128057142Y-99514285D01*
X128199999Y-99228571D01*
X128199999Y-98085714D01*
X128057142Y-97800000D01*
X127771428Y-97657142D01*
X127199999Y-97657142D01*
X126914285Y-97800000D01*
X126771428Y-98085714D01*
X126771428Y-98371428D01*
X128199999Y-98657142D01*
X125485714Y-99657142D02*
X125485714Y-97657142D01*
X125485714Y-98228571D02*
X125342857Y-97942857D01*
X125199999Y-97800000D01*
X124914285Y-97657142D01*
X124628571Y-97657142D01*
X155568750Y-74750000D02*
X155089583Y-74916666D01*
X154943750Y-75083333D01*
X154818750Y-75416666D01*
X154881250Y-75916666D01*
X155089583Y-76250000D01*
X155277083Y-76416666D01*
X155631250Y-76583333D01*
X156964583Y-76583333D01*
X156527083Y-73083333D01*
X155360416Y-73083333D01*
X155047916Y-73250000D01*
X154902083Y-73416666D01*
X154777083Y-73750000D01*
X154818750Y-74083333D01*
X155027083Y-74416666D01*
X155214583Y-74583333D01*
X155568750Y-74750000D01*
X156735416Y-74750000D01*
X153464583Y-76583333D02*
X153172916Y-74250000D01*
X153256250Y-74916666D02*
X153047916Y-74583333D01*
X152860416Y-74416666D01*
X152506250Y-74250000D01*
X152172916Y-74250000D01*
X151297916Y-76583333D02*
X151006250Y-74250000D01*
X150860416Y-73083333D02*
X151047916Y-73250000D01*
X150902083Y-73416666D01*
X150714583Y-73250000D01*
X150860416Y-73083333D01*
X150902083Y-73416666D01*
X148131250Y-76583333D02*
X147902083Y-74750000D01*
X148027083Y-74416666D01*
X148339583Y-74250000D01*
X149006250Y-74250000D01*
X149360416Y-74416666D01*
X148110416Y-76416666D02*
X148464583Y-76583333D01*
X149297916Y-76583333D01*
X149610416Y-76416666D01*
X149735416Y-76083333D01*
X149693750Y-75750000D01*
X149485416Y-75416666D01*
X149131250Y-75250000D01*
X148297916Y-75250000D01*
X147943750Y-75083333D01*
X146172916Y-74250000D02*
X146464583Y-76583333D01*
X146214583Y-74583333D02*
X146027083Y-74416666D01*
X145672916Y-74250000D01*
X145172916Y-74250000D01*
X144860416Y-74416666D01*
X144735416Y-74750000D01*
X144964583Y-76583333D01*
X140777083Y-76416666D02*
X140297916Y-76583333D01*
X139464583Y-76583333D01*
X139110416Y-76416666D01*
X138922916Y-76250000D01*
X138714583Y-75916666D01*
X138672916Y-75583333D01*
X138797916Y-75250000D01*
X138943750Y-75083333D01*
X139256250Y-74916666D01*
X139902083Y-74750000D01*
X140214583Y-74583333D01*
X140360416Y-74416666D01*
X140485416Y-74083333D01*
X140443750Y-73750000D01*
X140235416Y-73416666D01*
X140047916Y-73250000D01*
X139693750Y-73083333D01*
X138860416Y-73083333D01*
X138381250Y-73250000D01*
X134631250Y-76583333D02*
X134193750Y-73083333D01*
X134402083Y-74750000D02*
X132402083Y-74750000D01*
X132631250Y-76583333D02*
X132193750Y-73083333D01*
X130464583Y-76583333D02*
X130777083Y-76416666D01*
X130922916Y-76250000D01*
X131047916Y-75916666D01*
X130922916Y-74916666D01*
X130714583Y-74583333D01*
X130527083Y-74416666D01*
X130172916Y-74250000D01*
X129672916Y-74250000D01*
X129360416Y-74416666D01*
X129214583Y-74583333D01*
X129089583Y-74916666D01*
X129214583Y-75916666D01*
X129422916Y-76250000D01*
X129610416Y-76416666D01*
X129964583Y-76583333D01*
X130464583Y-76583333D01*
X127506250Y-74250000D02*
X127797916Y-76583333D01*
X127547916Y-74583333D02*
X127360416Y-74416666D01*
X127006250Y-74250000D01*
X126506250Y-74250000D01*
X126193750Y-74416666D01*
X126068750Y-74750000D01*
X126297916Y-76583333D01*
X122839583Y-74250000D02*
X123193750Y-77083333D01*
X123402083Y-77416666D01*
X123589583Y-77583333D01*
X123943750Y-77750000D01*
X124443750Y-77750000D01*
X124756250Y-77583333D01*
X123110416Y-76416666D02*
X123464583Y-76583333D01*
X124131250Y-76583333D01*
X124443750Y-76416666D01*
X124589583Y-76250000D01*
X124714583Y-75916666D01*
X124589583Y-74916666D01*
X124381250Y-74583333D01*
X124193750Y-74416666D01*
X123839583Y-74250000D01*
X123172916Y-74250000D01*
X122860416Y-74416666D01*
D11*
X158750000Y-65151000D03*
X158750000Y-67691000D03*
X156210000Y-65151000D03*
X156210000Y-67691000D03*
X153670000Y-65151000D03*
X153670000Y-67691000D03*
X151130000Y-65151000D03*
X151130000Y-67691000D03*
X148590000Y-65151000D03*
X148590000Y-67691000D03*
X146050000Y-65151000D03*
X146050000Y-67691000D03*
X143510000Y-65151000D03*
X143510000Y-67691000D03*
X140970000Y-65151000D03*
X140970000Y-67691000D03*
X138430000Y-65151000D03*
X138430000Y-67691000D03*
X135890000Y-65151000D03*
X135890000Y-67691000D03*
X133350000Y-65151000D03*
X133350000Y-67691000D03*
X130810000Y-65151000D03*
X130810000Y-67691000D03*
X128270000Y-65151000D03*
X128270000Y-67691000D03*
X125730000Y-65151000D03*
X125730000Y-67691000D03*
X123190000Y-65151000D03*
X123190000Y-67691000D03*
X120650000Y-65151000D03*
D12*
X120650000Y-67691000D03*
D13*
G36*
X164255665Y-60281863D02*
G01*
X164309214Y-60298030D01*
X164358597Y-60324288D01*
X164401945Y-60359641D01*
X164437600Y-60402740D01*
X164464201Y-60451937D01*
X164480742Y-60505375D01*
X164490001Y-60593464D01*
X164490000Y-76434876D01*
X164490001Y-76434886D01*
X164490000Y-81190000D01*
X163234877Y-81190000D01*
X163200000Y-81186565D01*
X163165123Y-81190000D01*
X163060816Y-81200273D01*
X162926980Y-81240872D01*
X162803637Y-81306800D01*
X162695525Y-81395525D01*
X162606800Y-81503637D01*
X162540872Y-81626980D01*
X162500273Y-81760816D01*
X162486565Y-81900000D01*
X162490000Y-81934876D01*
X162490001Y-83865113D01*
X162486565Y-83900000D01*
X162500273Y-84039184D01*
X162540872Y-84173020D01*
X162606800Y-84296363D01*
X162695525Y-84404475D01*
X162803637Y-84493200D01*
X162926980Y-84559128D01*
X163060816Y-84599727D01*
X163165123Y-84610000D01*
X163200000Y-84613435D01*
X163234877Y-84610000D01*
X164490001Y-84610000D01*
X164490000Y-92690000D01*
X164234877Y-92690000D01*
X164200000Y-92686565D01*
X164165123Y-92690000D01*
X164060816Y-92700273D01*
X163926980Y-92740872D01*
X163803637Y-92806800D01*
X163695525Y-92895525D01*
X163606800Y-93003637D01*
X163540872Y-93126980D01*
X163500273Y-93260816D01*
X163486565Y-93400000D01*
X163490000Y-93434876D01*
X163490000Y-95123000D01*
X115910000Y-95123000D01*
X115910000Y-93434876D01*
X115913435Y-93400000D01*
X115899727Y-93260816D01*
X115859128Y-93126980D01*
X115793200Y-93003637D01*
X115704475Y-92895525D01*
X115596363Y-92806800D01*
X115473020Y-92740872D01*
X115339184Y-92700273D01*
X115234877Y-92690000D01*
X115200000Y-92686565D01*
X115165123Y-92690000D01*
X114910000Y-92690000D01*
X114910000Y-86110000D01*
X116165123Y-86110000D01*
X116200000Y-86113435D01*
X116234877Y-86110000D01*
X116339184Y-86099727D01*
X116473020Y-86059128D01*
X116596363Y-85993200D01*
X116704475Y-85904475D01*
X116793200Y-85796363D01*
X116859128Y-85673020D01*
X116899727Y-85539184D01*
X116913435Y-85400000D01*
X116910000Y-85365123D01*
X116910000Y-83434876D01*
X116913435Y-83400000D01*
X116899727Y-83260816D01*
X116859128Y-83126980D01*
X116793200Y-83003637D01*
X116704475Y-82895525D01*
X116596363Y-82806800D01*
X116473020Y-82740872D01*
X116339184Y-82700273D01*
X116234877Y-82690000D01*
X116200000Y-82686565D01*
X116165123Y-82690000D01*
X114910000Y-82690000D01*
X114910000Y-71720000D01*
X121065000Y-71720000D01*
X121065000Y-78740000D01*
X158335000Y-78740000D01*
X158335000Y-71720000D01*
X121065000Y-71720000D01*
X114910000Y-71720000D01*
X114910000Y-66841000D01*
X119161928Y-66841000D01*
X119161928Y-68541000D01*
X119174188Y-68665482D01*
X119210498Y-68785180D01*
X119269463Y-68895494D01*
X119348815Y-68992185D01*
X119445506Y-69071537D01*
X119555820Y-69130502D01*
X119675518Y-69166812D01*
X119800000Y-69179072D01*
X121500000Y-69179072D01*
X121624482Y-69166812D01*
X121744180Y-69130502D01*
X121854494Y-69071537D01*
X121951185Y-68992185D01*
X122030537Y-68895494D01*
X122089502Y-68785180D01*
X122111513Y-68712620D01*
X122243368Y-68844475D01*
X122486589Y-69006990D01*
X122756842Y-69118932D01*
X123043740Y-69176000D01*
X123336260Y-69176000D01*
X123623158Y-69118932D01*
X123893411Y-69006990D01*
X124136632Y-68844475D01*
X124343475Y-68637632D01*
X124460000Y-68463240D01*
X124576525Y-68637632D01*
X124783368Y-68844475D01*
X125026589Y-69006990D01*
X125296842Y-69118932D01*
X125583740Y-69176000D01*
X125876260Y-69176000D01*
X126163158Y-69118932D01*
X126433411Y-69006990D01*
X126676632Y-68844475D01*
X126883475Y-68637632D01*
X127000000Y-68463240D01*
X127116525Y-68637632D01*
X127323368Y-68844475D01*
X127566589Y-69006990D01*
X127836842Y-69118932D01*
X128123740Y-69176000D01*
X128416260Y-69176000D01*
X128703158Y-69118932D01*
X128973411Y-69006990D01*
X129216632Y-68844475D01*
X129423475Y-68637632D01*
X129540000Y-68463240D01*
X129656525Y-68637632D01*
X129863368Y-68844475D01*
X130106589Y-69006990D01*
X130376842Y-69118932D01*
X130663740Y-69176000D01*
X130956260Y-69176000D01*
X131243158Y-69118932D01*
X131513411Y-69006990D01*
X131756632Y-68844475D01*
X131963475Y-68637632D01*
X132080000Y-68463240D01*
X132196525Y-68637632D01*
X132403368Y-68844475D01*
X132646589Y-69006990D01*
X132916842Y-69118932D01*
X133203740Y-69176000D01*
X133496260Y-69176000D01*
X133783158Y-69118932D01*
X134053411Y-69006990D01*
X134296632Y-68844475D01*
X134503475Y-68637632D01*
X134620000Y-68463240D01*
X134736525Y-68637632D01*
X134943368Y-68844475D01*
X135186589Y-69006990D01*
X135456842Y-69118932D01*
X135743740Y-69176000D01*
X136036260Y-69176000D01*
X136323158Y-69118932D01*
X136593411Y-69006990D01*
X136836632Y-68844475D01*
X137043475Y-68637632D01*
X137160000Y-68463240D01*
X137276525Y-68637632D01*
X137483368Y-68844475D01*
X137726589Y-69006990D01*
X137996842Y-69118932D01*
X138283740Y-69176000D01*
X138576260Y-69176000D01*
X138863158Y-69118932D01*
X139133411Y-69006990D01*
X139376632Y-68844475D01*
X139583475Y-68637632D01*
X139700000Y-68463240D01*
X139816525Y-68637632D01*
X140023368Y-68844475D01*
X140266589Y-69006990D01*
X140536842Y-69118932D01*
X140823740Y-69176000D01*
X141116260Y-69176000D01*
X141403158Y-69118932D01*
X141673411Y-69006990D01*
X141916632Y-68844475D01*
X142123475Y-68637632D01*
X142240000Y-68463240D01*
X142356525Y-68637632D01*
X142563368Y-68844475D01*
X142806589Y-69006990D01*
X143076842Y-69118932D01*
X143363740Y-69176000D01*
X143656260Y-69176000D01*
X143943158Y-69118932D01*
X144213411Y-69006990D01*
X144456632Y-68844475D01*
X144663475Y-68637632D01*
X144780000Y-68463240D01*
X144896525Y-68637632D01*
X145103368Y-68844475D01*
X145346589Y-69006990D01*
X145616842Y-69118932D01*
X145903740Y-69176000D01*
X146196260Y-69176000D01*
X146483158Y-69118932D01*
X146753411Y-69006990D01*
X146996632Y-68844475D01*
X147203475Y-68637632D01*
X147320000Y-68463240D01*
X147436525Y-68637632D01*
X147643368Y-68844475D01*
X147886589Y-69006990D01*
X148156842Y-69118932D01*
X148443740Y-69176000D01*
X148736260Y-69176000D01*
X149023158Y-69118932D01*
X149293411Y-69006990D01*
X149536632Y-68844475D01*
X149743475Y-68637632D01*
X149860000Y-68463240D01*
X149976525Y-68637632D01*
X150183368Y-68844475D01*
X150426589Y-69006990D01*
X150696842Y-69118932D01*
X150983740Y-69176000D01*
X151276260Y-69176000D01*
X151563158Y-69118932D01*
X151833411Y-69006990D01*
X152076632Y-68844475D01*
X152283475Y-68637632D01*
X152400000Y-68463240D01*
X152516525Y-68637632D01*
X152723368Y-68844475D01*
X152966589Y-69006990D01*
X153236842Y-69118932D01*
X153523740Y-69176000D01*
X153816260Y-69176000D01*
X154103158Y-69118932D01*
X154373411Y-69006990D01*
X154616632Y-68844475D01*
X154823475Y-68637632D01*
X154940000Y-68463240D01*
X155056525Y-68637632D01*
X155263368Y-68844475D01*
X155506589Y-69006990D01*
X155776842Y-69118932D01*
X156063740Y-69176000D01*
X156356260Y-69176000D01*
X156643158Y-69118932D01*
X156913411Y-69006990D01*
X157156632Y-68844475D01*
X157363475Y-68637632D01*
X157480000Y-68463240D01*
X157596525Y-68637632D01*
X157803368Y-68844475D01*
X158046589Y-69006990D01*
X158316842Y-69118932D01*
X158603740Y-69176000D01*
X158896260Y-69176000D01*
X159183158Y-69118932D01*
X159453411Y-69006990D01*
X159696632Y-68844475D01*
X159903475Y-68637632D01*
X160065990Y-68394411D01*
X160177932Y-68124158D01*
X160235000Y-67837260D01*
X160235000Y-67544740D01*
X160177932Y-67257842D01*
X160065990Y-66987589D01*
X159903475Y-66744368D01*
X159696632Y-66537525D01*
X159522240Y-66421000D01*
X159696632Y-66304475D01*
X159903475Y-66097632D01*
X160065990Y-65854411D01*
X160177932Y-65584158D01*
X160235000Y-65297260D01*
X160235000Y-65004740D01*
X160177932Y-64717842D01*
X160065990Y-64447589D01*
X159903475Y-64204368D01*
X159696632Y-63997525D01*
X159453411Y-63835010D01*
X159183158Y-63723068D01*
X158896260Y-63666000D01*
X158603740Y-63666000D01*
X158316842Y-63723068D01*
X158046589Y-63835010D01*
X157803368Y-63997525D01*
X157596525Y-64204368D01*
X157480000Y-64378760D01*
X157363475Y-64204368D01*
X157156632Y-63997525D01*
X156913411Y-63835010D01*
X156643158Y-63723068D01*
X156356260Y-63666000D01*
X156063740Y-63666000D01*
X155776842Y-63723068D01*
X155506589Y-63835010D01*
X155263368Y-63997525D01*
X155056525Y-64204368D01*
X154940000Y-64378760D01*
X154823475Y-64204368D01*
X154616632Y-63997525D01*
X154373411Y-63835010D01*
X154103158Y-63723068D01*
X153816260Y-63666000D01*
X153523740Y-63666000D01*
X153236842Y-63723068D01*
X152966589Y-63835010D01*
X152723368Y-63997525D01*
X152516525Y-64204368D01*
X152400000Y-64378760D01*
X152283475Y-64204368D01*
X152076632Y-63997525D01*
X151833411Y-63835010D01*
X151563158Y-63723068D01*
X151276260Y-63666000D01*
X150983740Y-63666000D01*
X150696842Y-63723068D01*
X150426589Y-63835010D01*
X150183368Y-63997525D01*
X149976525Y-64204368D01*
X149860000Y-64378760D01*
X149743475Y-64204368D01*
X149536632Y-63997525D01*
X149293411Y-63835010D01*
X149023158Y-63723068D01*
X148736260Y-63666000D01*
X148443740Y-63666000D01*
X148156842Y-63723068D01*
X147886589Y-63835010D01*
X147643368Y-63997525D01*
X147436525Y-64204368D01*
X147320000Y-64378760D01*
X147203475Y-64204368D01*
X146996632Y-63997525D01*
X146753411Y-63835010D01*
X146483158Y-63723068D01*
X146196260Y-63666000D01*
X145903740Y-63666000D01*
X145616842Y-63723068D01*
X145346589Y-63835010D01*
X145103368Y-63997525D01*
X144896525Y-64204368D01*
X144780000Y-64378760D01*
X144663475Y-64204368D01*
X144456632Y-63997525D01*
X144213411Y-63835010D01*
X143943158Y-63723068D01*
X143656260Y-63666000D01*
X143363740Y-63666000D01*
X143076842Y-63723068D01*
X142806589Y-63835010D01*
X142563368Y-63997525D01*
X142356525Y-64204368D01*
X142240000Y-64378760D01*
X142123475Y-64204368D01*
X141916632Y-63997525D01*
X141673411Y-63835010D01*
X141403158Y-63723068D01*
X141116260Y-63666000D01*
X140823740Y-63666000D01*
X140536842Y-63723068D01*
X140266589Y-63835010D01*
X140023368Y-63997525D01*
X139816525Y-64204368D01*
X139700000Y-64378760D01*
X139583475Y-64204368D01*
X139376632Y-63997525D01*
X139133411Y-63835010D01*
X138863158Y-63723068D01*
X138576260Y-63666000D01*
X138283740Y-63666000D01*
X137996842Y-63723068D01*
X137726589Y-63835010D01*
X137483368Y-63997525D01*
X137276525Y-64204368D01*
X137160000Y-64378760D01*
X137043475Y-64204368D01*
X136836632Y-63997525D01*
X136593411Y-63835010D01*
X136323158Y-63723068D01*
X136036260Y-63666000D01*
X135743740Y-63666000D01*
X135456842Y-63723068D01*
X135186589Y-63835010D01*
X134943368Y-63997525D01*
X134736525Y-64204368D01*
X134620000Y-64378760D01*
X134503475Y-64204368D01*
X134296632Y-63997525D01*
X134053411Y-63835010D01*
X133783158Y-63723068D01*
X133496260Y-63666000D01*
X133203740Y-63666000D01*
X132916842Y-63723068D01*
X132646589Y-63835010D01*
X132403368Y-63997525D01*
X132196525Y-64204368D01*
X132080000Y-64378760D01*
X131963475Y-64204368D01*
X131756632Y-63997525D01*
X131513411Y-63835010D01*
X131243158Y-63723068D01*
X130956260Y-63666000D01*
X130663740Y-63666000D01*
X130376842Y-63723068D01*
X130106589Y-63835010D01*
X129863368Y-63997525D01*
X129656525Y-64204368D01*
X129540000Y-64378760D01*
X129423475Y-64204368D01*
X129216632Y-63997525D01*
X128973411Y-63835010D01*
X128703158Y-63723068D01*
X128416260Y-63666000D01*
X128123740Y-63666000D01*
X127836842Y-63723068D01*
X127566589Y-63835010D01*
X127323368Y-63997525D01*
X127116525Y-64204368D01*
X127000000Y-64378760D01*
X126883475Y-64204368D01*
X126676632Y-63997525D01*
X126433411Y-63835010D01*
X126163158Y-63723068D01*
X125876260Y-63666000D01*
X125583740Y-63666000D01*
X125296842Y-63723068D01*
X125026589Y-63835010D01*
X124783368Y-63997525D01*
X124576525Y-64204368D01*
X124460000Y-64378760D01*
X124343475Y-64204368D01*
X124136632Y-63997525D01*
X123893411Y-63835010D01*
X123623158Y-63723068D01*
X123336260Y-63666000D01*
X123043740Y-63666000D01*
X122756842Y-63723068D01*
X122486589Y-63835010D01*
X122243368Y-63997525D01*
X122036525Y-64204368D01*
X121920000Y-64378760D01*
X121803475Y-64204368D01*
X121596632Y-63997525D01*
X121353411Y-63835010D01*
X121083158Y-63723068D01*
X120796260Y-63666000D01*
X120503740Y-63666000D01*
X120216842Y-63723068D01*
X119946589Y-63835010D01*
X119703368Y-63997525D01*
X119496525Y-64204368D01*
X119334010Y-64447589D01*
X119222068Y-64717842D01*
X119165000Y-65004740D01*
X119165000Y-65297260D01*
X119222068Y-65584158D01*
X119334010Y-65854411D01*
X119496525Y-66097632D01*
X119628380Y-66229487D01*
X119555820Y-66251498D01*
X119445506Y-66310463D01*
X119348815Y-66389815D01*
X119269463Y-66486506D01*
X119210498Y-66596820D01*
X119174188Y-66716518D01*
X119161928Y-66841000D01*
X114910000Y-66841000D01*
X114910000Y-60597722D01*
X114918863Y-60507335D01*
X114935030Y-60453786D01*
X114961288Y-60404403D01*
X114996641Y-60361055D01*
X115039740Y-60325400D01*
X115088937Y-60298799D01*
X115142375Y-60282258D01*
X115230455Y-60273000D01*
X164165278Y-60273000D01*
X164255665Y-60281863D01*
G37*
X164255665Y-60281863D02*
X164309214Y-60298030D01*
X164358597Y-60324288D01*
X164401945Y-60359641D01*
X164437600Y-60402740D01*
X164464201Y-60451937D01*
X164480742Y-60505375D01*
X164490001Y-60593464D01*
X164490000Y-76434876D01*
X164490001Y-76434886D01*
X164490000Y-81190000D01*
X163234877Y-81190000D01*
X163200000Y-81186565D01*
X163165123Y-81190000D01*
X163060816Y-81200273D01*
X162926980Y-81240872D01*
X162803637Y-81306800D01*
X162695525Y-81395525D01*
X162606800Y-81503637D01*
X162540872Y-81626980D01*
X162500273Y-81760816D01*
X162486565Y-81900000D01*
X162490000Y-81934876D01*
X162490001Y-83865113D01*
X162486565Y-83900000D01*
X162500273Y-84039184D01*
X162540872Y-84173020D01*
X162606800Y-84296363D01*
X162695525Y-84404475D01*
X162803637Y-84493200D01*
X162926980Y-84559128D01*
X163060816Y-84599727D01*
X163165123Y-84610000D01*
X163200000Y-84613435D01*
X163234877Y-84610000D01*
X164490001Y-84610000D01*
X164490000Y-92690000D01*
X164234877Y-92690000D01*
X164200000Y-92686565D01*
X164165123Y-92690000D01*
X164060816Y-92700273D01*
X163926980Y-92740872D01*
X163803637Y-92806800D01*
X163695525Y-92895525D01*
X163606800Y-93003637D01*
X163540872Y-93126980D01*
X163500273Y-93260816D01*
X163486565Y-93400000D01*
X163490000Y-93434876D01*
X163490000Y-95123000D01*
X115910000Y-95123000D01*
X115910000Y-93434876D01*
X115913435Y-93400000D01*
X115899727Y-93260816D01*
X115859128Y-93126980D01*
X115793200Y-93003637D01*
X115704475Y-92895525D01*
X115596363Y-92806800D01*
X115473020Y-92740872D01*
X115339184Y-92700273D01*
X115234877Y-92690000D01*
X115200000Y-92686565D01*
X115165123Y-92690000D01*
X114910000Y-92690000D01*
X114910000Y-86110000D01*
X116165123Y-86110000D01*
X116200000Y-86113435D01*
X116234877Y-86110000D01*
X116339184Y-86099727D01*
X116473020Y-86059128D01*
X116596363Y-85993200D01*
X116704475Y-85904475D01*
X116793200Y-85796363D01*
X116859128Y-85673020D01*
X116899727Y-85539184D01*
X116913435Y-85400000D01*
X116910000Y-85365123D01*
X116910000Y-83434876D01*
X116913435Y-83400000D01*
X116899727Y-83260816D01*
X116859128Y-83126980D01*
X116793200Y-83003637D01*
X116704475Y-82895525D01*
X116596363Y-82806800D01*
X116473020Y-82740872D01*
X116339184Y-82700273D01*
X116234877Y-82690000D01*
X116200000Y-82686565D01*
X116165123Y-82690000D01*
X114910000Y-82690000D01*
X114910000Y-71720000D01*
X121065000Y-71720000D01*
X121065000Y-78740000D01*
X158335000Y-78740000D01*
X158335000Y-71720000D01*
X121065000Y-71720000D01*
X114910000Y-71720000D01*
X114910000Y-66841000D01*
X119161928Y-66841000D01*
X119161928Y-68541000D01*
X119174188Y-68665482D01*
X119210498Y-68785180D01*
X119269463Y-68895494D01*
X119348815Y-68992185D01*
X119445506Y-69071537D01*
X119555820Y-69130502D01*
X119675518Y-69166812D01*
X119800000Y-69179072D01*
X121500000Y-69179072D01*
X121624482Y-69166812D01*
X121744180Y-69130502D01*
X121854494Y-69071537D01*
X121951185Y-68992185D01*
X122030537Y-68895494D01*
X122089502Y-68785180D01*
X122111513Y-68712620D01*
X122243368Y-68844475D01*
X122486589Y-69006990D01*
X122756842Y-69118932D01*
X123043740Y-69176000D01*
X123336260Y-69176000D01*
X123623158Y-69118932D01*
X123893411Y-69006990D01*
X124136632Y-68844475D01*
X124343475Y-68637632D01*
X124460000Y-68463240D01*
X124576525Y-68637632D01*
X124783368Y-68844475D01*
X125026589Y-69006990D01*
X125296842Y-69118932D01*
X125583740Y-69176000D01*
X125876260Y-69176000D01*
X126163158Y-69118932D01*
X126433411Y-69006990D01*
X126676632Y-68844475D01*
X126883475Y-68637632D01*
X127000000Y-68463240D01*
X127116525Y-68637632D01*
X127323368Y-68844475D01*
X127566589Y-69006990D01*
X127836842Y-69118932D01*
X128123740Y-69176000D01*
X128416260Y-69176000D01*
X128703158Y-69118932D01*
X128973411Y-69006990D01*
X129216632Y-68844475D01*
X129423475Y-68637632D01*
X129540000Y-68463240D01*
X129656525Y-68637632D01*
X129863368Y-68844475D01*
X130106589Y-69006990D01*
X130376842Y-69118932D01*
X130663740Y-69176000D01*
X130956260Y-69176000D01*
X131243158Y-69118932D01*
X131513411Y-69006990D01*
X131756632Y-68844475D01*
X131963475Y-68637632D01*
X132080000Y-68463240D01*
X132196525Y-68637632D01*
X132403368Y-68844475D01*
X132646589Y-69006990D01*
X132916842Y-69118932D01*
X133203740Y-69176000D01*
X133496260Y-69176000D01*
X133783158Y-69118932D01*
X134053411Y-69006990D01*
X134296632Y-68844475D01*
X134503475Y-68637632D01*
X134620000Y-68463240D01*
X134736525Y-68637632D01*
X134943368Y-68844475D01*
X135186589Y-69006990D01*
X135456842Y-69118932D01*
X135743740Y-69176000D01*
X136036260Y-69176000D01*
X136323158Y-69118932D01*
X136593411Y-69006990D01*
X136836632Y-68844475D01*
X137043475Y-68637632D01*
X137160000Y-68463240D01*
X137276525Y-68637632D01*
X137483368Y-68844475D01*
X137726589Y-69006990D01*
X137996842Y-69118932D01*
X138283740Y-69176000D01*
X138576260Y-69176000D01*
X138863158Y-69118932D01*
X139133411Y-69006990D01*
X139376632Y-68844475D01*
X139583475Y-68637632D01*
X139700000Y-68463240D01*
X139816525Y-68637632D01*
X140023368Y-68844475D01*
X140266589Y-69006990D01*
X140536842Y-69118932D01*
X140823740Y-69176000D01*
X141116260Y-69176000D01*
X141403158Y-69118932D01*
X141673411Y-69006990D01*
X141916632Y-68844475D01*
X142123475Y-68637632D01*
X142240000Y-68463240D01*
X142356525Y-68637632D01*
X142563368Y-68844475D01*
X142806589Y-69006990D01*
X143076842Y-69118932D01*
X143363740Y-69176000D01*
X143656260Y-69176000D01*
X143943158Y-69118932D01*
X144213411Y-69006990D01*
X144456632Y-68844475D01*
X144663475Y-68637632D01*
X144780000Y-68463240D01*
X144896525Y-68637632D01*
X145103368Y-68844475D01*
X145346589Y-69006990D01*
X145616842Y-69118932D01*
X145903740Y-69176000D01*
X146196260Y-69176000D01*
X146483158Y-69118932D01*
X146753411Y-69006990D01*
X146996632Y-68844475D01*
X147203475Y-68637632D01*
X147320000Y-68463240D01*
X147436525Y-68637632D01*
X147643368Y-68844475D01*
X147886589Y-69006990D01*
X148156842Y-69118932D01*
X148443740Y-69176000D01*
X148736260Y-69176000D01*
X149023158Y-69118932D01*
X149293411Y-69006990D01*
X149536632Y-68844475D01*
X149743475Y-68637632D01*
X149860000Y-68463240D01*
X149976525Y-68637632D01*
X150183368Y-68844475D01*
X150426589Y-69006990D01*
X150696842Y-69118932D01*
X150983740Y-69176000D01*
X151276260Y-69176000D01*
X151563158Y-69118932D01*
X151833411Y-69006990D01*
X152076632Y-68844475D01*
X152283475Y-68637632D01*
X152400000Y-68463240D01*
X152516525Y-68637632D01*
X152723368Y-68844475D01*
X152966589Y-69006990D01*
X153236842Y-69118932D01*
X153523740Y-69176000D01*
X153816260Y-69176000D01*
X154103158Y-69118932D01*
X154373411Y-69006990D01*
X154616632Y-68844475D01*
X154823475Y-68637632D01*
X154940000Y-68463240D01*
X155056525Y-68637632D01*
X155263368Y-68844475D01*
X155506589Y-69006990D01*
X155776842Y-69118932D01*
X156063740Y-69176000D01*
X156356260Y-69176000D01*
X156643158Y-69118932D01*
X156913411Y-69006990D01*
X157156632Y-68844475D01*
X157363475Y-68637632D01*
X157480000Y-68463240D01*
X157596525Y-68637632D01*
X157803368Y-68844475D01*
X158046589Y-69006990D01*
X158316842Y-69118932D01*
X158603740Y-69176000D01*
X158896260Y-69176000D01*
X159183158Y-69118932D01*
X159453411Y-69006990D01*
X159696632Y-68844475D01*
X159903475Y-68637632D01*
X160065990Y-68394411D01*
X160177932Y-68124158D01*
X160235000Y-67837260D01*
X160235000Y-67544740D01*
X160177932Y-67257842D01*
X160065990Y-66987589D01*
X159903475Y-66744368D01*
X159696632Y-66537525D01*
X159522240Y-66421000D01*
X159696632Y-66304475D01*
X159903475Y-66097632D01*
X160065990Y-65854411D01*
X160177932Y-65584158D01*
X160235000Y-65297260D01*
X160235000Y-65004740D01*
X160177932Y-64717842D01*
X160065990Y-64447589D01*
X159903475Y-64204368D01*
X159696632Y-63997525D01*
X159453411Y-63835010D01*
X159183158Y-63723068D01*
X158896260Y-63666000D01*
X158603740Y-63666000D01*
X158316842Y-63723068D01*
X158046589Y-63835010D01*
X157803368Y-63997525D01*
X157596525Y-64204368D01*
X157480000Y-64378760D01*
X157363475Y-64204368D01*
X157156632Y-63997525D01*
X156913411Y-63835010D01*
X156643158Y-63723068D01*
X156356260Y-63666000D01*
X156063740Y-63666000D01*
X155776842Y-63723068D01*
X155506589Y-63835010D01*
X155263368Y-63997525D01*
X155056525Y-64204368D01*
X154940000Y-64378760D01*
X154823475Y-64204368D01*
X154616632Y-63997525D01*
X154373411Y-63835010D01*
X154103158Y-63723068D01*
X153816260Y-63666000D01*
X153523740Y-63666000D01*
X153236842Y-63723068D01*
X152966589Y-63835010D01*
X152723368Y-63997525D01*
X152516525Y-64204368D01*
X152400000Y-64378760D01*
X152283475Y-64204368D01*
X152076632Y-63997525D01*
X151833411Y-63835010D01*
X151563158Y-63723068D01*
X151276260Y-63666000D01*
X150983740Y-63666000D01*
X150696842Y-63723068D01*
X150426589Y-63835010D01*
X150183368Y-63997525D01*
X149976525Y-64204368D01*
X149860000Y-64378760D01*
X149743475Y-64204368D01*
X149536632Y-63997525D01*
X149293411Y-63835010D01*
X149023158Y-63723068D01*
X148736260Y-63666000D01*
X148443740Y-63666000D01*
X148156842Y-63723068D01*
X147886589Y-63835010D01*
X147643368Y-63997525D01*
X147436525Y-64204368D01*
X147320000Y-64378760D01*
X147203475Y-64204368D01*
X146996632Y-63997525D01*
X146753411Y-63835010D01*
X146483158Y-63723068D01*
X146196260Y-63666000D01*
X145903740Y-63666000D01*
X145616842Y-63723068D01*
X145346589Y-63835010D01*
X145103368Y-63997525D01*
X144896525Y-64204368D01*
X144780000Y-64378760D01*
X144663475Y-64204368D01*
X144456632Y-63997525D01*
X144213411Y-63835010D01*
X143943158Y-63723068D01*
X143656260Y-63666000D01*
X143363740Y-63666000D01*
X143076842Y-63723068D01*
X142806589Y-63835010D01*
X142563368Y-63997525D01*
X142356525Y-64204368D01*
X142240000Y-64378760D01*
X142123475Y-64204368D01*
X141916632Y-63997525D01*
X141673411Y-63835010D01*
X141403158Y-63723068D01*
X141116260Y-63666000D01*
X140823740Y-63666000D01*
X140536842Y-63723068D01*
X140266589Y-63835010D01*
X140023368Y-63997525D01*
X139816525Y-64204368D01*
X139700000Y-64378760D01*
X139583475Y-64204368D01*
X139376632Y-63997525D01*
X139133411Y-63835010D01*
X138863158Y-63723068D01*
X138576260Y-63666000D01*
X138283740Y-63666000D01*
X137996842Y-63723068D01*
X137726589Y-63835010D01*
X137483368Y-63997525D01*
X137276525Y-64204368D01*
X137160000Y-64378760D01*
X137043475Y-64204368D01*
X136836632Y-63997525D01*
X136593411Y-63835010D01*
X136323158Y-63723068D01*
X136036260Y-63666000D01*
X135743740Y-63666000D01*
X135456842Y-63723068D01*
X135186589Y-63835010D01*
X134943368Y-63997525D01*
X134736525Y-64204368D01*
X134620000Y-64378760D01*
X134503475Y-64204368D01*
X134296632Y-63997525D01*
X134053411Y-63835010D01*
X133783158Y-63723068D01*
X133496260Y-63666000D01*
X133203740Y-63666000D01*
X132916842Y-63723068D01*
X132646589Y-63835010D01*
X132403368Y-63997525D01*
X132196525Y-64204368D01*
X132080000Y-64378760D01*
X131963475Y-64204368D01*
X131756632Y-63997525D01*
X131513411Y-63835010D01*
X131243158Y-63723068D01*
X130956260Y-63666000D01*
X130663740Y-63666000D01*
X130376842Y-63723068D01*
X130106589Y-63835010D01*
X129863368Y-63997525D01*
X129656525Y-64204368D01*
X129540000Y-64378760D01*
X129423475Y-64204368D01*
X129216632Y-63997525D01*
X128973411Y-63835010D01*
X128703158Y-63723068D01*
X128416260Y-63666000D01*
X128123740Y-63666000D01*
X127836842Y-63723068D01*
X127566589Y-63835010D01*
X127323368Y-63997525D01*
X127116525Y-64204368D01*
X127000000Y-64378760D01*
X126883475Y-64204368D01*
X126676632Y-63997525D01*
X126433411Y-63835010D01*
X126163158Y-63723068D01*
X125876260Y-63666000D01*
X125583740Y-63666000D01*
X125296842Y-63723068D01*
X125026589Y-63835010D01*
X124783368Y-63997525D01*
X124576525Y-64204368D01*
X124460000Y-64378760D01*
X124343475Y-64204368D01*
X124136632Y-63997525D01*
X123893411Y-63835010D01*
X123623158Y-63723068D01*
X123336260Y-63666000D01*
X123043740Y-63666000D01*
X122756842Y-63723068D01*
X122486589Y-63835010D01*
X122243368Y-63997525D01*
X122036525Y-64204368D01*
X121920000Y-64378760D01*
X121803475Y-64204368D01*
X121596632Y-63997525D01*
X121353411Y-63835010D01*
X121083158Y-63723068D01*
X120796260Y-63666000D01*
X120503740Y-63666000D01*
X120216842Y-63723068D01*
X119946589Y-63835010D01*
X119703368Y-63997525D01*
X119496525Y-64204368D01*
X119334010Y-64447589D01*
X119222068Y-64717842D01*
X119165000Y-65004740D01*
X119165000Y-65297260D01*
X119222068Y-65584158D01*
X119334010Y-65854411D01*
X119496525Y-66097632D01*
X119628380Y-66229487D01*
X119555820Y-66251498D01*
X119445506Y-66310463D01*
X119348815Y-66389815D01*
X119269463Y-66486506D01*
X119210498Y-66596820D01*
X119174188Y-66716518D01*
X119161928Y-66841000D01*
X114910000Y-66841000D01*
X114910000Y-60597722D01*
X114918863Y-60507335D01*
X114935030Y-60453786D01*
X114961288Y-60404403D01*
X114996641Y-60361055D01*
X115039740Y-60325400D01*
X115088937Y-60298799D01*
X115142375Y-60282258D01*
X115230455Y-60273000D01*
X164165278Y-60273000D01*
X164255665Y-60281863D01*
G36*
X132196525Y-66097632D02*
G01*
X132403368Y-66304475D01*
X132577760Y-66421000D01*
X132403368Y-66537525D01*
X132196525Y-66744368D01*
X132080000Y-66918760D01*
X131963475Y-66744368D01*
X131756632Y-66537525D01*
X131582240Y-66421000D01*
X131756632Y-66304475D01*
X131963475Y-66097632D01*
X132080000Y-65923240D01*
X132196525Y-66097632D01*
G37*
X132196525Y-66097632D02*
X132403368Y-66304475D01*
X132577760Y-66421000D01*
X132403368Y-66537525D01*
X132196525Y-66744368D01*
X132080000Y-66918760D01*
X131963475Y-66744368D01*
X131756632Y-66537525D01*
X131582240Y-66421000D01*
X131756632Y-66304475D01*
X131963475Y-66097632D01*
X132080000Y-65923240D01*
X132196525Y-66097632D01*
G36*
X157596525Y-66097632D02*
G01*
X157803368Y-66304475D01*
X157977760Y-66421000D01*
X157803368Y-66537525D01*
X157596525Y-66744368D01*
X157480000Y-66918760D01*
X157363475Y-66744368D01*
X157156632Y-66537525D01*
X156982240Y-66421000D01*
X157156632Y-66304475D01*
X157363475Y-66097632D01*
X157480000Y-65923240D01*
X157596525Y-66097632D01*
G37*
X157596525Y-66097632D02*
X157803368Y-66304475D01*
X157977760Y-66421000D01*
X157803368Y-66537525D01*
X157596525Y-66744368D01*
X157480000Y-66918760D01*
X157363475Y-66744368D01*
X157156632Y-66537525D01*
X156982240Y-66421000D01*
X157156632Y-66304475D01*
X157363475Y-66097632D01*
X157480000Y-65923240D01*
X157596525Y-66097632D01*
G36*
X155056525Y-66097632D02*
G01*
X155263368Y-66304475D01*
X155437760Y-66421000D01*
X155263368Y-66537525D01*
X155056525Y-66744368D01*
X154940000Y-66918760D01*
X154823475Y-66744368D01*
X154616632Y-66537525D01*
X154442240Y-66421000D01*
X154616632Y-66304475D01*
X154823475Y-66097632D01*
X154940000Y-65923240D01*
X155056525Y-66097632D01*
G37*
X155056525Y-66097632D02*
X155263368Y-66304475D01*
X155437760Y-66421000D01*
X155263368Y-66537525D01*
X155056525Y-66744368D01*
X154940000Y-66918760D01*
X154823475Y-66744368D01*
X154616632Y-66537525D01*
X154442240Y-66421000D01*
X154616632Y-66304475D01*
X154823475Y-66097632D01*
X154940000Y-65923240D01*
X155056525Y-66097632D01*
G36*
X152516525Y-66097632D02*
G01*
X152723368Y-66304475D01*
X152897760Y-66421000D01*
X152723368Y-66537525D01*
X152516525Y-66744368D01*
X152400000Y-66918760D01*
X152283475Y-66744368D01*
X152076632Y-66537525D01*
X151902240Y-66421000D01*
X152076632Y-66304475D01*
X152283475Y-66097632D01*
X152400000Y-65923240D01*
X152516525Y-66097632D01*
G37*
X152516525Y-66097632D02*
X152723368Y-66304475D01*
X152897760Y-66421000D01*
X152723368Y-66537525D01*
X152516525Y-66744368D01*
X152400000Y-66918760D01*
X152283475Y-66744368D01*
X152076632Y-66537525D01*
X151902240Y-66421000D01*
X152076632Y-66304475D01*
X152283475Y-66097632D01*
X152400000Y-65923240D01*
X152516525Y-66097632D01*
G36*
X149976525Y-66097632D02*
G01*
X150183368Y-66304475D01*
X150357760Y-66421000D01*
X150183368Y-66537525D01*
X149976525Y-66744368D01*
X149860000Y-66918760D01*
X149743475Y-66744368D01*
X149536632Y-66537525D01*
X149362240Y-66421000D01*
X149536632Y-66304475D01*
X149743475Y-66097632D01*
X149860000Y-65923240D01*
X149976525Y-66097632D01*
G37*
X149976525Y-66097632D02*
X150183368Y-66304475D01*
X150357760Y-66421000D01*
X150183368Y-66537525D01*
X149976525Y-66744368D01*
X149860000Y-66918760D01*
X149743475Y-66744368D01*
X149536632Y-66537525D01*
X149362240Y-66421000D01*
X149536632Y-66304475D01*
X149743475Y-66097632D01*
X149860000Y-65923240D01*
X149976525Y-66097632D01*
G36*
X147436525Y-66097632D02*
G01*
X147643368Y-66304475D01*
X147817760Y-66421000D01*
X147643368Y-66537525D01*
X147436525Y-66744368D01*
X147320000Y-66918760D01*
X147203475Y-66744368D01*
X146996632Y-66537525D01*
X146822240Y-66421000D01*
X146996632Y-66304475D01*
X147203475Y-66097632D01*
X147320000Y-65923240D01*
X147436525Y-66097632D01*
G37*
X147436525Y-66097632D02*
X147643368Y-66304475D01*
X147817760Y-66421000D01*
X147643368Y-66537525D01*
X147436525Y-66744368D01*
X147320000Y-66918760D01*
X147203475Y-66744368D01*
X146996632Y-66537525D01*
X146822240Y-66421000D01*
X146996632Y-66304475D01*
X147203475Y-66097632D01*
X147320000Y-65923240D01*
X147436525Y-66097632D01*
G36*
X144896525Y-66097632D02*
G01*
X145103368Y-66304475D01*
X145277760Y-66421000D01*
X145103368Y-66537525D01*
X144896525Y-66744368D01*
X144780000Y-66918760D01*
X144663475Y-66744368D01*
X144456632Y-66537525D01*
X144282240Y-66421000D01*
X144456632Y-66304475D01*
X144663475Y-66097632D01*
X144780000Y-65923240D01*
X144896525Y-66097632D01*
G37*
X144896525Y-66097632D02*
X145103368Y-66304475D01*
X145277760Y-66421000D01*
X145103368Y-66537525D01*
X144896525Y-66744368D01*
X144780000Y-66918760D01*
X144663475Y-66744368D01*
X144456632Y-66537525D01*
X144282240Y-66421000D01*
X144456632Y-66304475D01*
X144663475Y-66097632D01*
X144780000Y-65923240D01*
X144896525Y-66097632D01*
G36*
X142356525Y-66097632D02*
G01*
X142563368Y-66304475D01*
X142737760Y-66421000D01*
X142563368Y-66537525D01*
X142356525Y-66744368D01*
X142240000Y-66918760D01*
X142123475Y-66744368D01*
X141916632Y-66537525D01*
X141742240Y-66421000D01*
X141916632Y-66304475D01*
X142123475Y-66097632D01*
X142240000Y-65923240D01*
X142356525Y-66097632D01*
G37*
X142356525Y-66097632D02*
X142563368Y-66304475D01*
X142737760Y-66421000D01*
X142563368Y-66537525D01*
X142356525Y-66744368D01*
X142240000Y-66918760D01*
X142123475Y-66744368D01*
X141916632Y-66537525D01*
X141742240Y-66421000D01*
X141916632Y-66304475D01*
X142123475Y-66097632D01*
X142240000Y-65923240D01*
X142356525Y-66097632D01*
G36*
X139816525Y-66097632D02*
G01*
X140023368Y-66304475D01*
X140197760Y-66421000D01*
X140023368Y-66537525D01*
X139816525Y-66744368D01*
X139700000Y-66918760D01*
X139583475Y-66744368D01*
X139376632Y-66537525D01*
X139202240Y-66421000D01*
X139376632Y-66304475D01*
X139583475Y-66097632D01*
X139700000Y-65923240D01*
X139816525Y-66097632D01*
G37*
X139816525Y-66097632D02*
X140023368Y-66304475D01*
X140197760Y-66421000D01*
X140023368Y-66537525D01*
X139816525Y-66744368D01*
X139700000Y-66918760D01*
X139583475Y-66744368D01*
X139376632Y-66537525D01*
X139202240Y-66421000D01*
X139376632Y-66304475D01*
X139583475Y-66097632D01*
X139700000Y-65923240D01*
X139816525Y-66097632D01*
G36*
X137276525Y-66097632D02*
G01*
X137483368Y-66304475D01*
X137657760Y-66421000D01*
X137483368Y-66537525D01*
X137276525Y-66744368D01*
X137160000Y-66918760D01*
X137043475Y-66744368D01*
X136836632Y-66537525D01*
X136662240Y-66421000D01*
X136836632Y-66304475D01*
X137043475Y-66097632D01*
X137160000Y-65923240D01*
X137276525Y-66097632D01*
G37*
X137276525Y-66097632D02*
X137483368Y-66304475D01*
X137657760Y-66421000D01*
X137483368Y-66537525D01*
X137276525Y-66744368D01*
X137160000Y-66918760D01*
X137043475Y-66744368D01*
X136836632Y-66537525D01*
X136662240Y-66421000D01*
X136836632Y-66304475D01*
X137043475Y-66097632D01*
X137160000Y-65923240D01*
X137276525Y-66097632D01*
G36*
X134736525Y-66097632D02*
G01*
X134943368Y-66304475D01*
X135117760Y-66421000D01*
X134943368Y-66537525D01*
X134736525Y-66744368D01*
X134620000Y-66918760D01*
X134503475Y-66744368D01*
X134296632Y-66537525D01*
X134122240Y-66421000D01*
X134296632Y-66304475D01*
X134503475Y-66097632D01*
X134620000Y-65923240D01*
X134736525Y-66097632D01*
G37*
X134736525Y-66097632D02*
X134943368Y-66304475D01*
X135117760Y-66421000D01*
X134943368Y-66537525D01*
X134736525Y-66744368D01*
X134620000Y-66918760D01*
X134503475Y-66744368D01*
X134296632Y-66537525D01*
X134122240Y-66421000D01*
X134296632Y-66304475D01*
X134503475Y-66097632D01*
X134620000Y-65923240D01*
X134736525Y-66097632D01*
G36*
X129656525Y-66097632D02*
G01*
X129863368Y-66304475D01*
X130037760Y-66421000D01*
X129863368Y-66537525D01*
X129656525Y-66744368D01*
X129540000Y-66918760D01*
X129423475Y-66744368D01*
X129216632Y-66537525D01*
X129042240Y-66421000D01*
X129216632Y-66304475D01*
X129423475Y-66097632D01*
X129540000Y-65923240D01*
X129656525Y-66097632D01*
G37*
X129656525Y-66097632D02*
X129863368Y-66304475D01*
X130037760Y-66421000D01*
X129863368Y-66537525D01*
X129656525Y-66744368D01*
X129540000Y-66918760D01*
X129423475Y-66744368D01*
X129216632Y-66537525D01*
X129042240Y-66421000D01*
X129216632Y-66304475D01*
X129423475Y-66097632D01*
X129540000Y-65923240D01*
X129656525Y-66097632D01*
G36*
X127116525Y-66097632D02*
G01*
X127323368Y-66304475D01*
X127497760Y-66421000D01*
X127323368Y-66537525D01*
X127116525Y-66744368D01*
X127000000Y-66918760D01*
X126883475Y-66744368D01*
X126676632Y-66537525D01*
X126502240Y-66421000D01*
X126676632Y-66304475D01*
X126883475Y-66097632D01*
X127000000Y-65923240D01*
X127116525Y-66097632D01*
G37*
X127116525Y-66097632D02*
X127323368Y-66304475D01*
X127497760Y-66421000D01*
X127323368Y-66537525D01*
X127116525Y-66744368D01*
X127000000Y-66918760D01*
X126883475Y-66744368D01*
X126676632Y-66537525D01*
X126502240Y-66421000D01*
X126676632Y-66304475D01*
X126883475Y-66097632D01*
X127000000Y-65923240D01*
X127116525Y-66097632D01*
G36*
X124576525Y-66097632D02*
G01*
X124783368Y-66304475D01*
X124957760Y-66421000D01*
X124783368Y-66537525D01*
X124576525Y-66744368D01*
X124460000Y-66918760D01*
X124343475Y-66744368D01*
X124136632Y-66537525D01*
X123962240Y-66421000D01*
X124136632Y-66304475D01*
X124343475Y-66097632D01*
X124460000Y-65923240D01*
X124576525Y-66097632D01*
G37*
X124576525Y-66097632D02*
X124783368Y-66304475D01*
X124957760Y-66421000D01*
X124783368Y-66537525D01*
X124576525Y-66744368D01*
X124460000Y-66918760D01*
X124343475Y-66744368D01*
X124136632Y-66537525D01*
X123962240Y-66421000D01*
X124136632Y-66304475D01*
X124343475Y-66097632D01*
X124460000Y-65923240D01*
X124576525Y-66097632D01*
G36*
X122036525Y-66097632D02*
G01*
X122243368Y-66304475D01*
X122417760Y-66421000D01*
X122243368Y-66537525D01*
X122111513Y-66669380D01*
X122089502Y-66596820D01*
X122030537Y-66486506D01*
X121951185Y-66389815D01*
X121854494Y-66310463D01*
X121744180Y-66251498D01*
X121671620Y-66229487D01*
X121803475Y-66097632D01*
X121920000Y-65923240D01*
X122036525Y-66097632D01*
G37*
X122036525Y-66097632D02*
X122243368Y-66304475D01*
X122417760Y-66421000D01*
X122243368Y-66537525D01*
X122111513Y-66669380D01*
X122089502Y-66596820D01*
X122030537Y-66486506D01*
X121951185Y-66389815D01*
X121854494Y-66310463D01*
X121744180Y-66251498D01*
X121671620Y-66229487D01*
X121803475Y-66097632D01*
X121920000Y-65923240D01*
X122036525Y-66097632D01*
M02*
