G04 #@! TF.GenerationSoftware,KiCad,Pcbnew,5.1.5-52549c5~84~ubuntu18.04.1*
G04 #@! TF.CreationDate,2020-01-08T15:02:31-08:00*
G04 #@! TF.ProjectId,Breakout,42726561-6b6f-4757-942e-6b696361645f,A*
G04 #@! TF.SameCoordinates,Original*
G04 #@! TF.FileFunction,Soldermask,Top*
G04 #@! TF.FilePolarity,Negative*
%FSLAX46Y46*%
G04 Gerber Fmt 4.6, Leading zero omitted, Abs format (unit mm)*
G04 Created by KiCad (PCBNEW 5.1.5-52549c5~84~ubuntu18.04.1) date 2020-01-08 15:02:31*
%MOMM*%
%LPD*%
G04 APERTURE LIST*
%ADD10C,0.100000*%
G04 APERTURE END LIST*
D10*
G36*
X164300000Y-95700000D02*
G01*
X115100000Y-95700000D01*
X115100000Y-102000000D01*
X164300000Y-102000000D01*
X164300000Y-95700000D01*
G37*
X164300000Y-95700000D02*
X115100000Y-95700000D01*
X115100000Y-102000000D01*
X164300000Y-102000000D01*
X164300000Y-95700000D01*
G36*
X158863512Y-88638927D02*
G01*
X159012812Y-88668624D01*
X159176784Y-88736544D01*
X159324354Y-88835147D01*
X159449853Y-88960646D01*
X159548456Y-89108216D01*
X159616376Y-89272188D01*
X159651000Y-89446259D01*
X159651000Y-89623741D01*
X159616376Y-89797812D01*
X159548456Y-89961784D01*
X159449853Y-90109354D01*
X159324354Y-90234853D01*
X159176784Y-90333456D01*
X159012812Y-90401376D01*
X158863512Y-90431073D01*
X158838742Y-90436000D01*
X158661258Y-90436000D01*
X158636488Y-90431073D01*
X158487188Y-90401376D01*
X158323216Y-90333456D01*
X158175646Y-90234853D01*
X158050147Y-90109354D01*
X157951544Y-89961784D01*
X157883624Y-89797812D01*
X157849000Y-89623741D01*
X157849000Y-89446259D01*
X157883624Y-89272188D01*
X157951544Y-89108216D01*
X158050147Y-88960646D01*
X158175646Y-88835147D01*
X158323216Y-88736544D01*
X158487188Y-88668624D01*
X158636488Y-88638927D01*
X158661258Y-88634000D01*
X158838742Y-88634000D01*
X158863512Y-88638927D01*
G37*
G36*
X138543512Y-88638927D02*
G01*
X138692812Y-88668624D01*
X138856784Y-88736544D01*
X139004354Y-88835147D01*
X139129853Y-88960646D01*
X139228456Y-89108216D01*
X139296376Y-89272188D01*
X139331000Y-89446259D01*
X139331000Y-89623741D01*
X139296376Y-89797812D01*
X139228456Y-89961784D01*
X139129853Y-90109354D01*
X139004354Y-90234853D01*
X138856784Y-90333456D01*
X138692812Y-90401376D01*
X138543512Y-90431073D01*
X138518742Y-90436000D01*
X138341258Y-90436000D01*
X138316488Y-90431073D01*
X138167188Y-90401376D01*
X138003216Y-90333456D01*
X137855646Y-90234853D01*
X137730147Y-90109354D01*
X137631544Y-89961784D01*
X137563624Y-89797812D01*
X137529000Y-89623741D01*
X137529000Y-89446259D01*
X137563624Y-89272188D01*
X137631544Y-89108216D01*
X137730147Y-88960646D01*
X137855646Y-88835147D01*
X138003216Y-88736544D01*
X138167188Y-88668624D01*
X138316488Y-88638927D01*
X138341258Y-88634000D01*
X138518742Y-88634000D01*
X138543512Y-88638927D01*
G37*
G36*
X121551000Y-90436000D02*
G01*
X119749000Y-90436000D01*
X119749000Y-88634000D01*
X121551000Y-88634000D01*
X121551000Y-90436000D01*
G37*
G36*
X123303512Y-88638927D02*
G01*
X123452812Y-88668624D01*
X123616784Y-88736544D01*
X123764354Y-88835147D01*
X123889853Y-88960646D01*
X123988456Y-89108216D01*
X124056376Y-89272188D01*
X124091000Y-89446259D01*
X124091000Y-89623741D01*
X124056376Y-89797812D01*
X123988456Y-89961784D01*
X123889853Y-90109354D01*
X123764354Y-90234853D01*
X123616784Y-90333456D01*
X123452812Y-90401376D01*
X123303512Y-90431073D01*
X123278742Y-90436000D01*
X123101258Y-90436000D01*
X123076488Y-90431073D01*
X122927188Y-90401376D01*
X122763216Y-90333456D01*
X122615646Y-90234853D01*
X122490147Y-90109354D01*
X122391544Y-89961784D01*
X122323624Y-89797812D01*
X122289000Y-89623741D01*
X122289000Y-89446259D01*
X122323624Y-89272188D01*
X122391544Y-89108216D01*
X122490147Y-88960646D01*
X122615646Y-88835147D01*
X122763216Y-88736544D01*
X122927188Y-88668624D01*
X123076488Y-88638927D01*
X123101258Y-88634000D01*
X123278742Y-88634000D01*
X123303512Y-88638927D01*
G37*
G36*
X125843512Y-88638927D02*
G01*
X125992812Y-88668624D01*
X126156784Y-88736544D01*
X126304354Y-88835147D01*
X126429853Y-88960646D01*
X126528456Y-89108216D01*
X126596376Y-89272188D01*
X126631000Y-89446259D01*
X126631000Y-89623741D01*
X126596376Y-89797812D01*
X126528456Y-89961784D01*
X126429853Y-90109354D01*
X126304354Y-90234853D01*
X126156784Y-90333456D01*
X125992812Y-90401376D01*
X125843512Y-90431073D01*
X125818742Y-90436000D01*
X125641258Y-90436000D01*
X125616488Y-90431073D01*
X125467188Y-90401376D01*
X125303216Y-90333456D01*
X125155646Y-90234853D01*
X125030147Y-90109354D01*
X124931544Y-89961784D01*
X124863624Y-89797812D01*
X124829000Y-89623741D01*
X124829000Y-89446259D01*
X124863624Y-89272188D01*
X124931544Y-89108216D01*
X125030147Y-88960646D01*
X125155646Y-88835147D01*
X125303216Y-88736544D01*
X125467188Y-88668624D01*
X125616488Y-88638927D01*
X125641258Y-88634000D01*
X125818742Y-88634000D01*
X125843512Y-88638927D01*
G37*
G36*
X128383512Y-88638927D02*
G01*
X128532812Y-88668624D01*
X128696784Y-88736544D01*
X128844354Y-88835147D01*
X128969853Y-88960646D01*
X129068456Y-89108216D01*
X129136376Y-89272188D01*
X129171000Y-89446259D01*
X129171000Y-89623741D01*
X129136376Y-89797812D01*
X129068456Y-89961784D01*
X128969853Y-90109354D01*
X128844354Y-90234853D01*
X128696784Y-90333456D01*
X128532812Y-90401376D01*
X128383512Y-90431073D01*
X128358742Y-90436000D01*
X128181258Y-90436000D01*
X128156488Y-90431073D01*
X128007188Y-90401376D01*
X127843216Y-90333456D01*
X127695646Y-90234853D01*
X127570147Y-90109354D01*
X127471544Y-89961784D01*
X127403624Y-89797812D01*
X127369000Y-89623741D01*
X127369000Y-89446259D01*
X127403624Y-89272188D01*
X127471544Y-89108216D01*
X127570147Y-88960646D01*
X127695646Y-88835147D01*
X127843216Y-88736544D01*
X128007188Y-88668624D01*
X128156488Y-88638927D01*
X128181258Y-88634000D01*
X128358742Y-88634000D01*
X128383512Y-88638927D01*
G37*
G36*
X130923512Y-88638927D02*
G01*
X131072812Y-88668624D01*
X131236784Y-88736544D01*
X131384354Y-88835147D01*
X131509853Y-88960646D01*
X131608456Y-89108216D01*
X131676376Y-89272188D01*
X131711000Y-89446259D01*
X131711000Y-89623741D01*
X131676376Y-89797812D01*
X131608456Y-89961784D01*
X131509853Y-90109354D01*
X131384354Y-90234853D01*
X131236784Y-90333456D01*
X131072812Y-90401376D01*
X130923512Y-90431073D01*
X130898742Y-90436000D01*
X130721258Y-90436000D01*
X130696488Y-90431073D01*
X130547188Y-90401376D01*
X130383216Y-90333456D01*
X130235646Y-90234853D01*
X130110147Y-90109354D01*
X130011544Y-89961784D01*
X129943624Y-89797812D01*
X129909000Y-89623741D01*
X129909000Y-89446259D01*
X129943624Y-89272188D01*
X130011544Y-89108216D01*
X130110147Y-88960646D01*
X130235646Y-88835147D01*
X130383216Y-88736544D01*
X130547188Y-88668624D01*
X130696488Y-88638927D01*
X130721258Y-88634000D01*
X130898742Y-88634000D01*
X130923512Y-88638927D01*
G37*
G36*
X133463512Y-88638927D02*
G01*
X133612812Y-88668624D01*
X133776784Y-88736544D01*
X133924354Y-88835147D01*
X134049853Y-88960646D01*
X134148456Y-89108216D01*
X134216376Y-89272188D01*
X134251000Y-89446259D01*
X134251000Y-89623741D01*
X134216376Y-89797812D01*
X134148456Y-89961784D01*
X134049853Y-90109354D01*
X133924354Y-90234853D01*
X133776784Y-90333456D01*
X133612812Y-90401376D01*
X133463512Y-90431073D01*
X133438742Y-90436000D01*
X133261258Y-90436000D01*
X133236488Y-90431073D01*
X133087188Y-90401376D01*
X132923216Y-90333456D01*
X132775646Y-90234853D01*
X132650147Y-90109354D01*
X132551544Y-89961784D01*
X132483624Y-89797812D01*
X132449000Y-89623741D01*
X132449000Y-89446259D01*
X132483624Y-89272188D01*
X132551544Y-89108216D01*
X132650147Y-88960646D01*
X132775646Y-88835147D01*
X132923216Y-88736544D01*
X133087188Y-88668624D01*
X133236488Y-88638927D01*
X133261258Y-88634000D01*
X133438742Y-88634000D01*
X133463512Y-88638927D01*
G37*
G36*
X136003512Y-88638927D02*
G01*
X136152812Y-88668624D01*
X136316784Y-88736544D01*
X136464354Y-88835147D01*
X136589853Y-88960646D01*
X136688456Y-89108216D01*
X136756376Y-89272188D01*
X136791000Y-89446259D01*
X136791000Y-89623741D01*
X136756376Y-89797812D01*
X136688456Y-89961784D01*
X136589853Y-90109354D01*
X136464354Y-90234853D01*
X136316784Y-90333456D01*
X136152812Y-90401376D01*
X136003512Y-90431073D01*
X135978742Y-90436000D01*
X135801258Y-90436000D01*
X135776488Y-90431073D01*
X135627188Y-90401376D01*
X135463216Y-90333456D01*
X135315646Y-90234853D01*
X135190147Y-90109354D01*
X135091544Y-89961784D01*
X135023624Y-89797812D01*
X134989000Y-89623741D01*
X134989000Y-89446259D01*
X135023624Y-89272188D01*
X135091544Y-89108216D01*
X135190147Y-88960646D01*
X135315646Y-88835147D01*
X135463216Y-88736544D01*
X135627188Y-88668624D01*
X135776488Y-88638927D01*
X135801258Y-88634000D01*
X135978742Y-88634000D01*
X136003512Y-88638927D01*
G37*
G36*
X141083512Y-88638927D02*
G01*
X141232812Y-88668624D01*
X141396784Y-88736544D01*
X141544354Y-88835147D01*
X141669853Y-88960646D01*
X141768456Y-89108216D01*
X141836376Y-89272188D01*
X141871000Y-89446259D01*
X141871000Y-89623741D01*
X141836376Y-89797812D01*
X141768456Y-89961784D01*
X141669853Y-90109354D01*
X141544354Y-90234853D01*
X141396784Y-90333456D01*
X141232812Y-90401376D01*
X141083512Y-90431073D01*
X141058742Y-90436000D01*
X140881258Y-90436000D01*
X140856488Y-90431073D01*
X140707188Y-90401376D01*
X140543216Y-90333456D01*
X140395646Y-90234853D01*
X140270147Y-90109354D01*
X140171544Y-89961784D01*
X140103624Y-89797812D01*
X140069000Y-89623741D01*
X140069000Y-89446259D01*
X140103624Y-89272188D01*
X140171544Y-89108216D01*
X140270147Y-88960646D01*
X140395646Y-88835147D01*
X140543216Y-88736544D01*
X140707188Y-88668624D01*
X140856488Y-88638927D01*
X140881258Y-88634000D01*
X141058742Y-88634000D01*
X141083512Y-88638927D01*
G37*
G36*
X143623512Y-88638927D02*
G01*
X143772812Y-88668624D01*
X143936784Y-88736544D01*
X144084354Y-88835147D01*
X144209853Y-88960646D01*
X144308456Y-89108216D01*
X144376376Y-89272188D01*
X144411000Y-89446259D01*
X144411000Y-89623741D01*
X144376376Y-89797812D01*
X144308456Y-89961784D01*
X144209853Y-90109354D01*
X144084354Y-90234853D01*
X143936784Y-90333456D01*
X143772812Y-90401376D01*
X143623512Y-90431073D01*
X143598742Y-90436000D01*
X143421258Y-90436000D01*
X143396488Y-90431073D01*
X143247188Y-90401376D01*
X143083216Y-90333456D01*
X142935646Y-90234853D01*
X142810147Y-90109354D01*
X142711544Y-89961784D01*
X142643624Y-89797812D01*
X142609000Y-89623741D01*
X142609000Y-89446259D01*
X142643624Y-89272188D01*
X142711544Y-89108216D01*
X142810147Y-88960646D01*
X142935646Y-88835147D01*
X143083216Y-88736544D01*
X143247188Y-88668624D01*
X143396488Y-88638927D01*
X143421258Y-88634000D01*
X143598742Y-88634000D01*
X143623512Y-88638927D01*
G37*
G36*
X146163512Y-88638927D02*
G01*
X146312812Y-88668624D01*
X146476784Y-88736544D01*
X146624354Y-88835147D01*
X146749853Y-88960646D01*
X146848456Y-89108216D01*
X146916376Y-89272188D01*
X146951000Y-89446259D01*
X146951000Y-89623741D01*
X146916376Y-89797812D01*
X146848456Y-89961784D01*
X146749853Y-90109354D01*
X146624354Y-90234853D01*
X146476784Y-90333456D01*
X146312812Y-90401376D01*
X146163512Y-90431073D01*
X146138742Y-90436000D01*
X145961258Y-90436000D01*
X145936488Y-90431073D01*
X145787188Y-90401376D01*
X145623216Y-90333456D01*
X145475646Y-90234853D01*
X145350147Y-90109354D01*
X145251544Y-89961784D01*
X145183624Y-89797812D01*
X145149000Y-89623741D01*
X145149000Y-89446259D01*
X145183624Y-89272188D01*
X145251544Y-89108216D01*
X145350147Y-88960646D01*
X145475646Y-88835147D01*
X145623216Y-88736544D01*
X145787188Y-88668624D01*
X145936488Y-88638927D01*
X145961258Y-88634000D01*
X146138742Y-88634000D01*
X146163512Y-88638927D01*
G37*
G36*
X148703512Y-88638927D02*
G01*
X148852812Y-88668624D01*
X149016784Y-88736544D01*
X149164354Y-88835147D01*
X149289853Y-88960646D01*
X149388456Y-89108216D01*
X149456376Y-89272188D01*
X149491000Y-89446259D01*
X149491000Y-89623741D01*
X149456376Y-89797812D01*
X149388456Y-89961784D01*
X149289853Y-90109354D01*
X149164354Y-90234853D01*
X149016784Y-90333456D01*
X148852812Y-90401376D01*
X148703512Y-90431073D01*
X148678742Y-90436000D01*
X148501258Y-90436000D01*
X148476488Y-90431073D01*
X148327188Y-90401376D01*
X148163216Y-90333456D01*
X148015646Y-90234853D01*
X147890147Y-90109354D01*
X147791544Y-89961784D01*
X147723624Y-89797812D01*
X147689000Y-89623741D01*
X147689000Y-89446259D01*
X147723624Y-89272188D01*
X147791544Y-89108216D01*
X147890147Y-88960646D01*
X148015646Y-88835147D01*
X148163216Y-88736544D01*
X148327188Y-88668624D01*
X148476488Y-88638927D01*
X148501258Y-88634000D01*
X148678742Y-88634000D01*
X148703512Y-88638927D01*
G37*
G36*
X151243512Y-88638927D02*
G01*
X151392812Y-88668624D01*
X151556784Y-88736544D01*
X151704354Y-88835147D01*
X151829853Y-88960646D01*
X151928456Y-89108216D01*
X151996376Y-89272188D01*
X152031000Y-89446259D01*
X152031000Y-89623741D01*
X151996376Y-89797812D01*
X151928456Y-89961784D01*
X151829853Y-90109354D01*
X151704354Y-90234853D01*
X151556784Y-90333456D01*
X151392812Y-90401376D01*
X151243512Y-90431073D01*
X151218742Y-90436000D01*
X151041258Y-90436000D01*
X151016488Y-90431073D01*
X150867188Y-90401376D01*
X150703216Y-90333456D01*
X150555646Y-90234853D01*
X150430147Y-90109354D01*
X150331544Y-89961784D01*
X150263624Y-89797812D01*
X150229000Y-89623741D01*
X150229000Y-89446259D01*
X150263624Y-89272188D01*
X150331544Y-89108216D01*
X150430147Y-88960646D01*
X150555646Y-88835147D01*
X150703216Y-88736544D01*
X150867188Y-88668624D01*
X151016488Y-88638927D01*
X151041258Y-88634000D01*
X151218742Y-88634000D01*
X151243512Y-88638927D01*
G37*
G36*
X153783512Y-88638927D02*
G01*
X153932812Y-88668624D01*
X154096784Y-88736544D01*
X154244354Y-88835147D01*
X154369853Y-88960646D01*
X154468456Y-89108216D01*
X154536376Y-89272188D01*
X154571000Y-89446259D01*
X154571000Y-89623741D01*
X154536376Y-89797812D01*
X154468456Y-89961784D01*
X154369853Y-90109354D01*
X154244354Y-90234853D01*
X154096784Y-90333456D01*
X153932812Y-90401376D01*
X153783512Y-90431073D01*
X153758742Y-90436000D01*
X153581258Y-90436000D01*
X153556488Y-90431073D01*
X153407188Y-90401376D01*
X153243216Y-90333456D01*
X153095646Y-90234853D01*
X152970147Y-90109354D01*
X152871544Y-89961784D01*
X152803624Y-89797812D01*
X152769000Y-89623741D01*
X152769000Y-89446259D01*
X152803624Y-89272188D01*
X152871544Y-89108216D01*
X152970147Y-88960646D01*
X153095646Y-88835147D01*
X153243216Y-88736544D01*
X153407188Y-88668624D01*
X153556488Y-88638927D01*
X153581258Y-88634000D01*
X153758742Y-88634000D01*
X153783512Y-88638927D01*
G37*
G36*
X156323512Y-88638927D02*
G01*
X156472812Y-88668624D01*
X156636784Y-88736544D01*
X156784354Y-88835147D01*
X156909853Y-88960646D01*
X157008456Y-89108216D01*
X157076376Y-89272188D01*
X157111000Y-89446259D01*
X157111000Y-89623741D01*
X157076376Y-89797812D01*
X157008456Y-89961784D01*
X156909853Y-90109354D01*
X156784354Y-90234853D01*
X156636784Y-90333456D01*
X156472812Y-90401376D01*
X156323512Y-90431073D01*
X156298742Y-90436000D01*
X156121258Y-90436000D01*
X156096488Y-90431073D01*
X155947188Y-90401376D01*
X155783216Y-90333456D01*
X155635646Y-90234853D01*
X155510147Y-90109354D01*
X155411544Y-89961784D01*
X155343624Y-89797812D01*
X155309000Y-89623741D01*
X155309000Y-89446259D01*
X155343624Y-89272188D01*
X155411544Y-89108216D01*
X155510147Y-88960646D01*
X155635646Y-88835147D01*
X155783216Y-88736544D01*
X155947188Y-88668624D01*
X156096488Y-88638927D01*
X156121258Y-88634000D01*
X156298742Y-88634000D01*
X156323512Y-88638927D01*
G37*
G36*
X156323512Y-86098927D02*
G01*
X156472812Y-86128624D01*
X156636784Y-86196544D01*
X156784354Y-86295147D01*
X156909853Y-86420646D01*
X157008456Y-86568216D01*
X157076376Y-86732188D01*
X157111000Y-86906259D01*
X157111000Y-87083741D01*
X157076376Y-87257812D01*
X157008456Y-87421784D01*
X156909853Y-87569354D01*
X156784354Y-87694853D01*
X156636784Y-87793456D01*
X156472812Y-87861376D01*
X156323512Y-87891073D01*
X156298742Y-87896000D01*
X156121258Y-87896000D01*
X156096488Y-87891073D01*
X155947188Y-87861376D01*
X155783216Y-87793456D01*
X155635646Y-87694853D01*
X155510147Y-87569354D01*
X155411544Y-87421784D01*
X155343624Y-87257812D01*
X155309000Y-87083741D01*
X155309000Y-86906259D01*
X155343624Y-86732188D01*
X155411544Y-86568216D01*
X155510147Y-86420646D01*
X155635646Y-86295147D01*
X155783216Y-86196544D01*
X155947188Y-86128624D01*
X156096488Y-86098927D01*
X156121258Y-86094000D01*
X156298742Y-86094000D01*
X156323512Y-86098927D01*
G37*
G36*
X158863512Y-86098927D02*
G01*
X159012812Y-86128624D01*
X159176784Y-86196544D01*
X159324354Y-86295147D01*
X159449853Y-86420646D01*
X159548456Y-86568216D01*
X159616376Y-86732188D01*
X159651000Y-86906259D01*
X159651000Y-87083741D01*
X159616376Y-87257812D01*
X159548456Y-87421784D01*
X159449853Y-87569354D01*
X159324354Y-87694853D01*
X159176784Y-87793456D01*
X159012812Y-87861376D01*
X158863512Y-87891073D01*
X158838742Y-87896000D01*
X158661258Y-87896000D01*
X158636488Y-87891073D01*
X158487188Y-87861376D01*
X158323216Y-87793456D01*
X158175646Y-87694853D01*
X158050147Y-87569354D01*
X157951544Y-87421784D01*
X157883624Y-87257812D01*
X157849000Y-87083741D01*
X157849000Y-86906259D01*
X157883624Y-86732188D01*
X157951544Y-86568216D01*
X158050147Y-86420646D01*
X158175646Y-86295147D01*
X158323216Y-86196544D01*
X158487188Y-86128624D01*
X158636488Y-86098927D01*
X158661258Y-86094000D01*
X158838742Y-86094000D01*
X158863512Y-86098927D01*
G37*
G36*
X146163512Y-86098927D02*
G01*
X146312812Y-86128624D01*
X146476784Y-86196544D01*
X146624354Y-86295147D01*
X146749853Y-86420646D01*
X146848456Y-86568216D01*
X146916376Y-86732188D01*
X146951000Y-86906259D01*
X146951000Y-87083741D01*
X146916376Y-87257812D01*
X146848456Y-87421784D01*
X146749853Y-87569354D01*
X146624354Y-87694853D01*
X146476784Y-87793456D01*
X146312812Y-87861376D01*
X146163512Y-87891073D01*
X146138742Y-87896000D01*
X145961258Y-87896000D01*
X145936488Y-87891073D01*
X145787188Y-87861376D01*
X145623216Y-87793456D01*
X145475646Y-87694853D01*
X145350147Y-87569354D01*
X145251544Y-87421784D01*
X145183624Y-87257812D01*
X145149000Y-87083741D01*
X145149000Y-86906259D01*
X145183624Y-86732188D01*
X145251544Y-86568216D01*
X145350147Y-86420646D01*
X145475646Y-86295147D01*
X145623216Y-86196544D01*
X145787188Y-86128624D01*
X145936488Y-86098927D01*
X145961258Y-86094000D01*
X146138742Y-86094000D01*
X146163512Y-86098927D01*
G37*
G36*
X151243512Y-86098927D02*
G01*
X151392812Y-86128624D01*
X151556784Y-86196544D01*
X151704354Y-86295147D01*
X151829853Y-86420646D01*
X151928456Y-86568216D01*
X151996376Y-86732188D01*
X152031000Y-86906259D01*
X152031000Y-87083741D01*
X151996376Y-87257812D01*
X151928456Y-87421784D01*
X151829853Y-87569354D01*
X151704354Y-87694853D01*
X151556784Y-87793456D01*
X151392812Y-87861376D01*
X151243512Y-87891073D01*
X151218742Y-87896000D01*
X151041258Y-87896000D01*
X151016488Y-87891073D01*
X150867188Y-87861376D01*
X150703216Y-87793456D01*
X150555646Y-87694853D01*
X150430147Y-87569354D01*
X150331544Y-87421784D01*
X150263624Y-87257812D01*
X150229000Y-87083741D01*
X150229000Y-86906259D01*
X150263624Y-86732188D01*
X150331544Y-86568216D01*
X150430147Y-86420646D01*
X150555646Y-86295147D01*
X150703216Y-86196544D01*
X150867188Y-86128624D01*
X151016488Y-86098927D01*
X151041258Y-86094000D01*
X151218742Y-86094000D01*
X151243512Y-86098927D01*
G37*
G36*
X153783512Y-86098927D02*
G01*
X153932812Y-86128624D01*
X154096784Y-86196544D01*
X154244354Y-86295147D01*
X154369853Y-86420646D01*
X154468456Y-86568216D01*
X154536376Y-86732188D01*
X154571000Y-86906259D01*
X154571000Y-87083741D01*
X154536376Y-87257812D01*
X154468456Y-87421784D01*
X154369853Y-87569354D01*
X154244354Y-87694853D01*
X154096784Y-87793456D01*
X153932812Y-87861376D01*
X153783512Y-87891073D01*
X153758742Y-87896000D01*
X153581258Y-87896000D01*
X153556488Y-87891073D01*
X153407188Y-87861376D01*
X153243216Y-87793456D01*
X153095646Y-87694853D01*
X152970147Y-87569354D01*
X152871544Y-87421784D01*
X152803624Y-87257812D01*
X152769000Y-87083741D01*
X152769000Y-86906259D01*
X152803624Y-86732188D01*
X152871544Y-86568216D01*
X152970147Y-86420646D01*
X153095646Y-86295147D01*
X153243216Y-86196544D01*
X153407188Y-86128624D01*
X153556488Y-86098927D01*
X153581258Y-86094000D01*
X153758742Y-86094000D01*
X153783512Y-86098927D01*
G37*
G36*
X120763512Y-86098927D02*
G01*
X120912812Y-86128624D01*
X121076784Y-86196544D01*
X121224354Y-86295147D01*
X121349853Y-86420646D01*
X121448456Y-86568216D01*
X121516376Y-86732188D01*
X121551000Y-86906259D01*
X121551000Y-87083741D01*
X121516376Y-87257812D01*
X121448456Y-87421784D01*
X121349853Y-87569354D01*
X121224354Y-87694853D01*
X121076784Y-87793456D01*
X120912812Y-87861376D01*
X120763512Y-87891073D01*
X120738742Y-87896000D01*
X120561258Y-87896000D01*
X120536488Y-87891073D01*
X120387188Y-87861376D01*
X120223216Y-87793456D01*
X120075646Y-87694853D01*
X119950147Y-87569354D01*
X119851544Y-87421784D01*
X119783624Y-87257812D01*
X119749000Y-87083741D01*
X119749000Y-86906259D01*
X119783624Y-86732188D01*
X119851544Y-86568216D01*
X119950147Y-86420646D01*
X120075646Y-86295147D01*
X120223216Y-86196544D01*
X120387188Y-86128624D01*
X120536488Y-86098927D01*
X120561258Y-86094000D01*
X120738742Y-86094000D01*
X120763512Y-86098927D01*
G37*
G36*
X143623512Y-86098927D02*
G01*
X143772812Y-86128624D01*
X143936784Y-86196544D01*
X144084354Y-86295147D01*
X144209853Y-86420646D01*
X144308456Y-86568216D01*
X144376376Y-86732188D01*
X144411000Y-86906259D01*
X144411000Y-87083741D01*
X144376376Y-87257812D01*
X144308456Y-87421784D01*
X144209853Y-87569354D01*
X144084354Y-87694853D01*
X143936784Y-87793456D01*
X143772812Y-87861376D01*
X143623512Y-87891073D01*
X143598742Y-87896000D01*
X143421258Y-87896000D01*
X143396488Y-87891073D01*
X143247188Y-87861376D01*
X143083216Y-87793456D01*
X142935646Y-87694853D01*
X142810147Y-87569354D01*
X142711544Y-87421784D01*
X142643624Y-87257812D01*
X142609000Y-87083741D01*
X142609000Y-86906259D01*
X142643624Y-86732188D01*
X142711544Y-86568216D01*
X142810147Y-86420646D01*
X142935646Y-86295147D01*
X143083216Y-86196544D01*
X143247188Y-86128624D01*
X143396488Y-86098927D01*
X143421258Y-86094000D01*
X143598742Y-86094000D01*
X143623512Y-86098927D01*
G37*
G36*
X123303512Y-86098927D02*
G01*
X123452812Y-86128624D01*
X123616784Y-86196544D01*
X123764354Y-86295147D01*
X123889853Y-86420646D01*
X123988456Y-86568216D01*
X124056376Y-86732188D01*
X124091000Y-86906259D01*
X124091000Y-87083741D01*
X124056376Y-87257812D01*
X123988456Y-87421784D01*
X123889853Y-87569354D01*
X123764354Y-87694853D01*
X123616784Y-87793456D01*
X123452812Y-87861376D01*
X123303512Y-87891073D01*
X123278742Y-87896000D01*
X123101258Y-87896000D01*
X123076488Y-87891073D01*
X122927188Y-87861376D01*
X122763216Y-87793456D01*
X122615646Y-87694853D01*
X122490147Y-87569354D01*
X122391544Y-87421784D01*
X122323624Y-87257812D01*
X122289000Y-87083741D01*
X122289000Y-86906259D01*
X122323624Y-86732188D01*
X122391544Y-86568216D01*
X122490147Y-86420646D01*
X122615646Y-86295147D01*
X122763216Y-86196544D01*
X122927188Y-86128624D01*
X123076488Y-86098927D01*
X123101258Y-86094000D01*
X123278742Y-86094000D01*
X123303512Y-86098927D01*
G37*
G36*
X141083512Y-86098927D02*
G01*
X141232812Y-86128624D01*
X141396784Y-86196544D01*
X141544354Y-86295147D01*
X141669853Y-86420646D01*
X141768456Y-86568216D01*
X141836376Y-86732188D01*
X141871000Y-86906259D01*
X141871000Y-87083741D01*
X141836376Y-87257812D01*
X141768456Y-87421784D01*
X141669853Y-87569354D01*
X141544354Y-87694853D01*
X141396784Y-87793456D01*
X141232812Y-87861376D01*
X141083512Y-87891073D01*
X141058742Y-87896000D01*
X140881258Y-87896000D01*
X140856488Y-87891073D01*
X140707188Y-87861376D01*
X140543216Y-87793456D01*
X140395646Y-87694853D01*
X140270147Y-87569354D01*
X140171544Y-87421784D01*
X140103624Y-87257812D01*
X140069000Y-87083741D01*
X140069000Y-86906259D01*
X140103624Y-86732188D01*
X140171544Y-86568216D01*
X140270147Y-86420646D01*
X140395646Y-86295147D01*
X140543216Y-86196544D01*
X140707188Y-86128624D01*
X140856488Y-86098927D01*
X140881258Y-86094000D01*
X141058742Y-86094000D01*
X141083512Y-86098927D01*
G37*
G36*
X125843512Y-86098927D02*
G01*
X125992812Y-86128624D01*
X126156784Y-86196544D01*
X126304354Y-86295147D01*
X126429853Y-86420646D01*
X126528456Y-86568216D01*
X126596376Y-86732188D01*
X126631000Y-86906259D01*
X126631000Y-87083741D01*
X126596376Y-87257812D01*
X126528456Y-87421784D01*
X126429853Y-87569354D01*
X126304354Y-87694853D01*
X126156784Y-87793456D01*
X125992812Y-87861376D01*
X125843512Y-87891073D01*
X125818742Y-87896000D01*
X125641258Y-87896000D01*
X125616488Y-87891073D01*
X125467188Y-87861376D01*
X125303216Y-87793456D01*
X125155646Y-87694853D01*
X125030147Y-87569354D01*
X124931544Y-87421784D01*
X124863624Y-87257812D01*
X124829000Y-87083741D01*
X124829000Y-86906259D01*
X124863624Y-86732188D01*
X124931544Y-86568216D01*
X125030147Y-86420646D01*
X125155646Y-86295147D01*
X125303216Y-86196544D01*
X125467188Y-86128624D01*
X125616488Y-86098927D01*
X125641258Y-86094000D01*
X125818742Y-86094000D01*
X125843512Y-86098927D01*
G37*
G36*
X138543512Y-86098927D02*
G01*
X138692812Y-86128624D01*
X138856784Y-86196544D01*
X139004354Y-86295147D01*
X139129853Y-86420646D01*
X139228456Y-86568216D01*
X139296376Y-86732188D01*
X139331000Y-86906259D01*
X139331000Y-87083741D01*
X139296376Y-87257812D01*
X139228456Y-87421784D01*
X139129853Y-87569354D01*
X139004354Y-87694853D01*
X138856784Y-87793456D01*
X138692812Y-87861376D01*
X138543512Y-87891073D01*
X138518742Y-87896000D01*
X138341258Y-87896000D01*
X138316488Y-87891073D01*
X138167188Y-87861376D01*
X138003216Y-87793456D01*
X137855646Y-87694853D01*
X137730147Y-87569354D01*
X137631544Y-87421784D01*
X137563624Y-87257812D01*
X137529000Y-87083741D01*
X137529000Y-86906259D01*
X137563624Y-86732188D01*
X137631544Y-86568216D01*
X137730147Y-86420646D01*
X137855646Y-86295147D01*
X138003216Y-86196544D01*
X138167188Y-86128624D01*
X138316488Y-86098927D01*
X138341258Y-86094000D01*
X138518742Y-86094000D01*
X138543512Y-86098927D01*
G37*
G36*
X128383512Y-86098927D02*
G01*
X128532812Y-86128624D01*
X128696784Y-86196544D01*
X128844354Y-86295147D01*
X128969853Y-86420646D01*
X129068456Y-86568216D01*
X129136376Y-86732188D01*
X129171000Y-86906259D01*
X129171000Y-87083741D01*
X129136376Y-87257812D01*
X129068456Y-87421784D01*
X128969853Y-87569354D01*
X128844354Y-87694853D01*
X128696784Y-87793456D01*
X128532812Y-87861376D01*
X128383512Y-87891073D01*
X128358742Y-87896000D01*
X128181258Y-87896000D01*
X128156488Y-87891073D01*
X128007188Y-87861376D01*
X127843216Y-87793456D01*
X127695646Y-87694853D01*
X127570147Y-87569354D01*
X127471544Y-87421784D01*
X127403624Y-87257812D01*
X127369000Y-87083741D01*
X127369000Y-86906259D01*
X127403624Y-86732188D01*
X127471544Y-86568216D01*
X127570147Y-86420646D01*
X127695646Y-86295147D01*
X127843216Y-86196544D01*
X128007188Y-86128624D01*
X128156488Y-86098927D01*
X128181258Y-86094000D01*
X128358742Y-86094000D01*
X128383512Y-86098927D01*
G37*
G36*
X136003512Y-86098927D02*
G01*
X136152812Y-86128624D01*
X136316784Y-86196544D01*
X136464354Y-86295147D01*
X136589853Y-86420646D01*
X136688456Y-86568216D01*
X136756376Y-86732188D01*
X136791000Y-86906259D01*
X136791000Y-87083741D01*
X136756376Y-87257812D01*
X136688456Y-87421784D01*
X136589853Y-87569354D01*
X136464354Y-87694853D01*
X136316784Y-87793456D01*
X136152812Y-87861376D01*
X136003512Y-87891073D01*
X135978742Y-87896000D01*
X135801258Y-87896000D01*
X135776488Y-87891073D01*
X135627188Y-87861376D01*
X135463216Y-87793456D01*
X135315646Y-87694853D01*
X135190147Y-87569354D01*
X135091544Y-87421784D01*
X135023624Y-87257812D01*
X134989000Y-87083741D01*
X134989000Y-86906259D01*
X135023624Y-86732188D01*
X135091544Y-86568216D01*
X135190147Y-86420646D01*
X135315646Y-86295147D01*
X135463216Y-86196544D01*
X135627188Y-86128624D01*
X135776488Y-86098927D01*
X135801258Y-86094000D01*
X135978742Y-86094000D01*
X136003512Y-86098927D01*
G37*
G36*
X148703512Y-86098927D02*
G01*
X148852812Y-86128624D01*
X149016784Y-86196544D01*
X149164354Y-86295147D01*
X149289853Y-86420646D01*
X149388456Y-86568216D01*
X149456376Y-86732188D01*
X149491000Y-86906259D01*
X149491000Y-87083741D01*
X149456376Y-87257812D01*
X149388456Y-87421784D01*
X149289853Y-87569354D01*
X149164354Y-87694853D01*
X149016784Y-87793456D01*
X148852812Y-87861376D01*
X148703512Y-87891073D01*
X148678742Y-87896000D01*
X148501258Y-87896000D01*
X148476488Y-87891073D01*
X148327188Y-87861376D01*
X148163216Y-87793456D01*
X148015646Y-87694853D01*
X147890147Y-87569354D01*
X147791544Y-87421784D01*
X147723624Y-87257812D01*
X147689000Y-87083741D01*
X147689000Y-86906259D01*
X147723624Y-86732188D01*
X147791544Y-86568216D01*
X147890147Y-86420646D01*
X148015646Y-86295147D01*
X148163216Y-86196544D01*
X148327188Y-86128624D01*
X148476488Y-86098927D01*
X148501258Y-86094000D01*
X148678742Y-86094000D01*
X148703512Y-86098927D01*
G37*
G36*
X133463512Y-86098927D02*
G01*
X133612812Y-86128624D01*
X133776784Y-86196544D01*
X133924354Y-86295147D01*
X134049853Y-86420646D01*
X134148456Y-86568216D01*
X134216376Y-86732188D01*
X134251000Y-86906259D01*
X134251000Y-87083741D01*
X134216376Y-87257812D01*
X134148456Y-87421784D01*
X134049853Y-87569354D01*
X133924354Y-87694853D01*
X133776784Y-87793456D01*
X133612812Y-87861376D01*
X133463512Y-87891073D01*
X133438742Y-87896000D01*
X133261258Y-87896000D01*
X133236488Y-87891073D01*
X133087188Y-87861376D01*
X132923216Y-87793456D01*
X132775646Y-87694853D01*
X132650147Y-87569354D01*
X132551544Y-87421784D01*
X132483624Y-87257812D01*
X132449000Y-87083741D01*
X132449000Y-86906259D01*
X132483624Y-86732188D01*
X132551544Y-86568216D01*
X132650147Y-86420646D01*
X132775646Y-86295147D01*
X132923216Y-86196544D01*
X133087188Y-86128624D01*
X133236488Y-86098927D01*
X133261258Y-86094000D01*
X133438742Y-86094000D01*
X133463512Y-86098927D01*
G37*
G36*
X130923512Y-86098927D02*
G01*
X131072812Y-86128624D01*
X131236784Y-86196544D01*
X131384354Y-86295147D01*
X131509853Y-86420646D01*
X131608456Y-86568216D01*
X131676376Y-86732188D01*
X131711000Y-86906259D01*
X131711000Y-87083741D01*
X131676376Y-87257812D01*
X131608456Y-87421784D01*
X131509853Y-87569354D01*
X131384354Y-87694853D01*
X131236784Y-87793456D01*
X131072812Y-87861376D01*
X130923512Y-87891073D01*
X130898742Y-87896000D01*
X130721258Y-87896000D01*
X130696488Y-87891073D01*
X130547188Y-87861376D01*
X130383216Y-87793456D01*
X130235646Y-87694853D01*
X130110147Y-87569354D01*
X130011544Y-87421784D01*
X129943624Y-87257812D01*
X129909000Y-87083741D01*
X129909000Y-86906259D01*
X129943624Y-86732188D01*
X130011544Y-86568216D01*
X130110147Y-86420646D01*
X130235646Y-86295147D01*
X130383216Y-86196544D01*
X130547188Y-86128624D01*
X130696488Y-86098927D01*
X130721258Y-86094000D01*
X130898742Y-86094000D01*
X130923512Y-86098927D01*
G37*
M02*
