G04 #@! TF.GenerationSoftware,KiCad,Pcbnew,5.1.5-52549c5~84~ubuntu18.04.1*
G04 #@! TF.CreationDate,2020-01-08T15:02:31-08:00*
G04 #@! TF.ProjectId,Breakout,42726561-6b6f-4757-942e-6b696361645f,A*
G04 #@! TF.SameCoordinates,Original*
G04 #@! TF.FileFunction,Legend,Bot*
G04 #@! TF.FilePolarity,Positive*
%FSLAX46Y46*%
G04 Gerber Fmt 4.6, Leading zero omitted, Abs format (unit mm)*
G04 Created by KiCad (PCBNEW 5.1.5-52549c5~84~ubuntu18.04.1) date 2020-01-08 15:02:31*
%MOMM*%
%LPD*%
G04 APERTURE LIST*
%ADD10C,0.300000*%
%ADD11C,0.250000*%
G04 APERTURE END LIST*
D10*
X162721714Y-93772800D02*
X162007428Y-93772800D01*
X162864571Y-94201371D02*
X162364571Y-92701371D01*
X161864571Y-94201371D01*
X160578857Y-92772800D02*
X160721714Y-92701371D01*
X160936000Y-92701371D01*
X161150285Y-92772800D01*
X161293142Y-92915657D01*
X161364571Y-93058514D01*
X161436000Y-93344228D01*
X161436000Y-93558514D01*
X161364571Y-93844228D01*
X161293142Y-93987085D01*
X161150285Y-94129942D01*
X160936000Y-94201371D01*
X160793142Y-94201371D01*
X160578857Y-94129942D01*
X160507428Y-94058514D01*
X160507428Y-93558514D01*
X160793142Y-93558514D01*
X159364571Y-93415657D02*
X159150285Y-93487085D01*
X159078857Y-93558514D01*
X159007428Y-93701371D01*
X159007428Y-93915657D01*
X159078857Y-94058514D01*
X159150285Y-94129942D01*
X159293142Y-94201371D01*
X159864571Y-94201371D01*
X159864571Y-92701371D01*
X159364571Y-92701371D01*
X159221714Y-92772800D01*
X159150285Y-92844228D01*
X159078857Y-92987085D01*
X159078857Y-93129942D01*
X159150285Y-93272800D01*
X159221714Y-93344228D01*
X159364571Y-93415657D01*
X159864571Y-93415657D01*
X158721714Y-94344228D02*
X157578857Y-94344228D01*
X156721714Y-93415657D02*
X156507428Y-93487085D01*
X156436000Y-93558514D01*
X156364571Y-93701371D01*
X156364571Y-93915657D01*
X156436000Y-94058514D01*
X156507428Y-94129942D01*
X156650285Y-94201371D01*
X157221714Y-94201371D01*
X157221714Y-92701371D01*
X156721714Y-92701371D01*
X156578857Y-92772800D01*
X156507428Y-92844228D01*
X156436000Y-92987085D01*
X156436000Y-93129942D01*
X156507428Y-93272800D01*
X156578857Y-93344228D01*
X156721714Y-93415657D01*
X157221714Y-93415657D01*
X154864571Y-94201371D02*
X155364571Y-93487085D01*
X155721714Y-94201371D02*
X155721714Y-92701371D01*
X155150285Y-92701371D01*
X155007428Y-92772800D01*
X154936000Y-92844228D01*
X154864571Y-92987085D01*
X154864571Y-93201371D01*
X154936000Y-93344228D01*
X155007428Y-93415657D01*
X155150285Y-93487085D01*
X155721714Y-93487085D01*
X154221714Y-94201371D02*
X154221714Y-92701371D01*
X153364571Y-94201371D02*
X154007428Y-93344228D01*
X153364571Y-92701371D02*
X154221714Y-93558514D01*
X152436000Y-92701371D02*
X152150285Y-92701371D01*
X152007428Y-92772800D01*
X151864571Y-92915657D01*
X151793142Y-93201371D01*
X151793142Y-93701371D01*
X151864571Y-93987085D01*
X152007428Y-94129942D01*
X152150285Y-94201371D01*
X152436000Y-94201371D01*
X152578857Y-94129942D01*
X152721714Y-93987085D01*
X152793142Y-93701371D01*
X152793142Y-93201371D01*
X152721714Y-92915657D01*
X152578857Y-92772800D01*
X152436000Y-92701371D01*
X151150285Y-92701371D02*
X151150285Y-93915657D01*
X151078857Y-94058514D01*
X151007428Y-94129942D01*
X150864571Y-94201371D01*
X150578857Y-94201371D01*
X150436000Y-94129942D01*
X150364571Y-94058514D01*
X150293142Y-93915657D01*
X150293142Y-92701371D01*
X149793142Y-92701371D02*
X148936000Y-92701371D01*
X149364571Y-94201371D02*
X149364571Y-92701371D01*
X148793142Y-94344228D02*
X147650285Y-94344228D01*
X147364571Y-93772800D02*
X146650285Y-93772800D01*
X147507428Y-94201371D02*
X147007428Y-92701371D01*
X146507428Y-94201371D01*
X155552500Y-80750000D02*
X155073333Y-80916666D01*
X154927500Y-81083333D01*
X154802500Y-81416666D01*
X154865000Y-81916666D01*
X155073333Y-82250000D01*
X155260833Y-82416666D01*
X155615000Y-82583333D01*
X156948333Y-82583333D01*
X156510833Y-79083333D01*
X155344166Y-79083333D01*
X155031666Y-79250000D01*
X154885833Y-79416666D01*
X154760833Y-79750000D01*
X154802500Y-80083333D01*
X155010833Y-80416666D01*
X155198333Y-80583333D01*
X155552500Y-80750000D01*
X156719166Y-80750000D01*
X153448333Y-82583333D02*
X153156666Y-80250000D01*
X153240000Y-80916666D02*
X153031666Y-80583333D01*
X152844166Y-80416666D01*
X152490000Y-80250000D01*
X152156666Y-80250000D01*
X151281666Y-82583333D02*
X150990000Y-80250000D01*
X150844166Y-79083333D02*
X151031666Y-79250000D01*
X150885833Y-79416666D01*
X150698333Y-79250000D01*
X150844166Y-79083333D01*
X150885833Y-79416666D01*
X148115000Y-82583333D02*
X147885833Y-80750000D01*
X148010833Y-80416666D01*
X148323333Y-80250000D01*
X148990000Y-80250000D01*
X149344166Y-80416666D01*
X148094166Y-82416666D02*
X148448333Y-82583333D01*
X149281666Y-82583333D01*
X149594166Y-82416666D01*
X149719166Y-82083333D01*
X149677500Y-81750000D01*
X149469166Y-81416666D01*
X149115000Y-81250000D01*
X148281666Y-81250000D01*
X147927500Y-81083333D01*
X146156666Y-80250000D02*
X146448333Y-82583333D01*
X146198333Y-80583333D02*
X146010833Y-80416666D01*
X145656666Y-80250000D01*
X145156666Y-80250000D01*
X144844166Y-80416666D01*
X144719166Y-80750000D01*
X144948333Y-82583333D01*
X140760833Y-82416666D02*
X140281666Y-82583333D01*
X139448333Y-82583333D01*
X139094166Y-82416666D01*
X138906666Y-82250000D01*
X138698333Y-81916666D01*
X138656666Y-81583333D01*
X138781666Y-81250000D01*
X138927500Y-81083333D01*
X139240000Y-80916666D01*
X139885833Y-80750000D01*
X140198333Y-80583333D01*
X140344166Y-80416666D01*
X140469166Y-80083333D01*
X140427500Y-79750000D01*
X140219166Y-79416666D01*
X140031666Y-79250000D01*
X139677500Y-79083333D01*
X138844166Y-79083333D01*
X138365000Y-79250000D01*
X134615000Y-82583333D02*
X134177500Y-79083333D01*
X134385833Y-80750000D02*
X132385833Y-80750000D01*
X132615000Y-82583333D02*
X132177500Y-79083333D01*
X130448333Y-82583333D02*
X130760833Y-82416666D01*
X130906666Y-82250000D01*
X131031666Y-81916666D01*
X130906666Y-80916666D01*
X130698333Y-80583333D01*
X130510833Y-80416666D01*
X130156666Y-80250000D01*
X129656666Y-80250000D01*
X129344166Y-80416666D01*
X129198333Y-80583333D01*
X129073333Y-80916666D01*
X129198333Y-81916666D01*
X129406666Y-82250000D01*
X129594166Y-82416666D01*
X129948333Y-82583333D01*
X130448333Y-82583333D01*
X127490000Y-80250000D02*
X127781666Y-82583333D01*
X127531666Y-80583333D02*
X127344166Y-80416666D01*
X126990000Y-80250000D01*
X126490000Y-80250000D01*
X126177500Y-80416666D01*
X126052500Y-80750000D01*
X126281666Y-82583333D01*
X122823333Y-80250000D02*
X123177500Y-83083333D01*
X123385833Y-83416666D01*
X123573333Y-83583333D01*
X123927500Y-83750000D01*
X124427500Y-83750000D01*
X124740000Y-83583333D01*
X123094166Y-82416666D02*
X123448333Y-82583333D01*
X124115000Y-82583333D01*
X124427500Y-82416666D01*
X124573333Y-82250000D01*
X124698333Y-81916666D01*
X124573333Y-80916666D01*
X124365000Y-80583333D01*
X124177500Y-80416666D01*
X123823333Y-80250000D01*
X123156666Y-80250000D01*
X122844166Y-80416666D01*
D11*
X152485714Y-98228571D02*
X152628571Y-98085714D01*
X152914285Y-97942857D01*
X153200000Y-97942857D01*
X153485714Y-98085714D01*
X153628571Y-98228571D01*
X153771428Y-98514285D01*
X153771428Y-98800000D01*
X153628571Y-99085714D01*
X153485714Y-99228571D01*
X153200000Y-99371428D01*
X152914285Y-99371428D01*
X152628571Y-99228571D01*
X152485714Y-99085714D01*
X152485714Y-97942857D02*
X152485714Y-99085714D01*
X152342857Y-99228571D01*
X152200000Y-99228571D01*
X151914285Y-99085714D01*
X151771428Y-98800000D01*
X151771428Y-98085714D01*
X152057142Y-97657142D01*
X152485714Y-97371428D01*
X153057142Y-97228571D01*
X153628571Y-97371428D01*
X154057142Y-97657142D01*
X154342857Y-98085714D01*
X154485714Y-98657142D01*
X154342857Y-99228571D01*
X154057142Y-99657142D01*
X153628571Y-99942857D01*
X153057142Y-100085714D01*
X152485714Y-99942857D01*
X152057142Y-99657142D01*
X150485714Y-99657142D02*
X150485714Y-97657142D01*
X150485714Y-96657142D02*
X150628571Y-96800000D01*
X150485714Y-96942857D01*
X150342857Y-96800000D01*
X150485714Y-96657142D01*
X150485714Y-96942857D01*
X149057142Y-99657142D02*
X149057142Y-97657142D01*
X149057142Y-97942857D02*
X148914285Y-97800000D01*
X148628571Y-97657142D01*
X148200000Y-97657142D01*
X147914285Y-97800000D01*
X147771428Y-98085714D01*
X147771428Y-99657142D01*
X147771428Y-98085714D02*
X147628571Y-97800000D01*
X147342857Y-97657142D01*
X146914285Y-97657142D01*
X146628571Y-97800000D01*
X146485714Y-98085714D01*
X146485714Y-99657142D01*
X145771428Y-99942857D02*
X143485714Y-99942857D01*
X141628571Y-99514285D02*
X141914285Y-99657142D01*
X142485714Y-99657142D01*
X142771428Y-99514285D01*
X142914285Y-99228571D01*
X142914285Y-98085714D01*
X142771428Y-97800000D01*
X142485714Y-97657142D01*
X141914285Y-97657142D01*
X141628571Y-97800000D01*
X141485714Y-98085714D01*
X141485714Y-98371428D01*
X142914285Y-98657142D01*
X140200000Y-97657142D02*
X140200000Y-99657142D01*
X140200000Y-97942857D02*
X140057142Y-97800000D01*
X139771428Y-97657142D01*
X139342857Y-97657142D01*
X139057142Y-97800000D01*
X138914285Y-98085714D01*
X138914285Y-99657142D01*
X137485714Y-99657142D02*
X137485714Y-97657142D01*
X137485714Y-96657142D02*
X137628571Y-96800000D01*
X137485714Y-96942857D01*
X137342857Y-96800000D01*
X137485714Y-96657142D01*
X137485714Y-96942857D01*
X136057142Y-97657142D02*
X136057142Y-99657142D01*
X136057142Y-97942857D02*
X135914285Y-97800000D01*
X135628571Y-97657142D01*
X135200000Y-97657142D01*
X134914285Y-97800000D01*
X134771428Y-98085714D01*
X134771428Y-99657142D01*
X132057142Y-97657142D02*
X132057142Y-100085714D01*
X132199999Y-100371428D01*
X132342857Y-100514285D01*
X132628571Y-100657142D01*
X133057142Y-100657142D01*
X133342857Y-100514285D01*
X132057142Y-99514285D02*
X132342857Y-99657142D01*
X132914285Y-99657142D01*
X133199999Y-99514285D01*
X133342857Y-99371428D01*
X133485714Y-99085714D01*
X133485714Y-98228571D01*
X133342857Y-97942857D01*
X133199999Y-97800000D01*
X132914285Y-97657142D01*
X132342857Y-97657142D01*
X132057142Y-97800000D01*
X129485714Y-99514285D02*
X129771428Y-99657142D01*
X130342857Y-99657142D01*
X130628571Y-99514285D01*
X130771428Y-99228571D01*
X130771428Y-98085714D01*
X130628571Y-97800000D01*
X130342857Y-97657142D01*
X129771428Y-97657142D01*
X129485714Y-97800000D01*
X129342857Y-98085714D01*
X129342857Y-98371428D01*
X130771428Y-98657142D01*
X126914285Y-99514285D02*
X127199999Y-99657142D01*
X127771428Y-99657142D01*
X128057142Y-99514285D01*
X128199999Y-99228571D01*
X128199999Y-98085714D01*
X128057142Y-97800000D01*
X127771428Y-97657142D01*
X127199999Y-97657142D01*
X126914285Y-97800000D01*
X126771428Y-98085714D01*
X126771428Y-98371428D01*
X128199999Y-98657142D01*
X125485714Y-99657142D02*
X125485714Y-97657142D01*
X125485714Y-98228571D02*
X125342857Y-97942857D01*
X125199999Y-97800000D01*
X124914285Y-97657142D01*
X124628571Y-97657142D01*
M02*
