M48
INCH,TZ
T1C0.0394
%
G90
G05
T1
X47500Y-25650
X47500Y-26650
X48500Y-25650
X48500Y-26650
X49500Y-25650
X49500Y-26650
X50500Y-25650
X50500Y-26650
X51500Y-25650
X51500Y-26650
X52500Y-25650
X52500Y-26650
X53500Y-25650
X53500Y-26650
X54500Y-25650
X54500Y-26650
X55500Y-25650
X55500Y-26650
X56500Y-25650
X56500Y-26650
X57500Y-25650
X57500Y-26650
X58500Y-25650
X58500Y-26650
X59500Y-25650
X59500Y-26650
X60500Y-25650
X60500Y-26650
X61500Y-25650
X61500Y-26650
X62500Y-25650
X62500Y-26650
T0
M30
