G04 #@! TF.GenerationSoftware,KiCad,Pcbnew,5.1.5-52549c5~84~ubuntu18.04.1*
G04 #@! TF.CreationDate,2020-01-09T22:12:06-08:00*
G04 #@! TF.ProjectId,Breakout,42726561-6b6f-4757-942e-6b696361645f,A*
G04 #@! TF.SameCoordinates,Original*
G04 #@! TF.FileFunction,Legend,Top*
G04 #@! TF.FilePolarity,Positive*
%FSLAX46Y46*%
G04 Gerber Fmt 4.6, Leading zero omitted, Abs format (unit mm)*
G04 Created by KiCad (PCBNEW 5.1.5-52549c5~84~ubuntu18.04.1) date 2020-01-09 22:12:06*
%MOMM*%
%LPD*%
G04 APERTURE LIST*
%ADD10C,0.150000*%
%ADD11C,0.100000*%
%ADD12C,0.010000*%
%ADD13C,0.120000*%
G04 APERTURE END LIST*
D10*
X116094047Y-75382380D02*
X115760714Y-74906190D01*
X115522619Y-75382380D02*
X115522619Y-74382380D01*
X115903571Y-74382380D01*
X115998809Y-74430000D01*
X116046428Y-74477619D01*
X116094047Y-74572857D01*
X116094047Y-74715714D01*
X116046428Y-74810952D01*
X115998809Y-74858571D01*
X115903571Y-74906190D01*
X115522619Y-74906190D01*
X116903571Y-75334761D02*
X116808333Y-75382380D01*
X116617857Y-75382380D01*
X116522619Y-75334761D01*
X116475000Y-75239523D01*
X116475000Y-74858571D01*
X116522619Y-74763333D01*
X116617857Y-74715714D01*
X116808333Y-74715714D01*
X116903571Y-74763333D01*
X116951190Y-74858571D01*
X116951190Y-74953809D01*
X116475000Y-75049047D01*
X117284523Y-74715714D02*
X117522619Y-75382380D01*
X117760714Y-74715714D01*
X119236904Y-74858571D02*
X119379761Y-74906190D01*
X119427380Y-74953809D01*
X119475000Y-75049047D01*
X119475000Y-75191904D01*
X119427380Y-75287142D01*
X119379761Y-75334761D01*
X119284523Y-75382380D01*
X118903571Y-75382380D01*
X118903571Y-74382380D01*
X119236904Y-74382380D01*
X119332142Y-74430000D01*
X119379761Y-74477619D01*
X119427380Y-74572857D01*
X119427380Y-74668095D01*
X119379761Y-74763333D01*
X119332142Y-74810952D01*
X119236904Y-74858571D01*
X118903571Y-74858571D01*
X115903714Y-73080571D02*
X116046571Y-73128190D01*
X116094190Y-73175809D01*
X116141809Y-73271047D01*
X116141809Y-73413904D01*
X116094190Y-73509142D01*
X116046571Y-73556761D01*
X115951333Y-73604380D01*
X115570380Y-73604380D01*
X115570380Y-72604380D01*
X115903714Y-72604380D01*
X115998952Y-72652000D01*
X116046571Y-72699619D01*
X116094190Y-72794857D01*
X116094190Y-72890095D01*
X116046571Y-72985333D01*
X115998952Y-73032952D01*
X115903714Y-73080571D01*
X115570380Y-73080571D01*
X116570380Y-73604380D02*
X116570380Y-72937714D01*
X116570380Y-73128190D02*
X116618000Y-73032952D01*
X116665619Y-72985333D01*
X116760857Y-72937714D01*
X116856095Y-72937714D01*
X117570380Y-73556761D02*
X117475142Y-73604380D01*
X117284666Y-73604380D01*
X117189428Y-73556761D01*
X117141809Y-73461523D01*
X117141809Y-73080571D01*
X117189428Y-72985333D01*
X117284666Y-72937714D01*
X117475142Y-72937714D01*
X117570380Y-72985333D01*
X117618000Y-73080571D01*
X117618000Y-73175809D01*
X117141809Y-73271047D01*
X118475142Y-73604380D02*
X118475142Y-73080571D01*
X118427523Y-72985333D01*
X118332285Y-72937714D01*
X118141809Y-72937714D01*
X118046571Y-72985333D01*
X118475142Y-73556761D02*
X118379904Y-73604380D01*
X118141809Y-73604380D01*
X118046571Y-73556761D01*
X117998952Y-73461523D01*
X117998952Y-73366285D01*
X118046571Y-73271047D01*
X118141809Y-73223428D01*
X118379904Y-73223428D01*
X118475142Y-73175809D01*
X118951333Y-73604380D02*
X118951333Y-72604380D01*
X119046571Y-73223428D02*
X119332285Y-73604380D01*
X119332285Y-72937714D02*
X118951333Y-73318666D01*
X119903714Y-73604380D02*
X119808476Y-73556761D01*
X119760857Y-73509142D01*
X119713238Y-73413904D01*
X119713238Y-73128190D01*
X119760857Y-73032952D01*
X119808476Y-72985333D01*
X119903714Y-72937714D01*
X120046571Y-72937714D01*
X120141809Y-72985333D01*
X120189428Y-73032952D01*
X120237047Y-73128190D01*
X120237047Y-73413904D01*
X120189428Y-73509142D01*
X120141809Y-73556761D01*
X120046571Y-73604380D01*
X119903714Y-73604380D01*
X121094190Y-72937714D02*
X121094190Y-73604380D01*
X120665619Y-72937714D02*
X120665619Y-73461523D01*
X120713238Y-73556761D01*
X120808476Y-73604380D01*
X120951333Y-73604380D01*
X121046571Y-73556761D01*
X121094190Y-73509142D01*
X121427523Y-72937714D02*
X121808476Y-72937714D01*
X121570380Y-72604380D02*
X121570380Y-73461523D01*
X121618000Y-73556761D01*
X121713238Y-73604380D01*
X121808476Y-73604380D01*
X115728904Y-71540666D02*
X116205095Y-71540666D01*
X115633666Y-71826380D02*
X115967000Y-70826380D01*
X116300333Y-71826380D01*
X117157476Y-70874000D02*
X117062238Y-70826380D01*
X116919380Y-70826380D01*
X116776523Y-70874000D01*
X116681285Y-70969238D01*
X116633666Y-71064476D01*
X116586047Y-71254952D01*
X116586047Y-71397809D01*
X116633666Y-71588285D01*
X116681285Y-71683523D01*
X116776523Y-71778761D01*
X116919380Y-71826380D01*
X117014619Y-71826380D01*
X117157476Y-71778761D01*
X117205095Y-71731142D01*
X117205095Y-71397809D01*
X117014619Y-71397809D01*
X117967000Y-71302571D02*
X118109857Y-71350190D01*
X118157476Y-71397809D01*
X118205095Y-71493047D01*
X118205095Y-71635904D01*
X118157476Y-71731142D01*
X118109857Y-71778761D01*
X118014619Y-71826380D01*
X117633666Y-71826380D01*
X117633666Y-70826380D01*
X117967000Y-70826380D01*
X118062238Y-70874000D01*
X118109857Y-70921619D01*
X118157476Y-71016857D01*
X118157476Y-71112095D01*
X118109857Y-71207333D01*
X118062238Y-71254952D01*
X117967000Y-71302571D01*
X117633666Y-71302571D01*
D11*
X162077476Y-87357000D02*
X162001285Y-87318904D01*
X161887000Y-87318904D01*
X161772714Y-87357000D01*
X161696523Y-87433190D01*
X161658428Y-87509380D01*
X161620333Y-87661761D01*
X161620333Y-87776047D01*
X161658428Y-87928428D01*
X161696523Y-88004619D01*
X161772714Y-88080809D01*
X161887000Y-88118904D01*
X161963190Y-88118904D01*
X162077476Y-88080809D01*
X162115571Y-88042714D01*
X162115571Y-87776047D01*
X161963190Y-87776047D01*
X162458428Y-88118904D02*
X162458428Y-87318904D01*
X162915571Y-88118904D01*
X162915571Y-87318904D01*
X163296523Y-88118904D02*
X163296523Y-87318904D01*
X163487000Y-87318904D01*
X163601285Y-87357000D01*
X163677476Y-87433190D01*
X163715571Y-87509380D01*
X163753666Y-87661761D01*
X163753666Y-87776047D01*
X163715571Y-87928428D01*
X163677476Y-88004619D01*
X163601285Y-88080809D01*
X163487000Y-88118904D01*
X163296523Y-88118904D01*
X116090833Y-89287404D02*
X116357500Y-90087404D01*
X116624166Y-89287404D01*
X116890833Y-90087404D02*
X116890833Y-89287404D01*
X117081309Y-89287404D01*
X117195595Y-89325500D01*
X117271785Y-89401690D01*
X117309880Y-89477880D01*
X117347976Y-89630261D01*
X117347976Y-89744547D01*
X117309880Y-89896928D01*
X117271785Y-89973119D01*
X117195595Y-90049309D01*
X117081309Y-90087404D01*
X116890833Y-90087404D01*
X117690833Y-90087404D02*
X117690833Y-89287404D01*
X117881309Y-89287404D01*
X117995595Y-89325500D01*
X118071785Y-89401690D01*
X118109880Y-89477880D01*
X118147976Y-89630261D01*
X118147976Y-89744547D01*
X118109880Y-89896928D01*
X118071785Y-89973119D01*
X117995595Y-90049309D01*
X117881309Y-90087404D01*
X117690833Y-90087404D01*
D12*
G36*
X152566685Y-79963092D02*
G01*
X152590500Y-80000000D01*
X152537315Y-80051592D01*
X152463500Y-80063500D01*
X152360314Y-80036907D01*
X152336500Y-80000000D01*
X152389684Y-79948407D01*
X152463500Y-79936500D01*
X152566685Y-79963092D01*
G37*
X152566685Y-79963092D02*
X152590500Y-80000000D01*
X152537315Y-80051592D01*
X152463500Y-80063500D01*
X152360314Y-80036907D01*
X152336500Y-80000000D01*
X152389684Y-79948407D01*
X152463500Y-79936500D01*
X152566685Y-79963092D01*
G36*
X144453941Y-76825936D02*
G01*
X144790179Y-76852989D01*
X145015087Y-76934811D01*
X145133782Y-77075487D01*
X145151384Y-77279101D01*
X145133953Y-77368617D01*
X145029067Y-77534232D01*
X144816795Y-77648609D01*
X144507893Y-77707118D01*
X144331859Y-77714000D01*
X144111380Y-77707544D01*
X143997418Y-77685008D01*
X143969999Y-77641634D01*
X143973643Y-77628704D01*
X143999254Y-77521344D01*
X144030516Y-77335297D01*
X144051253Y-77184204D01*
X144096133Y-76825000D01*
X144453941Y-76825936D01*
G37*
X144453941Y-76825936D02*
X144790179Y-76852989D01*
X145015087Y-76934811D01*
X145133782Y-77075487D01*
X145151384Y-77279101D01*
X145133953Y-77368617D01*
X145029067Y-77534232D01*
X144816795Y-77648609D01*
X144507893Y-77707118D01*
X144331859Y-77714000D01*
X144111380Y-77707544D01*
X143997418Y-77685008D01*
X143969999Y-77641634D01*
X143973643Y-77628704D01*
X143999254Y-77521344D01*
X144030516Y-77335297D01*
X144051253Y-77184204D01*
X144096133Y-76825000D01*
X144453941Y-76825936D01*
G36*
X144615084Y-78734529D02*
G01*
X144799959Y-78752121D01*
X144921714Y-78788778D01*
X145012193Y-78850502D01*
X145022026Y-78859473D01*
X145140807Y-79044260D01*
X145139829Y-79252190D01*
X145039703Y-79437340D01*
X144972256Y-79507105D01*
X144886919Y-79552825D01*
X144755444Y-79580961D01*
X144549579Y-79597976D01*
X144290723Y-79608668D01*
X143663040Y-79630087D01*
X143725243Y-79180043D01*
X143787446Y-78730000D01*
X144335249Y-78730000D01*
X144615084Y-78734529D01*
G37*
X144615084Y-78734529D02*
X144799959Y-78752121D01*
X144921714Y-78788778D01*
X145012193Y-78850502D01*
X145022026Y-78859473D01*
X145140807Y-79044260D01*
X145139829Y-79252190D01*
X145039703Y-79437340D01*
X144972256Y-79507105D01*
X144886919Y-79552825D01*
X144755444Y-79580961D01*
X144549579Y-79597976D01*
X144290723Y-79608668D01*
X143663040Y-79630087D01*
X143725243Y-79180043D01*
X143787446Y-78730000D01*
X144335249Y-78730000D01*
X144615084Y-78734529D01*
G36*
X152585494Y-79799440D02*
G01*
X152741216Y-79955285D01*
X152825744Y-80085904D01*
X152833477Y-80184890D01*
X152777715Y-80304535D01*
X152638523Y-80446484D01*
X152455784Y-80500880D01*
X152274342Y-80460820D01*
X152190380Y-80394956D01*
X152093297Y-80210742D01*
X152098856Y-80061993D01*
X152278777Y-80061993D01*
X152280366Y-80142875D01*
X152290317Y-80280385D01*
X152307204Y-80322858D01*
X152316772Y-80301625D01*
X152370035Y-80207440D01*
X152406649Y-80190500D01*
X152479783Y-80241134D01*
X152504036Y-80285750D01*
X152565909Y-80373623D01*
X152613601Y-80356287D01*
X152610773Y-80261166D01*
X152614158Y-80143579D01*
X152645694Y-80100382D01*
X152694557Y-80022183D01*
X152648157Y-79938762D01*
X152532773Y-79881735D01*
X152456706Y-79873000D01*
X152341706Y-79882226D01*
X152290088Y-79933451D01*
X152278777Y-80061993D01*
X152098856Y-80061993D01*
X152100490Y-80018284D01*
X152208390Y-79859249D01*
X152238127Y-79837456D01*
X152423563Y-79760302D01*
X152585494Y-79799440D01*
G37*
X152585494Y-79799440D02*
X152741216Y-79955285D01*
X152825744Y-80085904D01*
X152833477Y-80184890D01*
X152777715Y-80304535D01*
X152638523Y-80446484D01*
X152455784Y-80500880D01*
X152274342Y-80460820D01*
X152190380Y-80394956D01*
X152093297Y-80210742D01*
X152098856Y-80061993D01*
X152278777Y-80061993D01*
X152280366Y-80142875D01*
X152290317Y-80280385D01*
X152307204Y-80322858D01*
X152316772Y-80301625D01*
X152370035Y-80207440D01*
X152406649Y-80190500D01*
X152479783Y-80241134D01*
X152504036Y-80285750D01*
X152565909Y-80373623D01*
X152613601Y-80356287D01*
X152610773Y-80261166D01*
X152614158Y-80143579D01*
X152645694Y-80100382D01*
X152694557Y-80022183D01*
X152648157Y-79938762D01*
X152532773Y-79881735D01*
X152456706Y-79873000D01*
X152341706Y-79882226D01*
X152290088Y-79933451D01*
X152278777Y-80061993D01*
X152098856Y-80061993D01*
X152100490Y-80018284D01*
X152208390Y-79859249D01*
X152238127Y-79837456D01*
X152423563Y-79760302D01*
X152585494Y-79799440D01*
G36*
X131546218Y-77745750D02*
G01*
X131590884Y-77954294D01*
X131622328Y-78111190D01*
X131632729Y-78174375D01*
X131578220Y-78204176D01*
X131438659Y-78220772D01*
X131381500Y-78222000D01*
X131222438Y-78208316D01*
X131133973Y-78174135D01*
X131127500Y-78160310D01*
X131152259Y-78073887D01*
X131216751Y-77910279D01*
X131294989Y-77731685D01*
X131462479Y-77364750D01*
X131546218Y-77745750D01*
G37*
X131546218Y-77745750D02*
X131590884Y-77954294D01*
X131622328Y-78111190D01*
X131632729Y-78174375D01*
X131578220Y-78204176D01*
X131438659Y-78220772D01*
X131381500Y-78222000D01*
X131222438Y-78208316D01*
X131133973Y-78174135D01*
X131127500Y-78160310D01*
X131152259Y-78073887D01*
X131216751Y-77910279D01*
X131294989Y-77731685D01*
X131462479Y-77364750D01*
X131546218Y-77745750D01*
G36*
X148909382Y-76815699D02*
G01*
X149130834Y-76965910D01*
X149296709Y-77194039D01*
X149406606Y-77481756D01*
X149460127Y-77810731D01*
X149456872Y-78162633D01*
X149396441Y-78519132D01*
X149278434Y-78861898D01*
X149102452Y-79172600D01*
X148868096Y-79432908D01*
X148693769Y-79560668D01*
X148476657Y-79646774D01*
X148225674Y-79682222D01*
X148218525Y-79682262D01*
X148016571Y-79663388D01*
X147861322Y-79587570D01*
X147732945Y-79473145D01*
X147531879Y-79186362D01*
X147418169Y-78831759D01*
X147399527Y-78554964D01*
X148276854Y-78554964D01*
X148298389Y-78652715D01*
X148325807Y-78666500D01*
X148387612Y-78615114D01*
X148455130Y-78499663D01*
X148509972Y-78331154D01*
X148555140Y-78111610D01*
X148565026Y-78039288D01*
X148582112Y-77866693D01*
X148574898Y-77801504D01*
X148536157Y-77825280D01*
X148498614Y-77869816D01*
X148412172Y-78015230D01*
X148341337Y-78201224D01*
X148293701Y-78392801D01*
X148276854Y-78554964D01*
X147399527Y-78554964D01*
X147391328Y-78433239D01*
X147450871Y-78014701D01*
X147596312Y-77600049D01*
X147777494Y-77282363D01*
X148034257Y-76988979D01*
X148319943Y-76816725D01*
X148632752Y-76761737D01*
X148909382Y-76815699D01*
G37*
X148909382Y-76815699D02*
X149130834Y-76965910D01*
X149296709Y-77194039D01*
X149406606Y-77481756D01*
X149460127Y-77810731D01*
X149456872Y-78162633D01*
X149396441Y-78519132D01*
X149278434Y-78861898D01*
X149102452Y-79172600D01*
X148868096Y-79432908D01*
X148693769Y-79560668D01*
X148476657Y-79646774D01*
X148225674Y-79682222D01*
X148218525Y-79682262D01*
X148016571Y-79663388D01*
X147861322Y-79587570D01*
X147732945Y-79473145D01*
X147531879Y-79186362D01*
X147418169Y-78831759D01*
X147399527Y-78554964D01*
X148276854Y-78554964D01*
X148298389Y-78652715D01*
X148325807Y-78666500D01*
X148387612Y-78615114D01*
X148455130Y-78499663D01*
X148509972Y-78331154D01*
X148555140Y-78111610D01*
X148565026Y-78039288D01*
X148582112Y-77866693D01*
X148574898Y-77801504D01*
X148536157Y-77825280D01*
X148498614Y-77869816D01*
X148412172Y-78015230D01*
X148341337Y-78201224D01*
X148293701Y-78392801D01*
X148276854Y-78554964D01*
X147399527Y-78554964D01*
X147391328Y-78433239D01*
X147450871Y-78014701D01*
X147596312Y-77600049D01*
X147777494Y-77282363D01*
X148034257Y-76988979D01*
X148319943Y-76816725D01*
X148632752Y-76761737D01*
X148909382Y-76815699D01*
G36*
X132522177Y-81790407D02*
G01*
X132882331Y-81832768D01*
X133144054Y-81912786D01*
X133320649Y-82038168D01*
X133425418Y-82216619D01*
X133471663Y-82455845D01*
X133477000Y-82604419D01*
X133455908Y-82894893D01*
X133383694Y-83119053D01*
X133246949Y-83285600D01*
X133032264Y-83403235D01*
X132726229Y-83480659D01*
X132315437Y-83526574D01*
X132032375Y-83541858D01*
X131254500Y-83573146D01*
X131254500Y-81778000D01*
X132050289Y-81778000D01*
X132522177Y-81790407D01*
G37*
X132522177Y-81790407D02*
X132882331Y-81832768D01*
X133144054Y-81912786D01*
X133320649Y-82038168D01*
X133425418Y-82216619D01*
X133471663Y-82455845D01*
X133477000Y-82604419D01*
X133455908Y-82894893D01*
X133383694Y-83119053D01*
X133246949Y-83285600D01*
X133032264Y-83403235D01*
X132726229Y-83480659D01*
X132315437Y-83526574D01*
X132032375Y-83541858D01*
X131254500Y-83573146D01*
X131254500Y-81778000D01*
X132050289Y-81778000D01*
X132522177Y-81790407D01*
G36*
X129450982Y-74810492D02*
G01*
X130037529Y-74951944D01*
X130151572Y-74992067D01*
X130345965Y-75061052D01*
X130466910Y-75084527D01*
X130559159Y-75063438D01*
X130661238Y-75002811D01*
X130767685Y-74950482D01*
X130916670Y-74913522D01*
X131132660Y-74888416D01*
X131440120Y-74871654D01*
X131615058Y-74865892D01*
X131953641Y-74858486D01*
X132195495Y-74861260D01*
X132370706Y-74877519D01*
X132509359Y-74910569D01*
X132641541Y-74963715D01*
X132682635Y-74983202D01*
X132897007Y-75108891D01*
X133043471Y-75261956D01*
X133157759Y-75484327D01*
X133196938Y-75586750D01*
X133266126Y-75777250D01*
X133341656Y-75548462D01*
X133485676Y-75268646D01*
X133712566Y-75064242D01*
X134030376Y-74931195D01*
X134447159Y-74865448D01*
X134715249Y-74856499D01*
X135148936Y-74880034D01*
X135486458Y-74954906D01*
X135750438Y-75087521D01*
X135867551Y-75182737D01*
X136005585Y-75312414D01*
X136143858Y-75174141D01*
X136318161Y-75034152D01*
X136528262Y-74939711D01*
X136799869Y-74884186D01*
X137158691Y-74860946D01*
X137364335Y-74859287D01*
X137706781Y-74870098D01*
X138004485Y-74897109D01*
X138221284Y-74936702D01*
X138260945Y-74948969D01*
X138445213Y-75000230D01*
X138592181Y-74991235D01*
X138719280Y-74946182D01*
X138851169Y-74918246D01*
X139086610Y-74895006D01*
X139402236Y-74876660D01*
X139774680Y-74863402D01*
X140180574Y-74855430D01*
X140596550Y-74852940D01*
X140999241Y-74856129D01*
X141365279Y-74865193D01*
X141671298Y-74880329D01*
X141893928Y-74901733D01*
X141981639Y-74918749D01*
X142178371Y-75007784D01*
X142364968Y-75140661D01*
X142378094Y-75152879D01*
X142489524Y-75244352D01*
X142552365Y-75266295D01*
X142557500Y-75254559D01*
X142606902Y-75179277D01*
X142729702Y-75079277D01*
X142771370Y-75052179D01*
X142855096Y-75005889D01*
X142948029Y-74971823D01*
X143070157Y-74948127D01*
X143241464Y-74932950D01*
X143481937Y-74924438D01*
X143811562Y-74920741D01*
X144197738Y-74920000D01*
X144708103Y-74924266D01*
X145113271Y-74940239D01*
X145434853Y-74972674D01*
X145694462Y-75026330D01*
X145913709Y-75105964D01*
X146114207Y-75216333D01*
X146317567Y-75362196D01*
X146360561Y-75396107D01*
X146519560Y-75517838D01*
X146637308Y-75598616D01*
X146678264Y-75618500D01*
X146746799Y-75584458D01*
X146885185Y-75496097D01*
X147028626Y-75397052D01*
X147451072Y-75140528D01*
X147869962Y-74986008D01*
X148328935Y-74920205D01*
X148605875Y-74916813D01*
X148983549Y-74924508D01*
X149280712Y-74927023D01*
X149543780Y-74923475D01*
X149819167Y-74912980D01*
X150153291Y-74894653D01*
X150328838Y-74884006D01*
X150753049Y-74868679D01*
X151079181Y-74885317D01*
X151333244Y-74938856D01*
X151541252Y-75034236D01*
X151690151Y-75142444D01*
X151813838Y-75240102D01*
X151887251Y-75260104D01*
X151956508Y-75207481D01*
X151986539Y-75174785D01*
X152176253Y-75024975D01*
X152436968Y-74925482D01*
X152784324Y-74872716D01*
X153233960Y-74863090D01*
X153332774Y-74865859D01*
X153752226Y-74894967D01*
X154067351Y-74955216D01*
X154298857Y-75055503D01*
X154467452Y-75204723D01*
X154591354Y-75406492D01*
X154651177Y-75554394D01*
X154680498Y-75699334D01*
X154673722Y-75856007D01*
X154625259Y-76039107D01*
X154529515Y-76263328D01*
X154380899Y-76543367D01*
X154173818Y-76893917D01*
X153902681Y-77329673D01*
X153794385Y-77500674D01*
X153565514Y-77862770D01*
X153362389Y-78187481D01*
X153194026Y-78460117D01*
X153069443Y-78665985D01*
X152997656Y-78790395D01*
X152983807Y-78821363D01*
X153349767Y-79118114D01*
X153611326Y-79410622D01*
X153761553Y-79689793D01*
X153797000Y-79888181D01*
X153838048Y-80030768D01*
X153976675Y-80155825D01*
X154018674Y-80181746D01*
X154219474Y-80325612D01*
X154357294Y-80495980D01*
X154442334Y-80718188D01*
X154484790Y-81017573D01*
X154495025Y-81365250D01*
X154480822Y-81759264D01*
X154432121Y-82051074D01*
X154339780Y-82262918D01*
X154194658Y-82417035D01*
X154020106Y-82520629D01*
X153797844Y-82626619D01*
X154029577Y-82757934D01*
X154228653Y-82884984D01*
X154367098Y-83019355D01*
X154455508Y-83186851D01*
X154504479Y-83413278D01*
X154524607Y-83724440D01*
X154527250Y-83969879D01*
X154527250Y-84691946D01*
X154307229Y-84918949D01*
X154122209Y-85071271D01*
X153917171Y-85185825D01*
X153846035Y-85210894D01*
X153700642Y-85230387D01*
X153436205Y-85243947D01*
X153060546Y-85251457D01*
X152581487Y-85252802D01*
X152006850Y-85247866D01*
X151684806Y-85242983D01*
X151180559Y-85235060D01*
X150697489Y-85228788D01*
X150255804Y-85224327D01*
X149875715Y-85221841D01*
X149577429Y-85221492D01*
X149381156Y-85223442D01*
X149352000Y-85224252D01*
X149088692Y-85230544D01*
X148743124Y-85234863D01*
X148341635Y-85237278D01*
X147910567Y-85237859D01*
X147476257Y-85236674D01*
X147065045Y-85233791D01*
X146703272Y-85229281D01*
X146417278Y-85223211D01*
X146240500Y-85216110D01*
X145993430Y-85211439D01*
X145688544Y-85220562D01*
X145407816Y-85240175D01*
X145109425Y-85258339D01*
X144863728Y-85241727D01*
X144639841Y-85179135D01*
X144406878Y-85059358D01*
X144133954Y-84871191D01*
X143905713Y-84695248D01*
X143351250Y-84257613D01*
X143272507Y-84521797D01*
X143126913Y-84827005D01*
X142904475Y-85064096D01*
X142631696Y-85205039D01*
X142624609Y-85207047D01*
X142478299Y-85230174D01*
X142235947Y-85249513D01*
X141928495Y-85263321D01*
X141586886Y-85269854D01*
X141504636Y-85270145D01*
X141142492Y-85268624D01*
X140880099Y-85261381D01*
X140690228Y-85244900D01*
X140545650Y-85215665D01*
X140419136Y-85170158D01*
X140303373Y-85115000D01*
X139996223Y-84959501D01*
X139800486Y-85099125D01*
X139741602Y-85138309D01*
X139677290Y-85169498D01*
X139593022Y-85193710D01*
X139474273Y-85211967D01*
X139306517Y-85225286D01*
X139075227Y-85234688D01*
X138765876Y-85241193D01*
X138363939Y-85245819D01*
X137854889Y-85249587D01*
X137637130Y-85250963D01*
X137027613Y-85253816D01*
X136531260Y-85252329D01*
X136134245Y-85243927D01*
X135822744Y-85226034D01*
X135582932Y-85196074D01*
X135400985Y-85151471D01*
X135263079Y-85089649D01*
X135155388Y-85008032D01*
X135064089Y-84904043D01*
X134975356Y-84775107D01*
X134960631Y-84752236D01*
X134857481Y-84591492D01*
X134786276Y-84480837D01*
X134768198Y-84452973D01*
X134715292Y-84474623D01*
X134601475Y-84557336D01*
X134550702Y-84598883D01*
X134345894Y-84758648D01*
X134137610Y-84889692D01*
X133910977Y-84994771D01*
X133651125Y-85076641D01*
X133343183Y-85138057D01*
X132972280Y-85181773D01*
X132523544Y-85210544D01*
X131982105Y-85227127D01*
X131333092Y-85234276D01*
X131117293Y-85234989D01*
X130578405Y-85235782D01*
X130151669Y-85235124D01*
X129822240Y-85232046D01*
X129575270Y-85225584D01*
X129395913Y-85214772D01*
X129269322Y-85198644D01*
X129180652Y-85176233D01*
X129115055Y-85146573D01*
X129057685Y-85108699D01*
X129046128Y-85100228D01*
X128858419Y-84961707D01*
X128553448Y-85116103D01*
X128445569Y-85168096D01*
X128342562Y-85206842D01*
X128224268Y-85234241D01*
X128070527Y-85252192D01*
X127861180Y-85262596D01*
X127576067Y-85267352D01*
X127195030Y-85268360D01*
X126941613Y-85268014D01*
X126435024Y-85264102D01*
X126043402Y-85254066D01*
X125754828Y-85237218D01*
X125557385Y-85212866D01*
X125441101Y-85181181D01*
X125179127Y-85007337D01*
X124985993Y-84760806D01*
X124877060Y-84473475D01*
X124873103Y-84348316D01*
X125781482Y-84348316D01*
X125852576Y-84358843D01*
X126030080Y-84367995D01*
X126293407Y-84375200D01*
X126621970Y-84379891D01*
X126981863Y-84381500D01*
X128149060Y-84381500D01*
X128111250Y-83587750D01*
X127656221Y-83569201D01*
X127201193Y-83550652D01*
X127646903Y-82743701D01*
X127805993Y-82456517D01*
X127942473Y-82211748D01*
X128045029Y-82029561D01*
X128102346Y-81930124D01*
X128110167Y-81917931D01*
X128145168Y-81964982D01*
X128233505Y-82107200D01*
X128366036Y-82329184D01*
X128533618Y-82615533D01*
X128727108Y-82950846D01*
X128826367Y-83124431D01*
X129525015Y-84349750D01*
X131231132Y-84345680D01*
X131823456Y-84342108D01*
X132305205Y-84332869D01*
X132692765Y-84315501D01*
X133002520Y-84287543D01*
X133250855Y-84246535D01*
X133454155Y-84190015D01*
X133628805Y-84115524D01*
X133791190Y-84020599D01*
X133900744Y-83944735D01*
X134160520Y-83716931D01*
X134334832Y-83458521D01*
X134439578Y-83138089D01*
X134486246Y-82787608D01*
X134524750Y-82285974D01*
X135157216Y-83336593D01*
X135789682Y-84387211D01*
X136105446Y-84368480D01*
X136421209Y-84349750D01*
X136422936Y-84346846D01*
X136969500Y-84346846D01*
X137029714Y-84357708D01*
X137197272Y-84365507D01*
X137452549Y-84369912D01*
X137775916Y-84370588D01*
X138147749Y-84367203D01*
X138160125Y-84367026D01*
X139350750Y-84349750D01*
X139350750Y-83587750D01*
X138890711Y-83569099D01*
X138430673Y-83550449D01*
X138597393Y-83219849D01*
X138710072Y-83004707D01*
X138858851Y-82731673D01*
X139015508Y-82452364D01*
X139049382Y-82393193D01*
X139334651Y-81897136D01*
X139441067Y-82075693D01*
X139505206Y-82186583D01*
X139619472Y-82387412D01*
X139772038Y-82657258D01*
X139951074Y-82975198D01*
X140144369Y-83319630D01*
X140741254Y-84385010D01*
X142398750Y-84349750D01*
X142416241Y-83348786D01*
X142433733Y-82347823D01*
X143527491Y-83226338D01*
X143943468Y-83560516D01*
X144272759Y-83823869D01*
X144528071Y-84024628D01*
X144722114Y-84171022D01*
X144867597Y-84271279D01*
X144977230Y-84333631D01*
X145063720Y-84366305D01*
X145139777Y-84377533D01*
X145218109Y-84375542D01*
X145293356Y-84369790D01*
X145573750Y-84349750D01*
X145573750Y-82667000D01*
X145891250Y-82667000D01*
X145894279Y-83157147D01*
X145907880Y-83535870D01*
X145938820Y-83818688D01*
X145993869Y-84021118D01*
X146079795Y-84158679D01*
X146203365Y-84246890D01*
X146371350Y-84301270D01*
X146590518Y-84337337D01*
X146621500Y-84341286D01*
X146818036Y-84356042D01*
X147095906Y-84363730D01*
X147430916Y-84365044D01*
X147798873Y-84360678D01*
X148175583Y-84351325D01*
X148536851Y-84337678D01*
X148858486Y-84320432D01*
X149116292Y-84300280D01*
X149286076Y-84277916D01*
X149336125Y-84263462D01*
X149514746Y-84121793D01*
X149627035Y-83913827D01*
X149682393Y-83617958D01*
X149691167Y-83449787D01*
X149997497Y-83449787D01*
X149999162Y-83795399D01*
X150003155Y-84064978D01*
X150009325Y-84240537D01*
X150016016Y-84302023D01*
X150051011Y-84326608D01*
X150142644Y-84345370D01*
X150302698Y-84358727D01*
X150542959Y-84367094D01*
X150875210Y-84370888D01*
X151311235Y-84370527D01*
X151842762Y-84366616D01*
X153638250Y-84349750D01*
X153676060Y-83556000D01*
X151003000Y-83556000D01*
X151003000Y-82984500D01*
X152527000Y-82984500D01*
X152527000Y-82222500D01*
X151003000Y-82222500D01*
X151003000Y-81778000D01*
X153606500Y-81778000D01*
X153606500Y-80950522D01*
X150018750Y-80984250D01*
X150001753Y-82602406D01*
X149998310Y-83046127D01*
X149997497Y-83449787D01*
X149691167Y-83449787D01*
X149691315Y-83446954D01*
X149701250Y-83016250D01*
X149209125Y-82997703D01*
X148717000Y-82979157D01*
X148717000Y-83492500D01*
X146875500Y-83492500D01*
X146875500Y-81778000D01*
X148717000Y-81778000D01*
X148717000Y-82222500D01*
X149733000Y-82222500D01*
X149729415Y-81952625D01*
X149682280Y-81583327D01*
X149556157Y-81290639D01*
X149395009Y-81117197D01*
X149329131Y-81073368D01*
X149253723Y-81040377D01*
X149150869Y-81016694D01*
X149002650Y-81000788D01*
X148791150Y-80991127D01*
X148498451Y-80986180D01*
X148106635Y-80984417D01*
X147839259Y-80984250D01*
X147325113Y-80986543D01*
X146922274Y-80995281D01*
X146615105Y-81013249D01*
X146387965Y-81043231D01*
X146225215Y-81088014D01*
X146111216Y-81150383D01*
X146030329Y-81233124D01*
X145979114Y-81315550D01*
X145945292Y-81415262D01*
X145920581Y-81579838D01*
X145903996Y-81824399D01*
X145894556Y-82164065D01*
X145891276Y-82613956D01*
X145891250Y-82667000D01*
X145573750Y-82667000D01*
X145573750Y-80984250D01*
X145145125Y-80965473D01*
X144716500Y-80946697D01*
X144716500Y-81933848D01*
X144714326Y-82271684D01*
X144708327Y-82559738D01*
X144699285Y-82776449D01*
X144687981Y-82900256D01*
X144680682Y-82921000D01*
X144622934Y-82883465D01*
X144479219Y-82777867D01*
X144263350Y-82614713D01*
X143989138Y-82404512D01*
X143670394Y-82157771D01*
X143387018Y-81936750D01*
X142999906Y-81634299D01*
X142698237Y-81401177D01*
X142467504Y-81228358D01*
X142293199Y-81106819D01*
X142160817Y-81027534D01*
X142055850Y-80981480D01*
X141963791Y-80959632D01*
X141870133Y-80952966D01*
X141804823Y-80952500D01*
X141480476Y-80952500D01*
X141446250Y-83686112D01*
X140628217Y-82319306D01*
X139810184Y-80952499D01*
X139380792Y-80952500D01*
X138951399Y-80952500D01*
X137960449Y-82630945D01*
X137714489Y-83048721D01*
X137490775Y-83430971D01*
X137297151Y-83764112D01*
X137141461Y-84034559D01*
X137031551Y-84228731D01*
X136975264Y-84333044D01*
X136969500Y-84346846D01*
X136422936Y-84346846D01*
X136685680Y-83905250D01*
X136879668Y-83577470D01*
X137092449Y-83214972D01*
X137314817Y-82833752D01*
X137537565Y-82449808D01*
X137751488Y-82079138D01*
X137947378Y-81737738D01*
X138116029Y-81441606D01*
X138248236Y-81206739D01*
X138334791Y-81049135D01*
X138366488Y-80984792D01*
X138366500Y-80984580D01*
X138308037Y-80969534D01*
X138152459Y-80962110D01*
X137929482Y-80963388D01*
X137848844Y-80965806D01*
X137331189Y-80984250D01*
X136765426Y-82000250D01*
X136582518Y-82326727D01*
X136418833Y-82615141D01*
X136285074Y-82846935D01*
X136191941Y-83003556D01*
X136150994Y-83065662D01*
X136105844Y-83028830D01*
X136008379Y-82897241D01*
X135868939Y-82686610D01*
X135697864Y-82412648D01*
X135505493Y-82091069D01*
X135472287Y-82034288D01*
X134842250Y-80953502D01*
X134318375Y-80953001D01*
X134036912Y-80958849D01*
X133868330Y-80983540D01*
X133798838Y-81036813D01*
X133814644Y-81128407D01*
X133892060Y-81254029D01*
X133942485Y-81331148D01*
X133936128Y-81354316D01*
X133854158Y-81321931D01*
X133685685Y-81236493D01*
X133414318Y-81127950D01*
X133069533Y-81047753D01*
X132639099Y-80994501D01*
X132110784Y-80966796D01*
X131472355Y-80963236D01*
X131318000Y-80965517D01*
X130270250Y-80984250D01*
X130253748Y-81968500D01*
X130246870Y-82341670D01*
X130239158Y-82699705D01*
X130231398Y-83009631D01*
X130224378Y-83238476D01*
X130221998Y-83298917D01*
X130206750Y-83645084D01*
X128613650Y-80984250D01*
X128186901Y-80965452D01*
X127760153Y-80946655D01*
X127534323Y-81314702D01*
X127294245Y-81709051D01*
X127046362Y-82121722D01*
X126799027Y-82538257D01*
X126560595Y-82944197D01*
X126339421Y-83325084D01*
X126143857Y-83666460D01*
X125982259Y-83953865D01*
X125862980Y-84172843D01*
X125794375Y-84308933D01*
X125781482Y-84348316D01*
X124873103Y-84348316D01*
X124867694Y-84177235D01*
X124898296Y-84054498D01*
X124950785Y-83941775D01*
X125058405Y-83739033D01*
X125210680Y-83464998D01*
X125397131Y-83138392D01*
X125607281Y-82777937D01*
X125707620Y-82608279D01*
X125920340Y-82250102D01*
X126111048Y-81928750D01*
X126270265Y-81660215D01*
X126388514Y-81460485D01*
X126456318Y-81345549D01*
X126468525Y-81324546D01*
X126428754Y-81275619D01*
X126303210Y-81182080D01*
X126116626Y-81061909D01*
X126062096Y-81029072D01*
X125580167Y-80674606D01*
X125197817Y-80245530D01*
X124920510Y-79748911D01*
X124800112Y-79396750D01*
X124746887Y-79091636D01*
X124720977Y-78711811D01*
X125618480Y-78711811D01*
X125619863Y-78732794D01*
X125705106Y-79228095D01*
X125890064Y-79650577D01*
X126178190Y-80004318D01*
X126572941Y-80293398D01*
X127077769Y-80521894D01*
X127158750Y-80549721D01*
X127406887Y-80597544D01*
X127728614Y-80612744D01*
X128075297Y-80597201D01*
X128398300Y-80552796D01*
X128619250Y-80493261D01*
X128808873Y-80420941D01*
X128964226Y-80359554D01*
X128991762Y-80348174D01*
X129071951Y-80324652D01*
X129067238Y-80375503D01*
X129037153Y-80434871D01*
X129006648Y-80501381D01*
X129017127Y-80541807D01*
X129090375Y-80562640D01*
X129248179Y-80570374D01*
X129495662Y-80571500D01*
X130027293Y-80571500D01*
X130675535Y-79174500D01*
X131807579Y-79174500D01*
X131924385Y-79874711D01*
X132041190Y-80574923D01*
X132891548Y-80557336D01*
X133741905Y-80539750D01*
X134159015Y-79269750D01*
X134576124Y-77999750D01*
X134818425Y-79142750D01*
X134897908Y-79516549D01*
X134970360Y-79855163D01*
X135030877Y-80135832D01*
X135074553Y-80335796D01*
X135095573Y-80428625D01*
X135131376Y-80512694D01*
X135208655Y-80555512D01*
X135362059Y-80570382D01*
X135467723Y-80571500D01*
X135805028Y-80571500D01*
X136364717Y-79285625D01*
X136529734Y-78904643D01*
X136678227Y-78558286D01*
X136802379Y-78265071D01*
X136894373Y-78043519D01*
X136946393Y-77912148D01*
X136954359Y-77888625D01*
X136990684Y-77790274D01*
X137022286Y-77787830D01*
X137049915Y-77886833D01*
X137074320Y-78092828D01*
X137096250Y-78411357D01*
X137116456Y-78847962D01*
X137128250Y-79174500D01*
X137174835Y-80571500D01*
X138176000Y-80571500D01*
X138257873Y-80571500D01*
X141014888Y-80571500D01*
X141022753Y-80523875D01*
X142494196Y-80523875D01*
X142554406Y-80538594D01*
X142722267Y-80551465D01*
X142978434Y-80561736D01*
X143303564Y-80568656D01*
X143678311Y-80571472D01*
X143719782Y-80571500D01*
X144145428Y-80570849D01*
X144465455Y-80567402D01*
X144701244Y-80558917D01*
X144874175Y-80543153D01*
X145005629Y-80517868D01*
X145116985Y-80480821D01*
X145229624Y-80429769D01*
X145272188Y-80408736D01*
X145649920Y-80168774D01*
X145941563Y-79875875D01*
X146136016Y-79547002D01*
X146222177Y-79199118D01*
X146214539Y-78968720D01*
X146159782Y-78744880D01*
X146053377Y-78519016D01*
X145966086Y-78387072D01*
X146377997Y-78387072D01*
X146423518Y-78894245D01*
X146552939Y-79373168D01*
X146758034Y-79802736D01*
X147030572Y-80161849D01*
X147362325Y-80429403D01*
X147438035Y-80471614D01*
X147858471Y-80620333D01*
X148314085Y-80660224D01*
X148773517Y-80590636D01*
X149018673Y-80504512D01*
X149388140Y-80283699D01*
X149733391Y-79962244D01*
X150034702Y-79566427D01*
X150272352Y-79122526D01*
X150426619Y-78656819D01*
X150435283Y-78616936D01*
X150493995Y-78094794D01*
X150456644Y-77595355D01*
X150332971Y-77131439D01*
X150132716Y-76715863D01*
X149865618Y-76361447D01*
X149541420Y-76081010D01*
X149169859Y-75887369D01*
X148760677Y-75793344D01*
X148323615Y-75811754D01*
X148306190Y-75814917D01*
X147861250Y-75959975D01*
X147446152Y-76213452D01*
X147077225Y-76557490D01*
X146770798Y-76974229D01*
X146543202Y-77445810D01*
X146424607Y-77872750D01*
X146377997Y-78387072D01*
X145966086Y-78387072D01*
X145875793Y-78250593D01*
X145854466Y-78221346D01*
X145830318Y-78142247D01*
X145866394Y-78026221D01*
X145972350Y-77846472D01*
X146009971Y-77789802D01*
X146210429Y-77412758D01*
X146286809Y-77058222D01*
X146238988Y-76721062D01*
X146066842Y-76396145D01*
X145973772Y-76280456D01*
X145817317Y-76115420D01*
X145664301Y-75993592D01*
X145492420Y-75909036D01*
X145279373Y-75855818D01*
X145002857Y-75828002D01*
X144640568Y-75819653D01*
X144255906Y-75823304D01*
X143224910Y-75840750D01*
X143173113Y-76221750D01*
X143149872Y-76380732D01*
X143109239Y-76645744D01*
X143054259Y-76997469D01*
X142987975Y-77416593D01*
X142913432Y-77883799D01*
X142833674Y-78379771D01*
X142807855Y-78539500D01*
X142730228Y-79020573D01*
X142659586Y-79461144D01*
X142598394Y-79845617D01*
X142549118Y-80158400D01*
X142514221Y-80383898D01*
X142496168Y-80506517D01*
X142494196Y-80523875D01*
X141022753Y-80523875D01*
X141087694Y-80130643D01*
X141124035Y-79901563D01*
X141150131Y-79719855D01*
X141160489Y-79623834D01*
X141160500Y-79622643D01*
X141097940Y-79591501D01*
X140913379Y-79569768D01*
X140611496Y-79557828D01*
X140345583Y-79555500D01*
X140037071Y-79553180D01*
X139777043Y-79546842D01*
X139590469Y-79537413D01*
X139502314Y-79525822D01*
X139499190Y-79524023D01*
X139491889Y-79449576D01*
X139504686Y-79287875D01*
X139529116Y-79111273D01*
X139590518Y-78730000D01*
X141083962Y-78730000D01*
X141153981Y-78327923D01*
X141204179Y-78044242D01*
X141225905Y-77852943D01*
X141201346Y-77735944D01*
X141112684Y-77675162D01*
X140942105Y-77652517D01*
X140671791Y-77649925D01*
X140486539Y-77650500D01*
X139749079Y-77650500D01*
X139791656Y-77348875D01*
X139820053Y-77140880D01*
X139850460Y-76996508D01*
X139903888Y-76904216D01*
X140001344Y-76852462D01*
X140163837Y-76829701D01*
X140412377Y-76824392D01*
X140745145Y-76825000D01*
X141095366Y-76826363D01*
X141339669Y-76820564D01*
X141498900Y-76792768D01*
X141593910Y-76728143D01*
X141645547Y-76611854D01*
X141674658Y-76429067D01*
X141702094Y-76164948D01*
X141704563Y-76142375D01*
X141744383Y-75781900D01*
X149971766Y-75781900D01*
X149985950Y-75848033D01*
X150047153Y-76010397D01*
X150147672Y-76250617D01*
X150279806Y-76550318D01*
X150435853Y-76891123D01*
X150444197Y-76909025D01*
X150608890Y-77263181D01*
X150758798Y-77587644D01*
X150884079Y-77860949D01*
X150974893Y-78061625D01*
X151020822Y-78166787D01*
X151042774Y-78263278D01*
X151045420Y-78411467D01*
X151027228Y-78629266D01*
X150986664Y-78934589D01*
X150922198Y-79345349D01*
X150917611Y-79373287D01*
X150860469Y-79725647D01*
X150811581Y-80036694D01*
X150774397Y-80283701D01*
X150752366Y-80443940D01*
X150747803Y-80492125D01*
X150792467Y-80535467D01*
X150933773Y-80561123D01*
X151185083Y-80571175D01*
X151257000Y-80571500D01*
X151545120Y-80562782D01*
X151715688Y-80537047D01*
X151765000Y-80500368D01*
X151773786Y-80414704D01*
X151797919Y-80228084D01*
X151822293Y-80050771D01*
X151975427Y-80050771D01*
X151979105Y-80245429D01*
X152109540Y-80433594D01*
X152150872Y-80470605D01*
X152347678Y-80601108D01*
X152518954Y-80621743D01*
X152699415Y-80534437D01*
X152740686Y-80503391D01*
X152872640Y-80347461D01*
X152908000Y-80154141D01*
X152857454Y-79917559D01*
X152725360Y-79754016D01*
X152541033Y-79674593D01*
X152333786Y-79690375D01*
X152132935Y-79812442D01*
X152098375Y-79848053D01*
X151975427Y-80050771D01*
X151822293Y-80050771D01*
X151834061Y-79965167D01*
X151878871Y-79650616D01*
X151896115Y-79531993D01*
X151933717Y-79271037D01*
X151966689Y-79058050D01*
X152002605Y-78876544D01*
X152049041Y-78710035D01*
X152113571Y-78542035D01*
X152203770Y-78356059D01*
X152327214Y-78135620D01*
X152491476Y-77864232D01*
X152704132Y-77525409D01*
X152972756Y-77102664D01*
X153115344Y-76878408D01*
X153319278Y-76552749D01*
X153494519Y-76263924D01*
X153631350Y-76028708D01*
X153720051Y-75863879D01*
X153750906Y-75786210D01*
X153749866Y-75783033D01*
X153673095Y-75765731D01*
X153501790Y-75752646D01*
X153268401Y-75745943D01*
X153187483Y-75745500D01*
X152662633Y-75745500D01*
X152206178Y-76476723D01*
X152035120Y-76747251D01*
X151885500Y-76977345D01*
X151771180Y-77146165D01*
X151706020Y-77232869D01*
X151699009Y-77239289D01*
X151654659Y-77195540D01*
X151573927Y-77037322D01*
X151459538Y-76770998D01*
X151314218Y-76402925D01*
X151140694Y-75939466D01*
X151133604Y-75920125D01*
X151096961Y-75834915D01*
X151044772Y-75783216D01*
X150948537Y-75756660D01*
X150779756Y-75746878D01*
X150538905Y-75745500D01*
X150291473Y-75749578D01*
X150096002Y-75760436D01*
X149984642Y-75776012D01*
X149971766Y-75781900D01*
X141744383Y-75781900D01*
X141748404Y-75745500D01*
X140410449Y-75745500D01*
X140011376Y-75747747D01*
X139656838Y-75754028D01*
X139365922Y-75763653D01*
X139157718Y-75775930D01*
X139051316Y-75790169D01*
X139041886Y-75795026D01*
X139025026Y-75866998D01*
X138991030Y-76048154D01*
X138942592Y-76322232D01*
X138882411Y-76672974D01*
X138813180Y-77084121D01*
X138737597Y-77539412D01*
X138658357Y-78022588D01*
X138578157Y-78517391D01*
X138499692Y-79007560D01*
X138425659Y-79476836D01*
X138358753Y-79908960D01*
X138347281Y-79984125D01*
X138257873Y-80571500D01*
X138176000Y-80571500D01*
X138175128Y-80269875D01*
X138172023Y-80132508D01*
X138163641Y-79886404D01*
X138150713Y-79549680D01*
X138133968Y-79140457D01*
X138114139Y-78676855D01*
X138091956Y-78176992D01*
X138080997Y-77936250D01*
X138058230Y-77438534D01*
X138037404Y-76980055D01*
X138019226Y-76576607D01*
X138004400Y-76243987D01*
X137993633Y-75997991D01*
X137987631Y-75854414D01*
X137986618Y-75824875D01*
X137944627Y-75783609D01*
X137810680Y-75758204D01*
X137570712Y-75746682D01*
X137421775Y-75745500D01*
X137086904Y-75755416D01*
X136875309Y-75785064D01*
X136793908Y-75824875D01*
X136749407Y-75906901D01*
X136665412Y-76085281D01*
X136551064Y-76339052D01*
X136415503Y-76647249D01*
X136267872Y-76988908D01*
X136117313Y-77343065D01*
X135972966Y-77688757D01*
X135852569Y-77983636D01*
X135765334Y-78171128D01*
X135692814Y-78274327D01*
X135646561Y-78280594D01*
X135636000Y-78220634D01*
X135625141Y-78133137D01*
X135595520Y-77945770D01*
X135551570Y-77683527D01*
X135497725Y-77371402D01*
X135438419Y-77034388D01*
X135378084Y-76697481D01*
X135321154Y-76385673D01*
X135272063Y-76123959D01*
X135235245Y-75937332D01*
X135216210Y-75854045D01*
X135182286Y-75796180D01*
X135106646Y-75764246D01*
X134961699Y-75753184D01*
X134719856Y-75757933D01*
X134696798Y-75758795D01*
X134212292Y-75777250D01*
X133601880Y-77650500D01*
X133406189Y-78243468D01*
X133245312Y-78714435D01*
X133119204Y-79063522D01*
X133027819Y-79290851D01*
X132971113Y-79396543D01*
X132951523Y-79396750D01*
X132930583Y-79302257D01*
X132891792Y-79100200D01*
X132838338Y-78808258D01*
X132773412Y-78444113D01*
X132700203Y-78025445D01*
X132621899Y-77569933D01*
X132620414Y-77561218D01*
X132542650Y-77109881D01*
X132470298Y-76699350D01*
X132406435Y-76346356D01*
X132354142Y-76067634D01*
X132316496Y-75879913D01*
X132296579Y-75799927D01*
X132296127Y-75799093D01*
X132221927Y-75775292D01*
X132051413Y-75756919D01*
X131815244Y-75746705D01*
X131694720Y-75745500D01*
X131126435Y-75745500D01*
X130886446Y-76269375D01*
X130792977Y-76475895D01*
X130658931Y-76775483D01*
X130494648Y-77144857D01*
X130310465Y-77560736D01*
X130116721Y-77999842D01*
X129985110Y-78299089D01*
X129807020Y-78703104D01*
X129646190Y-79065125D01*
X129509446Y-79370019D01*
X129403613Y-79602654D01*
X129335516Y-79747896D01*
X129312074Y-79791339D01*
X129317028Y-79727233D01*
X129339223Y-79563024D01*
X129375046Y-79323887D01*
X129418852Y-79047500D01*
X129465630Y-78755942D01*
X129503938Y-78511106D01*
X129529652Y-78339748D01*
X129538658Y-78269625D01*
X129479392Y-78252730D01*
X129315497Y-78238473D01*
X129069339Y-78228020D01*
X128763281Y-78222539D01*
X128626133Y-78222000D01*
X128262943Y-78220711D01*
X128006321Y-78224542D01*
X127836002Y-78245042D01*
X127731717Y-78293756D01*
X127673199Y-78382233D01*
X127640179Y-78522021D01*
X127612391Y-78724665D01*
X127601102Y-78806006D01*
X127558090Y-79104262D01*
X128301750Y-79142750D01*
X128279373Y-79333250D01*
X128247899Y-79476411D01*
X128176978Y-79561944D01*
X128039567Y-79604204D01*
X127808627Y-79617548D01*
X127742971Y-79618027D01*
X127351113Y-79570807D01*
X127041369Y-79426752D01*
X126813491Y-79185700D01*
X126691296Y-78926899D01*
X126619508Y-78524572D01*
X126663683Y-78124115D01*
X126813725Y-77742840D01*
X127059540Y-77398061D01*
X127391031Y-77107091D01*
X127798105Y-76887244D01*
X127903574Y-76847797D01*
X128137116Y-76792527D01*
X128446365Y-76753197D01*
X128790520Y-76731372D01*
X129128779Y-76728619D01*
X129420340Y-76746506D01*
X129611273Y-76782225D01*
X129703636Y-76801819D01*
X129767966Y-76778353D01*
X129813631Y-76691972D01*
X129850001Y-76522826D01*
X129886447Y-76251061D01*
X129894676Y-76181747D01*
X129936070Y-75829551D01*
X129531660Y-75740095D01*
X128890833Y-75660860D01*
X128251511Y-75700647D01*
X127632362Y-75854073D01*
X127052054Y-76115753D01*
X126529256Y-76480302D01*
X126330798Y-76663316D01*
X125986435Y-77090015D01*
X125754064Y-77570358D01*
X125631980Y-78109303D01*
X125618480Y-78711811D01*
X124720977Y-78711811D01*
X124720873Y-78710289D01*
X124721851Y-78300480D01*
X124749599Y-77909976D01*
X124803897Y-77586549D01*
X124808557Y-77568152D01*
X125028746Y-76968017D01*
X125357221Y-76420602D01*
X125783075Y-75934791D01*
X126295397Y-75519468D01*
X126883280Y-75183517D01*
X127535816Y-74935821D01*
X128222374Y-74787982D01*
X128828317Y-74753974D01*
X129450982Y-74810492D01*
G37*
X129450982Y-74810492D02*
X130037529Y-74951944D01*
X130151572Y-74992067D01*
X130345965Y-75061052D01*
X130466910Y-75084527D01*
X130559159Y-75063438D01*
X130661238Y-75002811D01*
X130767685Y-74950482D01*
X130916670Y-74913522D01*
X131132660Y-74888416D01*
X131440120Y-74871654D01*
X131615058Y-74865892D01*
X131953641Y-74858486D01*
X132195495Y-74861260D01*
X132370706Y-74877519D01*
X132509359Y-74910569D01*
X132641541Y-74963715D01*
X132682635Y-74983202D01*
X132897007Y-75108891D01*
X133043471Y-75261956D01*
X133157759Y-75484327D01*
X133196938Y-75586750D01*
X133266126Y-75777250D01*
X133341656Y-75548462D01*
X133485676Y-75268646D01*
X133712566Y-75064242D01*
X134030376Y-74931195D01*
X134447159Y-74865448D01*
X134715249Y-74856499D01*
X135148936Y-74880034D01*
X135486458Y-74954906D01*
X135750438Y-75087521D01*
X135867551Y-75182737D01*
X136005585Y-75312414D01*
X136143858Y-75174141D01*
X136318161Y-75034152D01*
X136528262Y-74939711D01*
X136799869Y-74884186D01*
X137158691Y-74860946D01*
X137364335Y-74859287D01*
X137706781Y-74870098D01*
X138004485Y-74897109D01*
X138221284Y-74936702D01*
X138260945Y-74948969D01*
X138445213Y-75000230D01*
X138592181Y-74991235D01*
X138719280Y-74946182D01*
X138851169Y-74918246D01*
X139086610Y-74895006D01*
X139402236Y-74876660D01*
X139774680Y-74863402D01*
X140180574Y-74855430D01*
X140596550Y-74852940D01*
X140999241Y-74856129D01*
X141365279Y-74865193D01*
X141671298Y-74880329D01*
X141893928Y-74901733D01*
X141981639Y-74918749D01*
X142178371Y-75007784D01*
X142364968Y-75140661D01*
X142378094Y-75152879D01*
X142489524Y-75244352D01*
X142552365Y-75266295D01*
X142557500Y-75254559D01*
X142606902Y-75179277D01*
X142729702Y-75079277D01*
X142771370Y-75052179D01*
X142855096Y-75005889D01*
X142948029Y-74971823D01*
X143070157Y-74948127D01*
X143241464Y-74932950D01*
X143481937Y-74924438D01*
X143811562Y-74920741D01*
X144197738Y-74920000D01*
X144708103Y-74924266D01*
X145113271Y-74940239D01*
X145434853Y-74972674D01*
X145694462Y-75026330D01*
X145913709Y-75105964D01*
X146114207Y-75216333D01*
X146317567Y-75362196D01*
X146360561Y-75396107D01*
X146519560Y-75517838D01*
X146637308Y-75598616D01*
X146678264Y-75618500D01*
X146746799Y-75584458D01*
X146885185Y-75496097D01*
X147028626Y-75397052D01*
X147451072Y-75140528D01*
X147869962Y-74986008D01*
X148328935Y-74920205D01*
X148605875Y-74916813D01*
X148983549Y-74924508D01*
X149280712Y-74927023D01*
X149543780Y-74923475D01*
X149819167Y-74912980D01*
X150153291Y-74894653D01*
X150328838Y-74884006D01*
X150753049Y-74868679D01*
X151079181Y-74885317D01*
X151333244Y-74938856D01*
X151541252Y-75034236D01*
X151690151Y-75142444D01*
X151813838Y-75240102D01*
X151887251Y-75260104D01*
X151956508Y-75207481D01*
X151986539Y-75174785D01*
X152176253Y-75024975D01*
X152436968Y-74925482D01*
X152784324Y-74872716D01*
X153233960Y-74863090D01*
X153332774Y-74865859D01*
X153752226Y-74894967D01*
X154067351Y-74955216D01*
X154298857Y-75055503D01*
X154467452Y-75204723D01*
X154591354Y-75406492D01*
X154651177Y-75554394D01*
X154680498Y-75699334D01*
X154673722Y-75856007D01*
X154625259Y-76039107D01*
X154529515Y-76263328D01*
X154380899Y-76543367D01*
X154173818Y-76893917D01*
X153902681Y-77329673D01*
X153794385Y-77500674D01*
X153565514Y-77862770D01*
X153362389Y-78187481D01*
X153194026Y-78460117D01*
X153069443Y-78665985D01*
X152997656Y-78790395D01*
X152983807Y-78821363D01*
X153349767Y-79118114D01*
X153611326Y-79410622D01*
X153761553Y-79689793D01*
X153797000Y-79888181D01*
X153838048Y-80030768D01*
X153976675Y-80155825D01*
X154018674Y-80181746D01*
X154219474Y-80325612D01*
X154357294Y-80495980D01*
X154442334Y-80718188D01*
X154484790Y-81017573D01*
X154495025Y-81365250D01*
X154480822Y-81759264D01*
X154432121Y-82051074D01*
X154339780Y-82262918D01*
X154194658Y-82417035D01*
X154020106Y-82520629D01*
X153797844Y-82626619D01*
X154029577Y-82757934D01*
X154228653Y-82884984D01*
X154367098Y-83019355D01*
X154455508Y-83186851D01*
X154504479Y-83413278D01*
X154524607Y-83724440D01*
X154527250Y-83969879D01*
X154527250Y-84691946D01*
X154307229Y-84918949D01*
X154122209Y-85071271D01*
X153917171Y-85185825D01*
X153846035Y-85210894D01*
X153700642Y-85230387D01*
X153436205Y-85243947D01*
X153060546Y-85251457D01*
X152581487Y-85252802D01*
X152006850Y-85247866D01*
X151684806Y-85242983D01*
X151180559Y-85235060D01*
X150697489Y-85228788D01*
X150255804Y-85224327D01*
X149875715Y-85221841D01*
X149577429Y-85221492D01*
X149381156Y-85223442D01*
X149352000Y-85224252D01*
X149088692Y-85230544D01*
X148743124Y-85234863D01*
X148341635Y-85237278D01*
X147910567Y-85237859D01*
X147476257Y-85236674D01*
X147065045Y-85233791D01*
X146703272Y-85229281D01*
X146417278Y-85223211D01*
X146240500Y-85216110D01*
X145993430Y-85211439D01*
X145688544Y-85220562D01*
X145407816Y-85240175D01*
X145109425Y-85258339D01*
X144863728Y-85241727D01*
X144639841Y-85179135D01*
X144406878Y-85059358D01*
X144133954Y-84871191D01*
X143905713Y-84695248D01*
X143351250Y-84257613D01*
X143272507Y-84521797D01*
X143126913Y-84827005D01*
X142904475Y-85064096D01*
X142631696Y-85205039D01*
X142624609Y-85207047D01*
X142478299Y-85230174D01*
X142235947Y-85249513D01*
X141928495Y-85263321D01*
X141586886Y-85269854D01*
X141504636Y-85270145D01*
X141142492Y-85268624D01*
X140880099Y-85261381D01*
X140690228Y-85244900D01*
X140545650Y-85215665D01*
X140419136Y-85170158D01*
X140303373Y-85115000D01*
X139996223Y-84959501D01*
X139800486Y-85099125D01*
X139741602Y-85138309D01*
X139677290Y-85169498D01*
X139593022Y-85193710D01*
X139474273Y-85211967D01*
X139306517Y-85225286D01*
X139075227Y-85234688D01*
X138765876Y-85241193D01*
X138363939Y-85245819D01*
X137854889Y-85249587D01*
X137637130Y-85250963D01*
X137027613Y-85253816D01*
X136531260Y-85252329D01*
X136134245Y-85243927D01*
X135822744Y-85226034D01*
X135582932Y-85196074D01*
X135400985Y-85151471D01*
X135263079Y-85089649D01*
X135155388Y-85008032D01*
X135064089Y-84904043D01*
X134975356Y-84775107D01*
X134960631Y-84752236D01*
X134857481Y-84591492D01*
X134786276Y-84480837D01*
X134768198Y-84452973D01*
X134715292Y-84474623D01*
X134601475Y-84557336D01*
X134550702Y-84598883D01*
X134345894Y-84758648D01*
X134137610Y-84889692D01*
X133910977Y-84994771D01*
X133651125Y-85076641D01*
X133343183Y-85138057D01*
X132972280Y-85181773D01*
X132523544Y-85210544D01*
X131982105Y-85227127D01*
X131333092Y-85234276D01*
X131117293Y-85234989D01*
X130578405Y-85235782D01*
X130151669Y-85235124D01*
X129822240Y-85232046D01*
X129575270Y-85225584D01*
X129395913Y-85214772D01*
X129269322Y-85198644D01*
X129180652Y-85176233D01*
X129115055Y-85146573D01*
X129057685Y-85108699D01*
X129046128Y-85100228D01*
X128858419Y-84961707D01*
X128553448Y-85116103D01*
X128445569Y-85168096D01*
X128342562Y-85206842D01*
X128224268Y-85234241D01*
X128070527Y-85252192D01*
X127861180Y-85262596D01*
X127576067Y-85267352D01*
X127195030Y-85268360D01*
X126941613Y-85268014D01*
X126435024Y-85264102D01*
X126043402Y-85254066D01*
X125754828Y-85237218D01*
X125557385Y-85212866D01*
X125441101Y-85181181D01*
X125179127Y-85007337D01*
X124985993Y-84760806D01*
X124877060Y-84473475D01*
X124873103Y-84348316D01*
X125781482Y-84348316D01*
X125852576Y-84358843D01*
X126030080Y-84367995D01*
X126293407Y-84375200D01*
X126621970Y-84379891D01*
X126981863Y-84381500D01*
X128149060Y-84381500D01*
X128111250Y-83587750D01*
X127656221Y-83569201D01*
X127201193Y-83550652D01*
X127646903Y-82743701D01*
X127805993Y-82456517D01*
X127942473Y-82211748D01*
X128045029Y-82029561D01*
X128102346Y-81930124D01*
X128110167Y-81917931D01*
X128145168Y-81964982D01*
X128233505Y-82107200D01*
X128366036Y-82329184D01*
X128533618Y-82615533D01*
X128727108Y-82950846D01*
X128826367Y-83124431D01*
X129525015Y-84349750D01*
X131231132Y-84345680D01*
X131823456Y-84342108D01*
X132305205Y-84332869D01*
X132692765Y-84315501D01*
X133002520Y-84287543D01*
X133250855Y-84246535D01*
X133454155Y-84190015D01*
X133628805Y-84115524D01*
X133791190Y-84020599D01*
X133900744Y-83944735D01*
X134160520Y-83716931D01*
X134334832Y-83458521D01*
X134439578Y-83138089D01*
X134486246Y-82787608D01*
X134524750Y-82285974D01*
X135157216Y-83336593D01*
X135789682Y-84387211D01*
X136105446Y-84368480D01*
X136421209Y-84349750D01*
X136422936Y-84346846D01*
X136969500Y-84346846D01*
X137029714Y-84357708D01*
X137197272Y-84365507D01*
X137452549Y-84369912D01*
X137775916Y-84370588D01*
X138147749Y-84367203D01*
X138160125Y-84367026D01*
X139350750Y-84349750D01*
X139350750Y-83587750D01*
X138890711Y-83569099D01*
X138430673Y-83550449D01*
X138597393Y-83219849D01*
X138710072Y-83004707D01*
X138858851Y-82731673D01*
X139015508Y-82452364D01*
X139049382Y-82393193D01*
X139334651Y-81897136D01*
X139441067Y-82075693D01*
X139505206Y-82186583D01*
X139619472Y-82387412D01*
X139772038Y-82657258D01*
X139951074Y-82975198D01*
X140144369Y-83319630D01*
X140741254Y-84385010D01*
X142398750Y-84349750D01*
X142416241Y-83348786D01*
X142433733Y-82347823D01*
X143527491Y-83226338D01*
X143943468Y-83560516D01*
X144272759Y-83823869D01*
X144528071Y-84024628D01*
X144722114Y-84171022D01*
X144867597Y-84271279D01*
X144977230Y-84333631D01*
X145063720Y-84366305D01*
X145139777Y-84377533D01*
X145218109Y-84375542D01*
X145293356Y-84369790D01*
X145573750Y-84349750D01*
X145573750Y-82667000D01*
X145891250Y-82667000D01*
X145894279Y-83157147D01*
X145907880Y-83535870D01*
X145938820Y-83818688D01*
X145993869Y-84021118D01*
X146079795Y-84158679D01*
X146203365Y-84246890D01*
X146371350Y-84301270D01*
X146590518Y-84337337D01*
X146621500Y-84341286D01*
X146818036Y-84356042D01*
X147095906Y-84363730D01*
X147430916Y-84365044D01*
X147798873Y-84360678D01*
X148175583Y-84351325D01*
X148536851Y-84337678D01*
X148858486Y-84320432D01*
X149116292Y-84300280D01*
X149286076Y-84277916D01*
X149336125Y-84263462D01*
X149514746Y-84121793D01*
X149627035Y-83913827D01*
X149682393Y-83617958D01*
X149691167Y-83449787D01*
X149997497Y-83449787D01*
X149999162Y-83795399D01*
X150003155Y-84064978D01*
X150009325Y-84240537D01*
X150016016Y-84302023D01*
X150051011Y-84326608D01*
X150142644Y-84345370D01*
X150302698Y-84358727D01*
X150542959Y-84367094D01*
X150875210Y-84370888D01*
X151311235Y-84370527D01*
X151842762Y-84366616D01*
X153638250Y-84349750D01*
X153676060Y-83556000D01*
X151003000Y-83556000D01*
X151003000Y-82984500D01*
X152527000Y-82984500D01*
X152527000Y-82222500D01*
X151003000Y-82222500D01*
X151003000Y-81778000D01*
X153606500Y-81778000D01*
X153606500Y-80950522D01*
X150018750Y-80984250D01*
X150001753Y-82602406D01*
X149998310Y-83046127D01*
X149997497Y-83449787D01*
X149691167Y-83449787D01*
X149691315Y-83446954D01*
X149701250Y-83016250D01*
X149209125Y-82997703D01*
X148717000Y-82979157D01*
X148717000Y-83492500D01*
X146875500Y-83492500D01*
X146875500Y-81778000D01*
X148717000Y-81778000D01*
X148717000Y-82222500D01*
X149733000Y-82222500D01*
X149729415Y-81952625D01*
X149682280Y-81583327D01*
X149556157Y-81290639D01*
X149395009Y-81117197D01*
X149329131Y-81073368D01*
X149253723Y-81040377D01*
X149150869Y-81016694D01*
X149002650Y-81000788D01*
X148791150Y-80991127D01*
X148498451Y-80986180D01*
X148106635Y-80984417D01*
X147839259Y-80984250D01*
X147325113Y-80986543D01*
X146922274Y-80995281D01*
X146615105Y-81013249D01*
X146387965Y-81043231D01*
X146225215Y-81088014D01*
X146111216Y-81150383D01*
X146030329Y-81233124D01*
X145979114Y-81315550D01*
X145945292Y-81415262D01*
X145920581Y-81579838D01*
X145903996Y-81824399D01*
X145894556Y-82164065D01*
X145891276Y-82613956D01*
X145891250Y-82667000D01*
X145573750Y-82667000D01*
X145573750Y-80984250D01*
X145145125Y-80965473D01*
X144716500Y-80946697D01*
X144716500Y-81933848D01*
X144714326Y-82271684D01*
X144708327Y-82559738D01*
X144699285Y-82776449D01*
X144687981Y-82900256D01*
X144680682Y-82921000D01*
X144622934Y-82883465D01*
X144479219Y-82777867D01*
X144263350Y-82614713D01*
X143989138Y-82404512D01*
X143670394Y-82157771D01*
X143387018Y-81936750D01*
X142999906Y-81634299D01*
X142698237Y-81401177D01*
X142467504Y-81228358D01*
X142293199Y-81106819D01*
X142160817Y-81027534D01*
X142055850Y-80981480D01*
X141963791Y-80959632D01*
X141870133Y-80952966D01*
X141804823Y-80952500D01*
X141480476Y-80952500D01*
X141446250Y-83686112D01*
X140628217Y-82319306D01*
X139810184Y-80952499D01*
X139380792Y-80952500D01*
X138951399Y-80952500D01*
X137960449Y-82630945D01*
X137714489Y-83048721D01*
X137490775Y-83430971D01*
X137297151Y-83764112D01*
X137141461Y-84034559D01*
X137031551Y-84228731D01*
X136975264Y-84333044D01*
X136969500Y-84346846D01*
X136422936Y-84346846D01*
X136685680Y-83905250D01*
X136879668Y-83577470D01*
X137092449Y-83214972D01*
X137314817Y-82833752D01*
X137537565Y-82449808D01*
X137751488Y-82079138D01*
X137947378Y-81737738D01*
X138116029Y-81441606D01*
X138248236Y-81206739D01*
X138334791Y-81049135D01*
X138366488Y-80984792D01*
X138366500Y-80984580D01*
X138308037Y-80969534D01*
X138152459Y-80962110D01*
X137929482Y-80963388D01*
X137848844Y-80965806D01*
X137331189Y-80984250D01*
X136765426Y-82000250D01*
X136582518Y-82326727D01*
X136418833Y-82615141D01*
X136285074Y-82846935D01*
X136191941Y-83003556D01*
X136150994Y-83065662D01*
X136105844Y-83028830D01*
X136008379Y-82897241D01*
X135868939Y-82686610D01*
X135697864Y-82412648D01*
X135505493Y-82091069D01*
X135472287Y-82034288D01*
X134842250Y-80953502D01*
X134318375Y-80953001D01*
X134036912Y-80958849D01*
X133868330Y-80983540D01*
X133798838Y-81036813D01*
X133814644Y-81128407D01*
X133892060Y-81254029D01*
X133942485Y-81331148D01*
X133936128Y-81354316D01*
X133854158Y-81321931D01*
X133685685Y-81236493D01*
X133414318Y-81127950D01*
X133069533Y-81047753D01*
X132639099Y-80994501D01*
X132110784Y-80966796D01*
X131472355Y-80963236D01*
X131318000Y-80965517D01*
X130270250Y-80984250D01*
X130253748Y-81968500D01*
X130246870Y-82341670D01*
X130239158Y-82699705D01*
X130231398Y-83009631D01*
X130224378Y-83238476D01*
X130221998Y-83298917D01*
X130206750Y-83645084D01*
X128613650Y-80984250D01*
X128186901Y-80965452D01*
X127760153Y-80946655D01*
X127534323Y-81314702D01*
X127294245Y-81709051D01*
X127046362Y-82121722D01*
X126799027Y-82538257D01*
X126560595Y-82944197D01*
X126339421Y-83325084D01*
X126143857Y-83666460D01*
X125982259Y-83953865D01*
X125862980Y-84172843D01*
X125794375Y-84308933D01*
X125781482Y-84348316D01*
X124873103Y-84348316D01*
X124867694Y-84177235D01*
X124898296Y-84054498D01*
X124950785Y-83941775D01*
X125058405Y-83739033D01*
X125210680Y-83464998D01*
X125397131Y-83138392D01*
X125607281Y-82777937D01*
X125707620Y-82608279D01*
X125920340Y-82250102D01*
X126111048Y-81928750D01*
X126270265Y-81660215D01*
X126388514Y-81460485D01*
X126456318Y-81345549D01*
X126468525Y-81324546D01*
X126428754Y-81275619D01*
X126303210Y-81182080D01*
X126116626Y-81061909D01*
X126062096Y-81029072D01*
X125580167Y-80674606D01*
X125197817Y-80245530D01*
X124920510Y-79748911D01*
X124800112Y-79396750D01*
X124746887Y-79091636D01*
X124720977Y-78711811D01*
X125618480Y-78711811D01*
X125619863Y-78732794D01*
X125705106Y-79228095D01*
X125890064Y-79650577D01*
X126178190Y-80004318D01*
X126572941Y-80293398D01*
X127077769Y-80521894D01*
X127158750Y-80549721D01*
X127406887Y-80597544D01*
X127728614Y-80612744D01*
X128075297Y-80597201D01*
X128398300Y-80552796D01*
X128619250Y-80493261D01*
X128808873Y-80420941D01*
X128964226Y-80359554D01*
X128991762Y-80348174D01*
X129071951Y-80324652D01*
X129067238Y-80375503D01*
X129037153Y-80434871D01*
X129006648Y-80501381D01*
X129017127Y-80541807D01*
X129090375Y-80562640D01*
X129248179Y-80570374D01*
X129495662Y-80571500D01*
X130027293Y-80571500D01*
X130675535Y-79174500D01*
X131807579Y-79174500D01*
X131924385Y-79874711D01*
X132041190Y-80574923D01*
X132891548Y-80557336D01*
X133741905Y-80539750D01*
X134159015Y-79269750D01*
X134576124Y-77999750D01*
X134818425Y-79142750D01*
X134897908Y-79516549D01*
X134970360Y-79855163D01*
X135030877Y-80135832D01*
X135074553Y-80335796D01*
X135095573Y-80428625D01*
X135131376Y-80512694D01*
X135208655Y-80555512D01*
X135362059Y-80570382D01*
X135467723Y-80571500D01*
X135805028Y-80571500D01*
X136364717Y-79285625D01*
X136529734Y-78904643D01*
X136678227Y-78558286D01*
X136802379Y-78265071D01*
X136894373Y-78043519D01*
X136946393Y-77912148D01*
X136954359Y-77888625D01*
X136990684Y-77790274D01*
X137022286Y-77787830D01*
X137049915Y-77886833D01*
X137074320Y-78092828D01*
X137096250Y-78411357D01*
X137116456Y-78847962D01*
X137128250Y-79174500D01*
X137174835Y-80571500D01*
X138176000Y-80571500D01*
X138257873Y-80571500D01*
X141014888Y-80571500D01*
X141022753Y-80523875D01*
X142494196Y-80523875D01*
X142554406Y-80538594D01*
X142722267Y-80551465D01*
X142978434Y-80561736D01*
X143303564Y-80568656D01*
X143678311Y-80571472D01*
X143719782Y-80571500D01*
X144145428Y-80570849D01*
X144465455Y-80567402D01*
X144701244Y-80558917D01*
X144874175Y-80543153D01*
X145005629Y-80517868D01*
X145116985Y-80480821D01*
X145229624Y-80429769D01*
X145272188Y-80408736D01*
X145649920Y-80168774D01*
X145941563Y-79875875D01*
X146136016Y-79547002D01*
X146222177Y-79199118D01*
X146214539Y-78968720D01*
X146159782Y-78744880D01*
X146053377Y-78519016D01*
X145966086Y-78387072D01*
X146377997Y-78387072D01*
X146423518Y-78894245D01*
X146552939Y-79373168D01*
X146758034Y-79802736D01*
X147030572Y-80161849D01*
X147362325Y-80429403D01*
X147438035Y-80471614D01*
X147858471Y-80620333D01*
X148314085Y-80660224D01*
X148773517Y-80590636D01*
X149018673Y-80504512D01*
X149388140Y-80283699D01*
X149733391Y-79962244D01*
X150034702Y-79566427D01*
X150272352Y-79122526D01*
X150426619Y-78656819D01*
X150435283Y-78616936D01*
X150493995Y-78094794D01*
X150456644Y-77595355D01*
X150332971Y-77131439D01*
X150132716Y-76715863D01*
X149865618Y-76361447D01*
X149541420Y-76081010D01*
X149169859Y-75887369D01*
X148760677Y-75793344D01*
X148323615Y-75811754D01*
X148306190Y-75814917D01*
X147861250Y-75959975D01*
X147446152Y-76213452D01*
X147077225Y-76557490D01*
X146770798Y-76974229D01*
X146543202Y-77445810D01*
X146424607Y-77872750D01*
X146377997Y-78387072D01*
X145966086Y-78387072D01*
X145875793Y-78250593D01*
X145854466Y-78221346D01*
X145830318Y-78142247D01*
X145866394Y-78026221D01*
X145972350Y-77846472D01*
X146009971Y-77789802D01*
X146210429Y-77412758D01*
X146286809Y-77058222D01*
X146238988Y-76721062D01*
X146066842Y-76396145D01*
X145973772Y-76280456D01*
X145817317Y-76115420D01*
X145664301Y-75993592D01*
X145492420Y-75909036D01*
X145279373Y-75855818D01*
X145002857Y-75828002D01*
X144640568Y-75819653D01*
X144255906Y-75823304D01*
X143224910Y-75840750D01*
X143173113Y-76221750D01*
X143149872Y-76380732D01*
X143109239Y-76645744D01*
X143054259Y-76997469D01*
X142987975Y-77416593D01*
X142913432Y-77883799D01*
X142833674Y-78379771D01*
X142807855Y-78539500D01*
X142730228Y-79020573D01*
X142659586Y-79461144D01*
X142598394Y-79845617D01*
X142549118Y-80158400D01*
X142514221Y-80383898D01*
X142496168Y-80506517D01*
X142494196Y-80523875D01*
X141022753Y-80523875D01*
X141087694Y-80130643D01*
X141124035Y-79901563D01*
X141150131Y-79719855D01*
X141160489Y-79623834D01*
X141160500Y-79622643D01*
X141097940Y-79591501D01*
X140913379Y-79569768D01*
X140611496Y-79557828D01*
X140345583Y-79555500D01*
X140037071Y-79553180D01*
X139777043Y-79546842D01*
X139590469Y-79537413D01*
X139502314Y-79525822D01*
X139499190Y-79524023D01*
X139491889Y-79449576D01*
X139504686Y-79287875D01*
X139529116Y-79111273D01*
X139590518Y-78730000D01*
X141083962Y-78730000D01*
X141153981Y-78327923D01*
X141204179Y-78044242D01*
X141225905Y-77852943D01*
X141201346Y-77735944D01*
X141112684Y-77675162D01*
X140942105Y-77652517D01*
X140671791Y-77649925D01*
X140486539Y-77650500D01*
X139749079Y-77650500D01*
X139791656Y-77348875D01*
X139820053Y-77140880D01*
X139850460Y-76996508D01*
X139903888Y-76904216D01*
X140001344Y-76852462D01*
X140163837Y-76829701D01*
X140412377Y-76824392D01*
X140745145Y-76825000D01*
X141095366Y-76826363D01*
X141339669Y-76820564D01*
X141498900Y-76792768D01*
X141593910Y-76728143D01*
X141645547Y-76611854D01*
X141674658Y-76429067D01*
X141702094Y-76164948D01*
X141704563Y-76142375D01*
X141744383Y-75781900D01*
X149971766Y-75781900D01*
X149985950Y-75848033D01*
X150047153Y-76010397D01*
X150147672Y-76250617D01*
X150279806Y-76550318D01*
X150435853Y-76891123D01*
X150444197Y-76909025D01*
X150608890Y-77263181D01*
X150758798Y-77587644D01*
X150884079Y-77860949D01*
X150974893Y-78061625D01*
X151020822Y-78166787D01*
X151042774Y-78263278D01*
X151045420Y-78411467D01*
X151027228Y-78629266D01*
X150986664Y-78934589D01*
X150922198Y-79345349D01*
X150917611Y-79373287D01*
X150860469Y-79725647D01*
X150811581Y-80036694D01*
X150774397Y-80283701D01*
X150752366Y-80443940D01*
X150747803Y-80492125D01*
X150792467Y-80535467D01*
X150933773Y-80561123D01*
X151185083Y-80571175D01*
X151257000Y-80571500D01*
X151545120Y-80562782D01*
X151715688Y-80537047D01*
X151765000Y-80500368D01*
X151773786Y-80414704D01*
X151797919Y-80228084D01*
X151822293Y-80050771D01*
X151975427Y-80050771D01*
X151979105Y-80245429D01*
X152109540Y-80433594D01*
X152150872Y-80470605D01*
X152347678Y-80601108D01*
X152518954Y-80621743D01*
X152699415Y-80534437D01*
X152740686Y-80503391D01*
X152872640Y-80347461D01*
X152908000Y-80154141D01*
X152857454Y-79917559D01*
X152725360Y-79754016D01*
X152541033Y-79674593D01*
X152333786Y-79690375D01*
X152132935Y-79812442D01*
X152098375Y-79848053D01*
X151975427Y-80050771D01*
X151822293Y-80050771D01*
X151834061Y-79965167D01*
X151878871Y-79650616D01*
X151896115Y-79531993D01*
X151933717Y-79271037D01*
X151966689Y-79058050D01*
X152002605Y-78876544D01*
X152049041Y-78710035D01*
X152113571Y-78542035D01*
X152203770Y-78356059D01*
X152327214Y-78135620D01*
X152491476Y-77864232D01*
X152704132Y-77525409D01*
X152972756Y-77102664D01*
X153115344Y-76878408D01*
X153319278Y-76552749D01*
X153494519Y-76263924D01*
X153631350Y-76028708D01*
X153720051Y-75863879D01*
X153750906Y-75786210D01*
X153749866Y-75783033D01*
X153673095Y-75765731D01*
X153501790Y-75752646D01*
X153268401Y-75745943D01*
X153187483Y-75745500D01*
X152662633Y-75745500D01*
X152206178Y-76476723D01*
X152035120Y-76747251D01*
X151885500Y-76977345D01*
X151771180Y-77146165D01*
X151706020Y-77232869D01*
X151699009Y-77239289D01*
X151654659Y-77195540D01*
X151573927Y-77037322D01*
X151459538Y-76770998D01*
X151314218Y-76402925D01*
X151140694Y-75939466D01*
X151133604Y-75920125D01*
X151096961Y-75834915D01*
X151044772Y-75783216D01*
X150948537Y-75756660D01*
X150779756Y-75746878D01*
X150538905Y-75745500D01*
X150291473Y-75749578D01*
X150096002Y-75760436D01*
X149984642Y-75776012D01*
X149971766Y-75781900D01*
X141744383Y-75781900D01*
X141748404Y-75745500D01*
X140410449Y-75745500D01*
X140011376Y-75747747D01*
X139656838Y-75754028D01*
X139365922Y-75763653D01*
X139157718Y-75775930D01*
X139051316Y-75790169D01*
X139041886Y-75795026D01*
X139025026Y-75866998D01*
X138991030Y-76048154D01*
X138942592Y-76322232D01*
X138882411Y-76672974D01*
X138813180Y-77084121D01*
X138737597Y-77539412D01*
X138658357Y-78022588D01*
X138578157Y-78517391D01*
X138499692Y-79007560D01*
X138425659Y-79476836D01*
X138358753Y-79908960D01*
X138347281Y-79984125D01*
X138257873Y-80571500D01*
X138176000Y-80571500D01*
X138175128Y-80269875D01*
X138172023Y-80132508D01*
X138163641Y-79886404D01*
X138150713Y-79549680D01*
X138133968Y-79140457D01*
X138114139Y-78676855D01*
X138091956Y-78176992D01*
X138080997Y-77936250D01*
X138058230Y-77438534D01*
X138037404Y-76980055D01*
X138019226Y-76576607D01*
X138004400Y-76243987D01*
X137993633Y-75997991D01*
X137987631Y-75854414D01*
X137986618Y-75824875D01*
X137944627Y-75783609D01*
X137810680Y-75758204D01*
X137570712Y-75746682D01*
X137421775Y-75745500D01*
X137086904Y-75755416D01*
X136875309Y-75785064D01*
X136793908Y-75824875D01*
X136749407Y-75906901D01*
X136665412Y-76085281D01*
X136551064Y-76339052D01*
X136415503Y-76647249D01*
X136267872Y-76988908D01*
X136117313Y-77343065D01*
X135972966Y-77688757D01*
X135852569Y-77983636D01*
X135765334Y-78171128D01*
X135692814Y-78274327D01*
X135646561Y-78280594D01*
X135636000Y-78220634D01*
X135625141Y-78133137D01*
X135595520Y-77945770D01*
X135551570Y-77683527D01*
X135497725Y-77371402D01*
X135438419Y-77034388D01*
X135378084Y-76697481D01*
X135321154Y-76385673D01*
X135272063Y-76123959D01*
X135235245Y-75937332D01*
X135216210Y-75854045D01*
X135182286Y-75796180D01*
X135106646Y-75764246D01*
X134961699Y-75753184D01*
X134719856Y-75757933D01*
X134696798Y-75758795D01*
X134212292Y-75777250D01*
X133601880Y-77650500D01*
X133406189Y-78243468D01*
X133245312Y-78714435D01*
X133119204Y-79063522D01*
X133027819Y-79290851D01*
X132971113Y-79396543D01*
X132951523Y-79396750D01*
X132930583Y-79302257D01*
X132891792Y-79100200D01*
X132838338Y-78808258D01*
X132773412Y-78444113D01*
X132700203Y-78025445D01*
X132621899Y-77569933D01*
X132620414Y-77561218D01*
X132542650Y-77109881D01*
X132470298Y-76699350D01*
X132406435Y-76346356D01*
X132354142Y-76067634D01*
X132316496Y-75879913D01*
X132296579Y-75799927D01*
X132296127Y-75799093D01*
X132221927Y-75775292D01*
X132051413Y-75756919D01*
X131815244Y-75746705D01*
X131694720Y-75745500D01*
X131126435Y-75745500D01*
X130886446Y-76269375D01*
X130792977Y-76475895D01*
X130658931Y-76775483D01*
X130494648Y-77144857D01*
X130310465Y-77560736D01*
X130116721Y-77999842D01*
X129985110Y-78299089D01*
X129807020Y-78703104D01*
X129646190Y-79065125D01*
X129509446Y-79370019D01*
X129403613Y-79602654D01*
X129335516Y-79747896D01*
X129312074Y-79791339D01*
X129317028Y-79727233D01*
X129339223Y-79563024D01*
X129375046Y-79323887D01*
X129418852Y-79047500D01*
X129465630Y-78755942D01*
X129503938Y-78511106D01*
X129529652Y-78339748D01*
X129538658Y-78269625D01*
X129479392Y-78252730D01*
X129315497Y-78238473D01*
X129069339Y-78228020D01*
X128763281Y-78222539D01*
X128626133Y-78222000D01*
X128262943Y-78220711D01*
X128006321Y-78224542D01*
X127836002Y-78245042D01*
X127731717Y-78293756D01*
X127673199Y-78382233D01*
X127640179Y-78522021D01*
X127612391Y-78724665D01*
X127601102Y-78806006D01*
X127558090Y-79104262D01*
X128301750Y-79142750D01*
X128279373Y-79333250D01*
X128247899Y-79476411D01*
X128176978Y-79561944D01*
X128039567Y-79604204D01*
X127808627Y-79617548D01*
X127742971Y-79618027D01*
X127351113Y-79570807D01*
X127041369Y-79426752D01*
X126813491Y-79185700D01*
X126691296Y-78926899D01*
X126619508Y-78524572D01*
X126663683Y-78124115D01*
X126813725Y-77742840D01*
X127059540Y-77398061D01*
X127391031Y-77107091D01*
X127798105Y-76887244D01*
X127903574Y-76847797D01*
X128137116Y-76792527D01*
X128446365Y-76753197D01*
X128790520Y-76731372D01*
X129128779Y-76728619D01*
X129420340Y-76746506D01*
X129611273Y-76782225D01*
X129703636Y-76801819D01*
X129767966Y-76778353D01*
X129813631Y-76691972D01*
X129850001Y-76522826D01*
X129886447Y-76251061D01*
X129894676Y-76181747D01*
X129936070Y-75829551D01*
X129531660Y-75740095D01*
X128890833Y-75660860D01*
X128251511Y-75700647D01*
X127632362Y-75854073D01*
X127052054Y-76115753D01*
X126529256Y-76480302D01*
X126330798Y-76663316D01*
X125986435Y-77090015D01*
X125754064Y-77570358D01*
X125631980Y-78109303D01*
X125618480Y-78711811D01*
X124720977Y-78711811D01*
X124720873Y-78710289D01*
X124721851Y-78300480D01*
X124749599Y-77909976D01*
X124803897Y-77586549D01*
X124808557Y-77568152D01*
X125028746Y-76968017D01*
X125357221Y-76420602D01*
X125783075Y-75934791D01*
X126295397Y-75519468D01*
X126883280Y-75183517D01*
X127535816Y-74935821D01*
X128222374Y-74787982D01*
X128828317Y-74753974D01*
X129450982Y-74810492D01*
D13*
X119380000Y-68961000D02*
X119380000Y-67691000D01*
X120650000Y-68961000D02*
X119380000Y-68961000D01*
X159130000Y-66648071D02*
X159130000Y-66193929D01*
X158370000Y-66648071D02*
X158370000Y-66193929D01*
X159130000Y-64108071D02*
X159130000Y-63711000D01*
X158370000Y-64108071D02*
X158370000Y-63711000D01*
X159130000Y-55051000D02*
X159130000Y-61051000D01*
X158370000Y-55051000D02*
X159130000Y-55051000D01*
X158370000Y-61051000D02*
X158370000Y-55051000D01*
X157480000Y-63711000D02*
X157480000Y-61051000D01*
X156590000Y-66648071D02*
X156590000Y-66193929D01*
X155830000Y-66648071D02*
X155830000Y-66193929D01*
X156590000Y-64108071D02*
X156590000Y-63711000D01*
X155830000Y-64108071D02*
X155830000Y-63711000D01*
X156590000Y-55051000D02*
X156590000Y-61051000D01*
X155830000Y-55051000D02*
X156590000Y-55051000D01*
X155830000Y-61051000D02*
X155830000Y-55051000D01*
X154940000Y-63711000D02*
X154940000Y-61051000D01*
X154050000Y-66648071D02*
X154050000Y-66193929D01*
X153290000Y-66648071D02*
X153290000Y-66193929D01*
X154050000Y-64108071D02*
X154050000Y-63711000D01*
X153290000Y-64108071D02*
X153290000Y-63711000D01*
X154050000Y-55051000D02*
X154050000Y-61051000D01*
X153290000Y-55051000D02*
X154050000Y-55051000D01*
X153290000Y-61051000D02*
X153290000Y-55051000D01*
X152400000Y-63711000D02*
X152400000Y-61051000D01*
X151510000Y-66648071D02*
X151510000Y-66193929D01*
X150750000Y-66648071D02*
X150750000Y-66193929D01*
X151510000Y-64108071D02*
X151510000Y-63711000D01*
X150750000Y-64108071D02*
X150750000Y-63711000D01*
X151510000Y-55051000D02*
X151510000Y-61051000D01*
X150750000Y-55051000D02*
X151510000Y-55051000D01*
X150750000Y-61051000D02*
X150750000Y-55051000D01*
X149860000Y-63711000D02*
X149860000Y-61051000D01*
X148970000Y-66648071D02*
X148970000Y-66193929D01*
X148210000Y-66648071D02*
X148210000Y-66193929D01*
X148970000Y-64108071D02*
X148970000Y-63711000D01*
X148210000Y-64108071D02*
X148210000Y-63711000D01*
X148970000Y-55051000D02*
X148970000Y-61051000D01*
X148210000Y-55051000D02*
X148970000Y-55051000D01*
X148210000Y-61051000D02*
X148210000Y-55051000D01*
X147320000Y-63711000D02*
X147320000Y-61051000D01*
X146430000Y-66648071D02*
X146430000Y-66193929D01*
X145670000Y-66648071D02*
X145670000Y-66193929D01*
X146430000Y-64108071D02*
X146430000Y-63711000D01*
X145670000Y-64108071D02*
X145670000Y-63711000D01*
X146430000Y-55051000D02*
X146430000Y-61051000D01*
X145670000Y-55051000D02*
X146430000Y-55051000D01*
X145670000Y-61051000D02*
X145670000Y-55051000D01*
X144780000Y-63711000D02*
X144780000Y-61051000D01*
X143890000Y-66648071D02*
X143890000Y-66193929D01*
X143130000Y-66648071D02*
X143130000Y-66193929D01*
X143890000Y-64108071D02*
X143890000Y-63711000D01*
X143130000Y-64108071D02*
X143130000Y-63711000D01*
X143890000Y-55051000D02*
X143890000Y-61051000D01*
X143130000Y-55051000D02*
X143890000Y-55051000D01*
X143130000Y-61051000D02*
X143130000Y-55051000D01*
X142240000Y-63711000D02*
X142240000Y-61051000D01*
X141350000Y-66648071D02*
X141350000Y-66193929D01*
X140590000Y-66648071D02*
X140590000Y-66193929D01*
X141350000Y-64108071D02*
X141350000Y-63711000D01*
X140590000Y-64108071D02*
X140590000Y-63711000D01*
X141350000Y-55051000D02*
X141350000Y-61051000D01*
X140590000Y-55051000D02*
X141350000Y-55051000D01*
X140590000Y-61051000D02*
X140590000Y-55051000D01*
X139700000Y-63711000D02*
X139700000Y-61051000D01*
X138810000Y-66648071D02*
X138810000Y-66193929D01*
X138050000Y-66648071D02*
X138050000Y-66193929D01*
X138810000Y-64108071D02*
X138810000Y-63711000D01*
X138050000Y-64108071D02*
X138050000Y-63711000D01*
X138810000Y-55051000D02*
X138810000Y-61051000D01*
X138050000Y-55051000D02*
X138810000Y-55051000D01*
X138050000Y-61051000D02*
X138050000Y-55051000D01*
X137160000Y-63711000D02*
X137160000Y-61051000D01*
X136270000Y-66648071D02*
X136270000Y-66193929D01*
X135510000Y-66648071D02*
X135510000Y-66193929D01*
X136270000Y-64108071D02*
X136270000Y-63711000D01*
X135510000Y-64108071D02*
X135510000Y-63711000D01*
X136270000Y-55051000D02*
X136270000Y-61051000D01*
X135510000Y-55051000D02*
X136270000Y-55051000D01*
X135510000Y-61051000D02*
X135510000Y-55051000D01*
X134620000Y-63711000D02*
X134620000Y-61051000D01*
X133730000Y-66648071D02*
X133730000Y-66193929D01*
X132970000Y-66648071D02*
X132970000Y-66193929D01*
X133730000Y-64108071D02*
X133730000Y-63711000D01*
X132970000Y-64108071D02*
X132970000Y-63711000D01*
X133730000Y-55051000D02*
X133730000Y-61051000D01*
X132970000Y-55051000D02*
X133730000Y-55051000D01*
X132970000Y-61051000D02*
X132970000Y-55051000D01*
X132080000Y-63711000D02*
X132080000Y-61051000D01*
X131190000Y-66648071D02*
X131190000Y-66193929D01*
X130430000Y-66648071D02*
X130430000Y-66193929D01*
X131190000Y-64108071D02*
X131190000Y-63711000D01*
X130430000Y-64108071D02*
X130430000Y-63711000D01*
X131190000Y-55051000D02*
X131190000Y-61051000D01*
X130430000Y-55051000D02*
X131190000Y-55051000D01*
X130430000Y-61051000D02*
X130430000Y-55051000D01*
X129540000Y-63711000D02*
X129540000Y-61051000D01*
X128650000Y-66648071D02*
X128650000Y-66193929D01*
X127890000Y-66648071D02*
X127890000Y-66193929D01*
X128650000Y-64108071D02*
X128650000Y-63711000D01*
X127890000Y-64108071D02*
X127890000Y-63711000D01*
X128650000Y-55051000D02*
X128650000Y-61051000D01*
X127890000Y-55051000D02*
X128650000Y-55051000D01*
X127890000Y-61051000D02*
X127890000Y-55051000D01*
X127000000Y-63711000D02*
X127000000Y-61051000D01*
X126110000Y-66648071D02*
X126110000Y-66193929D01*
X125350000Y-66648071D02*
X125350000Y-66193929D01*
X126110000Y-64108071D02*
X126110000Y-63711000D01*
X125350000Y-64108071D02*
X125350000Y-63711000D01*
X126110000Y-55051000D02*
X126110000Y-61051000D01*
X125350000Y-55051000D02*
X126110000Y-55051000D01*
X125350000Y-61051000D02*
X125350000Y-55051000D01*
X124460000Y-63711000D02*
X124460000Y-61051000D01*
X123570000Y-66648071D02*
X123570000Y-66193929D01*
X122810000Y-66648071D02*
X122810000Y-66193929D01*
X123570000Y-64108071D02*
X123570000Y-63711000D01*
X122810000Y-64108071D02*
X122810000Y-63711000D01*
X123570000Y-55051000D02*
X123570000Y-61051000D01*
X122810000Y-55051000D02*
X123570000Y-55051000D01*
X122810000Y-61051000D02*
X122810000Y-55051000D01*
X121920000Y-63711000D02*
X121920000Y-61051000D01*
X121030000Y-66581000D02*
X121030000Y-66193929D01*
X120270000Y-66581000D02*
X120270000Y-66193929D01*
X121030000Y-64108071D02*
X121030000Y-63711000D01*
X120270000Y-64108071D02*
X120270000Y-63711000D01*
X120930000Y-61051000D02*
X120930000Y-55051000D01*
X120810000Y-61051000D02*
X120810000Y-55051000D01*
X120690000Y-61051000D02*
X120690000Y-55051000D01*
X120570000Y-61051000D02*
X120570000Y-55051000D01*
X120450000Y-61051000D02*
X120450000Y-55051000D01*
X120330000Y-61051000D02*
X120330000Y-55051000D01*
X121030000Y-55051000D02*
X121030000Y-61051000D01*
X120270000Y-55051000D02*
X121030000Y-55051000D01*
X120270000Y-61051000D02*
X120270000Y-55051000D01*
X119320000Y-61051000D02*
X119320000Y-63711000D01*
X160080000Y-61051000D02*
X119320000Y-61051000D01*
X160080000Y-63711000D02*
X160080000Y-61051000D01*
X119320000Y-63711000D02*
X160080000Y-63711000D01*
M02*
