G04 #@! TF.GenerationSoftware,KiCad,Pcbnew,5.1.5-52549c5~84~ubuntu18.04.1*
G04 #@! TF.CreationDate,2020-01-09T22:12:06-08:00*
G04 #@! TF.ProjectId,Breakout,42726561-6b6f-4757-942e-6b696361645f,A*
G04 #@! TF.SameCoordinates,Original*
G04 #@! TF.FileFunction,Profile,NP*
%FSLAX46Y46*%
G04 Gerber Fmt 4.6, Leading zero omitted, Abs format (unit mm)*
G04 Created by KiCad (PCBNEW 5.1.5-52549c5~84~ubuntu18.04.1) date 2020-01-09 22:12:06*
%MOMM*%
%LPD*%
G04 APERTURE LIST*
%ADD10C,0.150000*%
G04 APERTURE END LIST*
D10*
X164200000Y-59563000D02*
G75*
G02X165200000Y-60563000I0J-1000000D01*
G01*
X114200000Y-60563000D02*
G75*
G02X115200000Y-59563000I1000000J0D01*
G01*
X165200000Y-76400000D02*
X165200000Y-60563000D01*
X115200000Y-59563000D02*
X164200000Y-59563000D01*
X114200000Y-76400000D02*
X114200000Y-60563000D01*
X163200000Y-81900000D02*
X163200000Y-83900000D01*
X165200000Y-81900000D02*
X165200000Y-76400000D01*
X165200000Y-83900000D02*
X163200000Y-83900000D01*
X165200000Y-93400000D02*
X165200000Y-83900000D01*
X164200000Y-93400000D02*
X164200000Y-100900000D01*
X165200000Y-93400000D02*
X164200000Y-93400000D01*
X163200000Y-81900000D02*
X165200000Y-81900000D01*
X163200000Y-101900000D02*
G75*
G03X164200000Y-100900000I0J1000000D01*
G01*
X116200000Y-101900000D02*
G75*
G02X115200000Y-100900000I0J1000000D01*
G01*
X114200000Y-83400000D02*
X114200000Y-76400000D01*
X116200000Y-83400000D02*
X114200000Y-83400000D01*
X116200000Y-83400000D02*
X116200000Y-85400000D01*
X114200000Y-85400000D02*
X116200000Y-85400000D01*
X114200000Y-93400000D02*
X114200000Y-85400000D01*
X114200000Y-93400000D02*
X115200000Y-93400000D01*
X115200000Y-93400000D02*
X115200000Y-100900000D01*
X116200000Y-101900000D02*
X163200000Y-101900000D01*
M02*
