G04 #@! TF.GenerationSoftware,KiCad,Pcbnew,5.1.5-52549c5~84~ubuntu18.04.1*
G04 #@! TF.CreationDate,2020-01-09T22:12:06-08:00*
G04 #@! TF.ProjectId,Breakout,42726561-6b6f-4757-942e-6b696361645f,A*
G04 #@! TF.SameCoordinates,Original*
G04 #@! TF.FileFunction,Soldermask,Bot*
G04 #@! TF.FilePolarity,Negative*
%FSLAX46Y46*%
G04 Gerber Fmt 4.6, Leading zero omitted, Abs format (unit mm)*
G04 Created by KiCad (PCBNEW 5.1.5-52549c5~84~ubuntu18.04.1) date 2020-01-09 22:12:06*
%MOMM*%
%LPD*%
G04 APERTURE LIST*
%ADD10C,0.100000*%
G04 APERTURE END LIST*
D10*
G36*
X158863512Y-66794927D02*
G01*
X159012812Y-66824624D01*
X159176784Y-66892544D01*
X159324354Y-66991147D01*
X159449853Y-67116646D01*
X159548456Y-67264216D01*
X159616376Y-67428188D01*
X159651000Y-67602259D01*
X159651000Y-67779741D01*
X159616376Y-67953812D01*
X159548456Y-68117784D01*
X159449853Y-68265354D01*
X159324354Y-68390853D01*
X159176784Y-68489456D01*
X159012812Y-68557376D01*
X158863512Y-68587073D01*
X158838742Y-68592000D01*
X158661258Y-68592000D01*
X158636488Y-68587073D01*
X158487188Y-68557376D01*
X158323216Y-68489456D01*
X158175646Y-68390853D01*
X158050147Y-68265354D01*
X157951544Y-68117784D01*
X157883624Y-67953812D01*
X157849000Y-67779741D01*
X157849000Y-67602259D01*
X157883624Y-67428188D01*
X157951544Y-67264216D01*
X158050147Y-67116646D01*
X158175646Y-66991147D01*
X158323216Y-66892544D01*
X158487188Y-66824624D01*
X158636488Y-66794927D01*
X158661258Y-66790000D01*
X158838742Y-66790000D01*
X158863512Y-66794927D01*
G37*
G36*
X138543512Y-66794927D02*
G01*
X138692812Y-66824624D01*
X138856784Y-66892544D01*
X139004354Y-66991147D01*
X139129853Y-67116646D01*
X139228456Y-67264216D01*
X139296376Y-67428188D01*
X139331000Y-67602259D01*
X139331000Y-67779741D01*
X139296376Y-67953812D01*
X139228456Y-68117784D01*
X139129853Y-68265354D01*
X139004354Y-68390853D01*
X138856784Y-68489456D01*
X138692812Y-68557376D01*
X138543512Y-68587073D01*
X138518742Y-68592000D01*
X138341258Y-68592000D01*
X138316488Y-68587073D01*
X138167188Y-68557376D01*
X138003216Y-68489456D01*
X137855646Y-68390853D01*
X137730147Y-68265354D01*
X137631544Y-68117784D01*
X137563624Y-67953812D01*
X137529000Y-67779741D01*
X137529000Y-67602259D01*
X137563624Y-67428188D01*
X137631544Y-67264216D01*
X137730147Y-67116646D01*
X137855646Y-66991147D01*
X138003216Y-66892544D01*
X138167188Y-66824624D01*
X138316488Y-66794927D01*
X138341258Y-66790000D01*
X138518742Y-66790000D01*
X138543512Y-66794927D01*
G37*
G36*
X121551000Y-68592000D02*
G01*
X119749000Y-68592000D01*
X119749000Y-66790000D01*
X121551000Y-66790000D01*
X121551000Y-68592000D01*
G37*
G36*
X123303512Y-66794927D02*
G01*
X123452812Y-66824624D01*
X123616784Y-66892544D01*
X123764354Y-66991147D01*
X123889853Y-67116646D01*
X123988456Y-67264216D01*
X124056376Y-67428188D01*
X124091000Y-67602259D01*
X124091000Y-67779741D01*
X124056376Y-67953812D01*
X123988456Y-68117784D01*
X123889853Y-68265354D01*
X123764354Y-68390853D01*
X123616784Y-68489456D01*
X123452812Y-68557376D01*
X123303512Y-68587073D01*
X123278742Y-68592000D01*
X123101258Y-68592000D01*
X123076488Y-68587073D01*
X122927188Y-68557376D01*
X122763216Y-68489456D01*
X122615646Y-68390853D01*
X122490147Y-68265354D01*
X122391544Y-68117784D01*
X122323624Y-67953812D01*
X122289000Y-67779741D01*
X122289000Y-67602259D01*
X122323624Y-67428188D01*
X122391544Y-67264216D01*
X122490147Y-67116646D01*
X122615646Y-66991147D01*
X122763216Y-66892544D01*
X122927188Y-66824624D01*
X123076488Y-66794927D01*
X123101258Y-66790000D01*
X123278742Y-66790000D01*
X123303512Y-66794927D01*
G37*
G36*
X125843512Y-66794927D02*
G01*
X125992812Y-66824624D01*
X126156784Y-66892544D01*
X126304354Y-66991147D01*
X126429853Y-67116646D01*
X126528456Y-67264216D01*
X126596376Y-67428188D01*
X126631000Y-67602259D01*
X126631000Y-67779741D01*
X126596376Y-67953812D01*
X126528456Y-68117784D01*
X126429853Y-68265354D01*
X126304354Y-68390853D01*
X126156784Y-68489456D01*
X125992812Y-68557376D01*
X125843512Y-68587073D01*
X125818742Y-68592000D01*
X125641258Y-68592000D01*
X125616488Y-68587073D01*
X125467188Y-68557376D01*
X125303216Y-68489456D01*
X125155646Y-68390853D01*
X125030147Y-68265354D01*
X124931544Y-68117784D01*
X124863624Y-67953812D01*
X124829000Y-67779741D01*
X124829000Y-67602259D01*
X124863624Y-67428188D01*
X124931544Y-67264216D01*
X125030147Y-67116646D01*
X125155646Y-66991147D01*
X125303216Y-66892544D01*
X125467188Y-66824624D01*
X125616488Y-66794927D01*
X125641258Y-66790000D01*
X125818742Y-66790000D01*
X125843512Y-66794927D01*
G37*
G36*
X128383512Y-66794927D02*
G01*
X128532812Y-66824624D01*
X128696784Y-66892544D01*
X128844354Y-66991147D01*
X128969853Y-67116646D01*
X129068456Y-67264216D01*
X129136376Y-67428188D01*
X129171000Y-67602259D01*
X129171000Y-67779741D01*
X129136376Y-67953812D01*
X129068456Y-68117784D01*
X128969853Y-68265354D01*
X128844354Y-68390853D01*
X128696784Y-68489456D01*
X128532812Y-68557376D01*
X128383512Y-68587073D01*
X128358742Y-68592000D01*
X128181258Y-68592000D01*
X128156488Y-68587073D01*
X128007188Y-68557376D01*
X127843216Y-68489456D01*
X127695646Y-68390853D01*
X127570147Y-68265354D01*
X127471544Y-68117784D01*
X127403624Y-67953812D01*
X127369000Y-67779741D01*
X127369000Y-67602259D01*
X127403624Y-67428188D01*
X127471544Y-67264216D01*
X127570147Y-67116646D01*
X127695646Y-66991147D01*
X127843216Y-66892544D01*
X128007188Y-66824624D01*
X128156488Y-66794927D01*
X128181258Y-66790000D01*
X128358742Y-66790000D01*
X128383512Y-66794927D01*
G37*
G36*
X130923512Y-66794927D02*
G01*
X131072812Y-66824624D01*
X131236784Y-66892544D01*
X131384354Y-66991147D01*
X131509853Y-67116646D01*
X131608456Y-67264216D01*
X131676376Y-67428188D01*
X131711000Y-67602259D01*
X131711000Y-67779741D01*
X131676376Y-67953812D01*
X131608456Y-68117784D01*
X131509853Y-68265354D01*
X131384354Y-68390853D01*
X131236784Y-68489456D01*
X131072812Y-68557376D01*
X130923512Y-68587073D01*
X130898742Y-68592000D01*
X130721258Y-68592000D01*
X130696488Y-68587073D01*
X130547188Y-68557376D01*
X130383216Y-68489456D01*
X130235646Y-68390853D01*
X130110147Y-68265354D01*
X130011544Y-68117784D01*
X129943624Y-67953812D01*
X129909000Y-67779741D01*
X129909000Y-67602259D01*
X129943624Y-67428188D01*
X130011544Y-67264216D01*
X130110147Y-67116646D01*
X130235646Y-66991147D01*
X130383216Y-66892544D01*
X130547188Y-66824624D01*
X130696488Y-66794927D01*
X130721258Y-66790000D01*
X130898742Y-66790000D01*
X130923512Y-66794927D01*
G37*
G36*
X133463512Y-66794927D02*
G01*
X133612812Y-66824624D01*
X133776784Y-66892544D01*
X133924354Y-66991147D01*
X134049853Y-67116646D01*
X134148456Y-67264216D01*
X134216376Y-67428188D01*
X134251000Y-67602259D01*
X134251000Y-67779741D01*
X134216376Y-67953812D01*
X134148456Y-68117784D01*
X134049853Y-68265354D01*
X133924354Y-68390853D01*
X133776784Y-68489456D01*
X133612812Y-68557376D01*
X133463512Y-68587073D01*
X133438742Y-68592000D01*
X133261258Y-68592000D01*
X133236488Y-68587073D01*
X133087188Y-68557376D01*
X132923216Y-68489456D01*
X132775646Y-68390853D01*
X132650147Y-68265354D01*
X132551544Y-68117784D01*
X132483624Y-67953812D01*
X132449000Y-67779741D01*
X132449000Y-67602259D01*
X132483624Y-67428188D01*
X132551544Y-67264216D01*
X132650147Y-67116646D01*
X132775646Y-66991147D01*
X132923216Y-66892544D01*
X133087188Y-66824624D01*
X133236488Y-66794927D01*
X133261258Y-66790000D01*
X133438742Y-66790000D01*
X133463512Y-66794927D01*
G37*
G36*
X136003512Y-66794927D02*
G01*
X136152812Y-66824624D01*
X136316784Y-66892544D01*
X136464354Y-66991147D01*
X136589853Y-67116646D01*
X136688456Y-67264216D01*
X136756376Y-67428188D01*
X136791000Y-67602259D01*
X136791000Y-67779741D01*
X136756376Y-67953812D01*
X136688456Y-68117784D01*
X136589853Y-68265354D01*
X136464354Y-68390853D01*
X136316784Y-68489456D01*
X136152812Y-68557376D01*
X136003512Y-68587073D01*
X135978742Y-68592000D01*
X135801258Y-68592000D01*
X135776488Y-68587073D01*
X135627188Y-68557376D01*
X135463216Y-68489456D01*
X135315646Y-68390853D01*
X135190147Y-68265354D01*
X135091544Y-68117784D01*
X135023624Y-67953812D01*
X134989000Y-67779741D01*
X134989000Y-67602259D01*
X135023624Y-67428188D01*
X135091544Y-67264216D01*
X135190147Y-67116646D01*
X135315646Y-66991147D01*
X135463216Y-66892544D01*
X135627188Y-66824624D01*
X135776488Y-66794927D01*
X135801258Y-66790000D01*
X135978742Y-66790000D01*
X136003512Y-66794927D01*
G37*
G36*
X141083512Y-66794927D02*
G01*
X141232812Y-66824624D01*
X141396784Y-66892544D01*
X141544354Y-66991147D01*
X141669853Y-67116646D01*
X141768456Y-67264216D01*
X141836376Y-67428188D01*
X141871000Y-67602259D01*
X141871000Y-67779741D01*
X141836376Y-67953812D01*
X141768456Y-68117784D01*
X141669853Y-68265354D01*
X141544354Y-68390853D01*
X141396784Y-68489456D01*
X141232812Y-68557376D01*
X141083512Y-68587073D01*
X141058742Y-68592000D01*
X140881258Y-68592000D01*
X140856488Y-68587073D01*
X140707188Y-68557376D01*
X140543216Y-68489456D01*
X140395646Y-68390853D01*
X140270147Y-68265354D01*
X140171544Y-68117784D01*
X140103624Y-67953812D01*
X140069000Y-67779741D01*
X140069000Y-67602259D01*
X140103624Y-67428188D01*
X140171544Y-67264216D01*
X140270147Y-67116646D01*
X140395646Y-66991147D01*
X140543216Y-66892544D01*
X140707188Y-66824624D01*
X140856488Y-66794927D01*
X140881258Y-66790000D01*
X141058742Y-66790000D01*
X141083512Y-66794927D01*
G37*
G36*
X143623512Y-66794927D02*
G01*
X143772812Y-66824624D01*
X143936784Y-66892544D01*
X144084354Y-66991147D01*
X144209853Y-67116646D01*
X144308456Y-67264216D01*
X144376376Y-67428188D01*
X144411000Y-67602259D01*
X144411000Y-67779741D01*
X144376376Y-67953812D01*
X144308456Y-68117784D01*
X144209853Y-68265354D01*
X144084354Y-68390853D01*
X143936784Y-68489456D01*
X143772812Y-68557376D01*
X143623512Y-68587073D01*
X143598742Y-68592000D01*
X143421258Y-68592000D01*
X143396488Y-68587073D01*
X143247188Y-68557376D01*
X143083216Y-68489456D01*
X142935646Y-68390853D01*
X142810147Y-68265354D01*
X142711544Y-68117784D01*
X142643624Y-67953812D01*
X142609000Y-67779741D01*
X142609000Y-67602259D01*
X142643624Y-67428188D01*
X142711544Y-67264216D01*
X142810147Y-67116646D01*
X142935646Y-66991147D01*
X143083216Y-66892544D01*
X143247188Y-66824624D01*
X143396488Y-66794927D01*
X143421258Y-66790000D01*
X143598742Y-66790000D01*
X143623512Y-66794927D01*
G37*
G36*
X146163512Y-66794927D02*
G01*
X146312812Y-66824624D01*
X146476784Y-66892544D01*
X146624354Y-66991147D01*
X146749853Y-67116646D01*
X146848456Y-67264216D01*
X146916376Y-67428188D01*
X146951000Y-67602259D01*
X146951000Y-67779741D01*
X146916376Y-67953812D01*
X146848456Y-68117784D01*
X146749853Y-68265354D01*
X146624354Y-68390853D01*
X146476784Y-68489456D01*
X146312812Y-68557376D01*
X146163512Y-68587073D01*
X146138742Y-68592000D01*
X145961258Y-68592000D01*
X145936488Y-68587073D01*
X145787188Y-68557376D01*
X145623216Y-68489456D01*
X145475646Y-68390853D01*
X145350147Y-68265354D01*
X145251544Y-68117784D01*
X145183624Y-67953812D01*
X145149000Y-67779741D01*
X145149000Y-67602259D01*
X145183624Y-67428188D01*
X145251544Y-67264216D01*
X145350147Y-67116646D01*
X145475646Y-66991147D01*
X145623216Y-66892544D01*
X145787188Y-66824624D01*
X145936488Y-66794927D01*
X145961258Y-66790000D01*
X146138742Y-66790000D01*
X146163512Y-66794927D01*
G37*
G36*
X148703512Y-66794927D02*
G01*
X148852812Y-66824624D01*
X149016784Y-66892544D01*
X149164354Y-66991147D01*
X149289853Y-67116646D01*
X149388456Y-67264216D01*
X149456376Y-67428188D01*
X149491000Y-67602259D01*
X149491000Y-67779741D01*
X149456376Y-67953812D01*
X149388456Y-68117784D01*
X149289853Y-68265354D01*
X149164354Y-68390853D01*
X149016784Y-68489456D01*
X148852812Y-68557376D01*
X148703512Y-68587073D01*
X148678742Y-68592000D01*
X148501258Y-68592000D01*
X148476488Y-68587073D01*
X148327188Y-68557376D01*
X148163216Y-68489456D01*
X148015646Y-68390853D01*
X147890147Y-68265354D01*
X147791544Y-68117784D01*
X147723624Y-67953812D01*
X147689000Y-67779741D01*
X147689000Y-67602259D01*
X147723624Y-67428188D01*
X147791544Y-67264216D01*
X147890147Y-67116646D01*
X148015646Y-66991147D01*
X148163216Y-66892544D01*
X148327188Y-66824624D01*
X148476488Y-66794927D01*
X148501258Y-66790000D01*
X148678742Y-66790000D01*
X148703512Y-66794927D01*
G37*
G36*
X151243512Y-66794927D02*
G01*
X151392812Y-66824624D01*
X151556784Y-66892544D01*
X151704354Y-66991147D01*
X151829853Y-67116646D01*
X151928456Y-67264216D01*
X151996376Y-67428188D01*
X152031000Y-67602259D01*
X152031000Y-67779741D01*
X151996376Y-67953812D01*
X151928456Y-68117784D01*
X151829853Y-68265354D01*
X151704354Y-68390853D01*
X151556784Y-68489456D01*
X151392812Y-68557376D01*
X151243512Y-68587073D01*
X151218742Y-68592000D01*
X151041258Y-68592000D01*
X151016488Y-68587073D01*
X150867188Y-68557376D01*
X150703216Y-68489456D01*
X150555646Y-68390853D01*
X150430147Y-68265354D01*
X150331544Y-68117784D01*
X150263624Y-67953812D01*
X150229000Y-67779741D01*
X150229000Y-67602259D01*
X150263624Y-67428188D01*
X150331544Y-67264216D01*
X150430147Y-67116646D01*
X150555646Y-66991147D01*
X150703216Y-66892544D01*
X150867188Y-66824624D01*
X151016488Y-66794927D01*
X151041258Y-66790000D01*
X151218742Y-66790000D01*
X151243512Y-66794927D01*
G37*
G36*
X153783512Y-66794927D02*
G01*
X153932812Y-66824624D01*
X154096784Y-66892544D01*
X154244354Y-66991147D01*
X154369853Y-67116646D01*
X154468456Y-67264216D01*
X154536376Y-67428188D01*
X154571000Y-67602259D01*
X154571000Y-67779741D01*
X154536376Y-67953812D01*
X154468456Y-68117784D01*
X154369853Y-68265354D01*
X154244354Y-68390853D01*
X154096784Y-68489456D01*
X153932812Y-68557376D01*
X153783512Y-68587073D01*
X153758742Y-68592000D01*
X153581258Y-68592000D01*
X153556488Y-68587073D01*
X153407188Y-68557376D01*
X153243216Y-68489456D01*
X153095646Y-68390853D01*
X152970147Y-68265354D01*
X152871544Y-68117784D01*
X152803624Y-67953812D01*
X152769000Y-67779741D01*
X152769000Y-67602259D01*
X152803624Y-67428188D01*
X152871544Y-67264216D01*
X152970147Y-67116646D01*
X153095646Y-66991147D01*
X153243216Y-66892544D01*
X153407188Y-66824624D01*
X153556488Y-66794927D01*
X153581258Y-66790000D01*
X153758742Y-66790000D01*
X153783512Y-66794927D01*
G37*
G36*
X156323512Y-66794927D02*
G01*
X156472812Y-66824624D01*
X156636784Y-66892544D01*
X156784354Y-66991147D01*
X156909853Y-67116646D01*
X157008456Y-67264216D01*
X157076376Y-67428188D01*
X157111000Y-67602259D01*
X157111000Y-67779741D01*
X157076376Y-67953812D01*
X157008456Y-68117784D01*
X156909853Y-68265354D01*
X156784354Y-68390853D01*
X156636784Y-68489456D01*
X156472812Y-68557376D01*
X156323512Y-68587073D01*
X156298742Y-68592000D01*
X156121258Y-68592000D01*
X156096488Y-68587073D01*
X155947188Y-68557376D01*
X155783216Y-68489456D01*
X155635646Y-68390853D01*
X155510147Y-68265354D01*
X155411544Y-68117784D01*
X155343624Y-67953812D01*
X155309000Y-67779741D01*
X155309000Y-67602259D01*
X155343624Y-67428188D01*
X155411544Y-67264216D01*
X155510147Y-67116646D01*
X155635646Y-66991147D01*
X155783216Y-66892544D01*
X155947188Y-66824624D01*
X156096488Y-66794927D01*
X156121258Y-66790000D01*
X156298742Y-66790000D01*
X156323512Y-66794927D01*
G37*
G36*
X156323512Y-64254927D02*
G01*
X156472812Y-64284624D01*
X156636784Y-64352544D01*
X156784354Y-64451147D01*
X156909853Y-64576646D01*
X157008456Y-64724216D01*
X157076376Y-64888188D01*
X157111000Y-65062259D01*
X157111000Y-65239741D01*
X157076376Y-65413812D01*
X157008456Y-65577784D01*
X156909853Y-65725354D01*
X156784354Y-65850853D01*
X156636784Y-65949456D01*
X156472812Y-66017376D01*
X156323512Y-66047073D01*
X156298742Y-66052000D01*
X156121258Y-66052000D01*
X156096488Y-66047073D01*
X155947188Y-66017376D01*
X155783216Y-65949456D01*
X155635646Y-65850853D01*
X155510147Y-65725354D01*
X155411544Y-65577784D01*
X155343624Y-65413812D01*
X155309000Y-65239741D01*
X155309000Y-65062259D01*
X155343624Y-64888188D01*
X155411544Y-64724216D01*
X155510147Y-64576646D01*
X155635646Y-64451147D01*
X155783216Y-64352544D01*
X155947188Y-64284624D01*
X156096488Y-64254927D01*
X156121258Y-64250000D01*
X156298742Y-64250000D01*
X156323512Y-64254927D01*
G37*
G36*
X158863512Y-64254927D02*
G01*
X159012812Y-64284624D01*
X159176784Y-64352544D01*
X159324354Y-64451147D01*
X159449853Y-64576646D01*
X159548456Y-64724216D01*
X159616376Y-64888188D01*
X159651000Y-65062259D01*
X159651000Y-65239741D01*
X159616376Y-65413812D01*
X159548456Y-65577784D01*
X159449853Y-65725354D01*
X159324354Y-65850853D01*
X159176784Y-65949456D01*
X159012812Y-66017376D01*
X158863512Y-66047073D01*
X158838742Y-66052000D01*
X158661258Y-66052000D01*
X158636488Y-66047073D01*
X158487188Y-66017376D01*
X158323216Y-65949456D01*
X158175646Y-65850853D01*
X158050147Y-65725354D01*
X157951544Y-65577784D01*
X157883624Y-65413812D01*
X157849000Y-65239741D01*
X157849000Y-65062259D01*
X157883624Y-64888188D01*
X157951544Y-64724216D01*
X158050147Y-64576646D01*
X158175646Y-64451147D01*
X158323216Y-64352544D01*
X158487188Y-64284624D01*
X158636488Y-64254927D01*
X158661258Y-64250000D01*
X158838742Y-64250000D01*
X158863512Y-64254927D01*
G37*
G36*
X146163512Y-64254927D02*
G01*
X146312812Y-64284624D01*
X146476784Y-64352544D01*
X146624354Y-64451147D01*
X146749853Y-64576646D01*
X146848456Y-64724216D01*
X146916376Y-64888188D01*
X146951000Y-65062259D01*
X146951000Y-65239741D01*
X146916376Y-65413812D01*
X146848456Y-65577784D01*
X146749853Y-65725354D01*
X146624354Y-65850853D01*
X146476784Y-65949456D01*
X146312812Y-66017376D01*
X146163512Y-66047073D01*
X146138742Y-66052000D01*
X145961258Y-66052000D01*
X145936488Y-66047073D01*
X145787188Y-66017376D01*
X145623216Y-65949456D01*
X145475646Y-65850853D01*
X145350147Y-65725354D01*
X145251544Y-65577784D01*
X145183624Y-65413812D01*
X145149000Y-65239741D01*
X145149000Y-65062259D01*
X145183624Y-64888188D01*
X145251544Y-64724216D01*
X145350147Y-64576646D01*
X145475646Y-64451147D01*
X145623216Y-64352544D01*
X145787188Y-64284624D01*
X145936488Y-64254927D01*
X145961258Y-64250000D01*
X146138742Y-64250000D01*
X146163512Y-64254927D01*
G37*
G36*
X151243512Y-64254927D02*
G01*
X151392812Y-64284624D01*
X151556784Y-64352544D01*
X151704354Y-64451147D01*
X151829853Y-64576646D01*
X151928456Y-64724216D01*
X151996376Y-64888188D01*
X152031000Y-65062259D01*
X152031000Y-65239741D01*
X151996376Y-65413812D01*
X151928456Y-65577784D01*
X151829853Y-65725354D01*
X151704354Y-65850853D01*
X151556784Y-65949456D01*
X151392812Y-66017376D01*
X151243512Y-66047073D01*
X151218742Y-66052000D01*
X151041258Y-66052000D01*
X151016488Y-66047073D01*
X150867188Y-66017376D01*
X150703216Y-65949456D01*
X150555646Y-65850853D01*
X150430147Y-65725354D01*
X150331544Y-65577784D01*
X150263624Y-65413812D01*
X150229000Y-65239741D01*
X150229000Y-65062259D01*
X150263624Y-64888188D01*
X150331544Y-64724216D01*
X150430147Y-64576646D01*
X150555646Y-64451147D01*
X150703216Y-64352544D01*
X150867188Y-64284624D01*
X151016488Y-64254927D01*
X151041258Y-64250000D01*
X151218742Y-64250000D01*
X151243512Y-64254927D01*
G37*
G36*
X153783512Y-64254927D02*
G01*
X153932812Y-64284624D01*
X154096784Y-64352544D01*
X154244354Y-64451147D01*
X154369853Y-64576646D01*
X154468456Y-64724216D01*
X154536376Y-64888188D01*
X154571000Y-65062259D01*
X154571000Y-65239741D01*
X154536376Y-65413812D01*
X154468456Y-65577784D01*
X154369853Y-65725354D01*
X154244354Y-65850853D01*
X154096784Y-65949456D01*
X153932812Y-66017376D01*
X153783512Y-66047073D01*
X153758742Y-66052000D01*
X153581258Y-66052000D01*
X153556488Y-66047073D01*
X153407188Y-66017376D01*
X153243216Y-65949456D01*
X153095646Y-65850853D01*
X152970147Y-65725354D01*
X152871544Y-65577784D01*
X152803624Y-65413812D01*
X152769000Y-65239741D01*
X152769000Y-65062259D01*
X152803624Y-64888188D01*
X152871544Y-64724216D01*
X152970147Y-64576646D01*
X153095646Y-64451147D01*
X153243216Y-64352544D01*
X153407188Y-64284624D01*
X153556488Y-64254927D01*
X153581258Y-64250000D01*
X153758742Y-64250000D01*
X153783512Y-64254927D01*
G37*
G36*
X120763512Y-64254927D02*
G01*
X120912812Y-64284624D01*
X121076784Y-64352544D01*
X121224354Y-64451147D01*
X121349853Y-64576646D01*
X121448456Y-64724216D01*
X121516376Y-64888188D01*
X121551000Y-65062259D01*
X121551000Y-65239741D01*
X121516376Y-65413812D01*
X121448456Y-65577784D01*
X121349853Y-65725354D01*
X121224354Y-65850853D01*
X121076784Y-65949456D01*
X120912812Y-66017376D01*
X120763512Y-66047073D01*
X120738742Y-66052000D01*
X120561258Y-66052000D01*
X120536488Y-66047073D01*
X120387188Y-66017376D01*
X120223216Y-65949456D01*
X120075646Y-65850853D01*
X119950147Y-65725354D01*
X119851544Y-65577784D01*
X119783624Y-65413812D01*
X119749000Y-65239741D01*
X119749000Y-65062259D01*
X119783624Y-64888188D01*
X119851544Y-64724216D01*
X119950147Y-64576646D01*
X120075646Y-64451147D01*
X120223216Y-64352544D01*
X120387188Y-64284624D01*
X120536488Y-64254927D01*
X120561258Y-64250000D01*
X120738742Y-64250000D01*
X120763512Y-64254927D01*
G37*
G36*
X143623512Y-64254927D02*
G01*
X143772812Y-64284624D01*
X143936784Y-64352544D01*
X144084354Y-64451147D01*
X144209853Y-64576646D01*
X144308456Y-64724216D01*
X144376376Y-64888188D01*
X144411000Y-65062259D01*
X144411000Y-65239741D01*
X144376376Y-65413812D01*
X144308456Y-65577784D01*
X144209853Y-65725354D01*
X144084354Y-65850853D01*
X143936784Y-65949456D01*
X143772812Y-66017376D01*
X143623512Y-66047073D01*
X143598742Y-66052000D01*
X143421258Y-66052000D01*
X143396488Y-66047073D01*
X143247188Y-66017376D01*
X143083216Y-65949456D01*
X142935646Y-65850853D01*
X142810147Y-65725354D01*
X142711544Y-65577784D01*
X142643624Y-65413812D01*
X142609000Y-65239741D01*
X142609000Y-65062259D01*
X142643624Y-64888188D01*
X142711544Y-64724216D01*
X142810147Y-64576646D01*
X142935646Y-64451147D01*
X143083216Y-64352544D01*
X143247188Y-64284624D01*
X143396488Y-64254927D01*
X143421258Y-64250000D01*
X143598742Y-64250000D01*
X143623512Y-64254927D01*
G37*
G36*
X123303512Y-64254927D02*
G01*
X123452812Y-64284624D01*
X123616784Y-64352544D01*
X123764354Y-64451147D01*
X123889853Y-64576646D01*
X123988456Y-64724216D01*
X124056376Y-64888188D01*
X124091000Y-65062259D01*
X124091000Y-65239741D01*
X124056376Y-65413812D01*
X123988456Y-65577784D01*
X123889853Y-65725354D01*
X123764354Y-65850853D01*
X123616784Y-65949456D01*
X123452812Y-66017376D01*
X123303512Y-66047073D01*
X123278742Y-66052000D01*
X123101258Y-66052000D01*
X123076488Y-66047073D01*
X122927188Y-66017376D01*
X122763216Y-65949456D01*
X122615646Y-65850853D01*
X122490147Y-65725354D01*
X122391544Y-65577784D01*
X122323624Y-65413812D01*
X122289000Y-65239741D01*
X122289000Y-65062259D01*
X122323624Y-64888188D01*
X122391544Y-64724216D01*
X122490147Y-64576646D01*
X122615646Y-64451147D01*
X122763216Y-64352544D01*
X122927188Y-64284624D01*
X123076488Y-64254927D01*
X123101258Y-64250000D01*
X123278742Y-64250000D01*
X123303512Y-64254927D01*
G37*
G36*
X141083512Y-64254927D02*
G01*
X141232812Y-64284624D01*
X141396784Y-64352544D01*
X141544354Y-64451147D01*
X141669853Y-64576646D01*
X141768456Y-64724216D01*
X141836376Y-64888188D01*
X141871000Y-65062259D01*
X141871000Y-65239741D01*
X141836376Y-65413812D01*
X141768456Y-65577784D01*
X141669853Y-65725354D01*
X141544354Y-65850853D01*
X141396784Y-65949456D01*
X141232812Y-66017376D01*
X141083512Y-66047073D01*
X141058742Y-66052000D01*
X140881258Y-66052000D01*
X140856488Y-66047073D01*
X140707188Y-66017376D01*
X140543216Y-65949456D01*
X140395646Y-65850853D01*
X140270147Y-65725354D01*
X140171544Y-65577784D01*
X140103624Y-65413812D01*
X140069000Y-65239741D01*
X140069000Y-65062259D01*
X140103624Y-64888188D01*
X140171544Y-64724216D01*
X140270147Y-64576646D01*
X140395646Y-64451147D01*
X140543216Y-64352544D01*
X140707188Y-64284624D01*
X140856488Y-64254927D01*
X140881258Y-64250000D01*
X141058742Y-64250000D01*
X141083512Y-64254927D01*
G37*
G36*
X125843512Y-64254927D02*
G01*
X125992812Y-64284624D01*
X126156784Y-64352544D01*
X126304354Y-64451147D01*
X126429853Y-64576646D01*
X126528456Y-64724216D01*
X126596376Y-64888188D01*
X126631000Y-65062259D01*
X126631000Y-65239741D01*
X126596376Y-65413812D01*
X126528456Y-65577784D01*
X126429853Y-65725354D01*
X126304354Y-65850853D01*
X126156784Y-65949456D01*
X125992812Y-66017376D01*
X125843512Y-66047073D01*
X125818742Y-66052000D01*
X125641258Y-66052000D01*
X125616488Y-66047073D01*
X125467188Y-66017376D01*
X125303216Y-65949456D01*
X125155646Y-65850853D01*
X125030147Y-65725354D01*
X124931544Y-65577784D01*
X124863624Y-65413812D01*
X124829000Y-65239741D01*
X124829000Y-65062259D01*
X124863624Y-64888188D01*
X124931544Y-64724216D01*
X125030147Y-64576646D01*
X125155646Y-64451147D01*
X125303216Y-64352544D01*
X125467188Y-64284624D01*
X125616488Y-64254927D01*
X125641258Y-64250000D01*
X125818742Y-64250000D01*
X125843512Y-64254927D01*
G37*
G36*
X138543512Y-64254927D02*
G01*
X138692812Y-64284624D01*
X138856784Y-64352544D01*
X139004354Y-64451147D01*
X139129853Y-64576646D01*
X139228456Y-64724216D01*
X139296376Y-64888188D01*
X139331000Y-65062259D01*
X139331000Y-65239741D01*
X139296376Y-65413812D01*
X139228456Y-65577784D01*
X139129853Y-65725354D01*
X139004354Y-65850853D01*
X138856784Y-65949456D01*
X138692812Y-66017376D01*
X138543512Y-66047073D01*
X138518742Y-66052000D01*
X138341258Y-66052000D01*
X138316488Y-66047073D01*
X138167188Y-66017376D01*
X138003216Y-65949456D01*
X137855646Y-65850853D01*
X137730147Y-65725354D01*
X137631544Y-65577784D01*
X137563624Y-65413812D01*
X137529000Y-65239741D01*
X137529000Y-65062259D01*
X137563624Y-64888188D01*
X137631544Y-64724216D01*
X137730147Y-64576646D01*
X137855646Y-64451147D01*
X138003216Y-64352544D01*
X138167188Y-64284624D01*
X138316488Y-64254927D01*
X138341258Y-64250000D01*
X138518742Y-64250000D01*
X138543512Y-64254927D01*
G37*
G36*
X128383512Y-64254927D02*
G01*
X128532812Y-64284624D01*
X128696784Y-64352544D01*
X128844354Y-64451147D01*
X128969853Y-64576646D01*
X129068456Y-64724216D01*
X129136376Y-64888188D01*
X129171000Y-65062259D01*
X129171000Y-65239741D01*
X129136376Y-65413812D01*
X129068456Y-65577784D01*
X128969853Y-65725354D01*
X128844354Y-65850853D01*
X128696784Y-65949456D01*
X128532812Y-66017376D01*
X128383512Y-66047073D01*
X128358742Y-66052000D01*
X128181258Y-66052000D01*
X128156488Y-66047073D01*
X128007188Y-66017376D01*
X127843216Y-65949456D01*
X127695646Y-65850853D01*
X127570147Y-65725354D01*
X127471544Y-65577784D01*
X127403624Y-65413812D01*
X127369000Y-65239741D01*
X127369000Y-65062259D01*
X127403624Y-64888188D01*
X127471544Y-64724216D01*
X127570147Y-64576646D01*
X127695646Y-64451147D01*
X127843216Y-64352544D01*
X128007188Y-64284624D01*
X128156488Y-64254927D01*
X128181258Y-64250000D01*
X128358742Y-64250000D01*
X128383512Y-64254927D01*
G37*
G36*
X136003512Y-64254927D02*
G01*
X136152812Y-64284624D01*
X136316784Y-64352544D01*
X136464354Y-64451147D01*
X136589853Y-64576646D01*
X136688456Y-64724216D01*
X136756376Y-64888188D01*
X136791000Y-65062259D01*
X136791000Y-65239741D01*
X136756376Y-65413812D01*
X136688456Y-65577784D01*
X136589853Y-65725354D01*
X136464354Y-65850853D01*
X136316784Y-65949456D01*
X136152812Y-66017376D01*
X136003512Y-66047073D01*
X135978742Y-66052000D01*
X135801258Y-66052000D01*
X135776488Y-66047073D01*
X135627188Y-66017376D01*
X135463216Y-65949456D01*
X135315646Y-65850853D01*
X135190147Y-65725354D01*
X135091544Y-65577784D01*
X135023624Y-65413812D01*
X134989000Y-65239741D01*
X134989000Y-65062259D01*
X135023624Y-64888188D01*
X135091544Y-64724216D01*
X135190147Y-64576646D01*
X135315646Y-64451147D01*
X135463216Y-64352544D01*
X135627188Y-64284624D01*
X135776488Y-64254927D01*
X135801258Y-64250000D01*
X135978742Y-64250000D01*
X136003512Y-64254927D01*
G37*
G36*
X148703512Y-64254927D02*
G01*
X148852812Y-64284624D01*
X149016784Y-64352544D01*
X149164354Y-64451147D01*
X149289853Y-64576646D01*
X149388456Y-64724216D01*
X149456376Y-64888188D01*
X149491000Y-65062259D01*
X149491000Y-65239741D01*
X149456376Y-65413812D01*
X149388456Y-65577784D01*
X149289853Y-65725354D01*
X149164354Y-65850853D01*
X149016784Y-65949456D01*
X148852812Y-66017376D01*
X148703512Y-66047073D01*
X148678742Y-66052000D01*
X148501258Y-66052000D01*
X148476488Y-66047073D01*
X148327188Y-66017376D01*
X148163216Y-65949456D01*
X148015646Y-65850853D01*
X147890147Y-65725354D01*
X147791544Y-65577784D01*
X147723624Y-65413812D01*
X147689000Y-65239741D01*
X147689000Y-65062259D01*
X147723624Y-64888188D01*
X147791544Y-64724216D01*
X147890147Y-64576646D01*
X148015646Y-64451147D01*
X148163216Y-64352544D01*
X148327188Y-64284624D01*
X148476488Y-64254927D01*
X148501258Y-64250000D01*
X148678742Y-64250000D01*
X148703512Y-64254927D01*
G37*
G36*
X133463512Y-64254927D02*
G01*
X133612812Y-64284624D01*
X133776784Y-64352544D01*
X133924354Y-64451147D01*
X134049853Y-64576646D01*
X134148456Y-64724216D01*
X134216376Y-64888188D01*
X134251000Y-65062259D01*
X134251000Y-65239741D01*
X134216376Y-65413812D01*
X134148456Y-65577784D01*
X134049853Y-65725354D01*
X133924354Y-65850853D01*
X133776784Y-65949456D01*
X133612812Y-66017376D01*
X133463512Y-66047073D01*
X133438742Y-66052000D01*
X133261258Y-66052000D01*
X133236488Y-66047073D01*
X133087188Y-66017376D01*
X132923216Y-65949456D01*
X132775646Y-65850853D01*
X132650147Y-65725354D01*
X132551544Y-65577784D01*
X132483624Y-65413812D01*
X132449000Y-65239741D01*
X132449000Y-65062259D01*
X132483624Y-64888188D01*
X132551544Y-64724216D01*
X132650147Y-64576646D01*
X132775646Y-64451147D01*
X132923216Y-64352544D01*
X133087188Y-64284624D01*
X133236488Y-64254927D01*
X133261258Y-64250000D01*
X133438742Y-64250000D01*
X133463512Y-64254927D01*
G37*
G36*
X130923512Y-64254927D02*
G01*
X131072812Y-64284624D01*
X131236784Y-64352544D01*
X131384354Y-64451147D01*
X131509853Y-64576646D01*
X131608456Y-64724216D01*
X131676376Y-64888188D01*
X131711000Y-65062259D01*
X131711000Y-65239741D01*
X131676376Y-65413812D01*
X131608456Y-65577784D01*
X131509853Y-65725354D01*
X131384354Y-65850853D01*
X131236784Y-65949456D01*
X131072812Y-66017376D01*
X130923512Y-66047073D01*
X130898742Y-66052000D01*
X130721258Y-66052000D01*
X130696488Y-66047073D01*
X130547188Y-66017376D01*
X130383216Y-65949456D01*
X130235646Y-65850853D01*
X130110147Y-65725354D01*
X130011544Y-65577784D01*
X129943624Y-65413812D01*
X129909000Y-65239741D01*
X129909000Y-65062259D01*
X129943624Y-64888188D01*
X130011544Y-64724216D01*
X130110147Y-64576646D01*
X130235646Y-64451147D01*
X130383216Y-64352544D01*
X130547188Y-64284624D01*
X130696488Y-64254927D01*
X130721258Y-64250000D01*
X130898742Y-64250000D01*
X130923512Y-64254927D01*
G37*
M02*
